<svg width="400" height="214" viewBox="0 0 400 214" fill="none" xmlns="http://www.w3.org/2000/svg">
<path fill-rule="evenodd" clip-rule="evenodd" d="M229.416 106.5C229.416 72.2435 204.091 46.0712 171.583 46.0712C139.302 46.0712 113.734 72.2435 113.734 106.5C113.734 140.76 139.302 166.928 171.583 166.928C204.091 166.928 229.416 140.76 229.416 106.5ZM239.055 106.5C239.055 145.58 209.849 177 171.584 177C133.504 177 104.111 145.58 104.111 106.5C104.111 67.4232 133.502 36 171.583 36C209.848 36 239.055 67.4232 239.055 106.5ZM287.25 116.572V106.5H306.528V128.672C306.528 141.247 297.883 149.303 287.016 149.303C276.268 149.303 267.973 141.612 267.973 129.038V84.8149C267.973 72.2413 276.618 63.6964 287.367 63.6964C298.233 63.6964 306.528 71.8757 306.528 84.4499V93.9106H296.89V85.2583C296.89 78.4328 293.383 74.2634 288.199 73.8123C287.889 73.7826 287.572 73.7678 287.25 73.7678H287.249C286.915 73.7678 286.589 73.7838 286.27 73.8141C281.103 74.2782 277.612 78.4453 277.612 85.2583V127.742C277.612 134.976 281.549 139.232 287.251 139.232H287.376C288.382 139.232 289.328 139.086 290.202 138.806C294.266 137.564 296.89 133.646 296.89 127.742V116.572H287.25ZM364.361 127.61V66.214H374V128.657C374 141.246 365.325 149.303 354.481 149.303C343.758 149.303 335.444 141.625 335.444 129.035V66.214H345.083V127.61C345.083 134.893 348.939 139.231 354.723 139.231H354.857C355.819 139.231 356.729 139.09 357.572 138.818C361.658 137.58 364.361 133.591 364.361 127.61ZM64.9045 66.214H72.6598H75.1943V146.786H65.5554V92.1003L52.8668 134.196H49.3275L36.6389 92.1003V146.786H27V66.214H29.5351H37.2898L51.0974 108.246L64.9045 66.214Z" fill="#152C5B"/>
</svg>
