<svg id="Group_7196" data-name="Group 7196" xmlns="http://www.w3.org/2000/svg" xmlns:xlink="http://www.w3.org/1999/xlink" width="43.663" height="43.673" viewBox="0 0 43.663 43.673">
  <defs>
    <clipPath id="clip-path">
      <rect id="Rectangle_3890" data-name="Rectangle 3890" width="43.663" height="43.673" fill="#134080"/>
    </clipPath>
  </defs>
  <g id="Group_7195" data-name="Group 7195" clip-path="url(#clip-path)">
    <path id="Path_86089" data-name="Path 86089" d="M29.848,43.673H3.412a.47.47,0,0,0-.113-.055A3.819,3.819,0,0,1,0,39.641Q0,21.838.006,4.035A4.352,4.352,0,0,1,.14,2.9,3.8,3.8,0,0,1,3.976,0Q13.313-.007,22.65,0c.121,0,.242.016.375.025,0,2.927,0,5.811,0,8.7,0,1.05.46,1.512,1.5,1.513h8.729c0,1.75-.008,3.427.007,5.1a.938.938,0,0,1-.309.742c-2.725,2.7-5.453,5.4-8.148,8.132a5.505,5.505,0,0,0-1.227,1.716,43.372,43.372,0,0,0-1.495,4.433,2.9,2.9,0,0,0,.934,3.057,3.036,3.036,0,0,0,3.125.7c1.189-.38,2.367-.794,3.554-1.18a5.552,5.552,0,0,0,2.233-1.361q.514-.511,1.038-1.012a3.183,3.183,0,0,1,.282-.212c0,3.234.02,6.4-.011,9.57A3.676,3.676,0,0,1,31.8,42.8a4.924,4.924,0,0,1-1.956.869M15.307,15.355h6.438c.839,0,1.677.014,2.515-.006a1.267,1.267,0,0,0,1.24-1.57,1.306,1.306,0,0,0-1.41-.982q-8.762,0-17.523,0a2.088,2.088,0,0,0-.3.01,1.248,1.248,0,0,0-1.072.853,1.277,1.277,0,0,0,1.327,1.694q4.391.008,8.783,0m-2.558,5.117c2.1,0,4.207,0,6.31,0a1.281,1.281,0,1,0-.042-2.555q-4.818-.005-9.636,0c-.98,0-1.961-.006-2.942,0a1.278,1.278,0,1,0,.042,2.553c2.089.01,4.178,0,6.267,0m.044,5.118c2.089,0,4.178,0,6.267,0a1.281,1.281,0,1,0-.044-2.555q-4.86-.005-9.721,0c-.952,0-1.9-.006-2.856,0a1.278,1.278,0,1,0,.044,2.553c2.1.009,4.206,0,6.31,0m0,2.559q-3.134,0-6.267,0a1.3,1.3,0,0,0-1.317.821,1.283,1.283,0,0,0,1.316,1.735q4.818.008,9.635,0c.981,0,1.962.009,2.942,0a1.278,1.278,0,1,0-.042-2.553c-2.089-.007-4.178,0-6.267,0m7.648,7.676c-1.236,0-2.472,0-3.708,0a1.285,1.285,0,1,0,.014,2.557q3.687,0,7.374,0a1.285,1.285,0,1,0-.014-2.557c-1.222,0-2.444,0-3.666,0" transform="translate(0 0)" fill="#134080"/>
    <path id="Path_86090" data-name="Path 86090" d="M143.69,49.25a8.707,8.707,0,0,1-2.578,3.143l-3.63-3.629a23.269,23.269,0,0,1,2.223-2.07,2.544,2.544,0,0,1,3.866,1.356,2.614,2.614,0,0,0,.118.262Z" transform="translate(-100.028 -33.64)" fill="#134080"/>
    <path id="Path_86091" data-name="Path 86091" d="M111.989,66.373l-8.309,8.31-3.527-3.516,8.321-8.322,3.515,3.528" transform="translate(-72.868 -45.724)" fill="#134080"/>
    <path id="Path_86092" data-name="Path 86092" d="M101.391,7.686H93.728V.041A3.963,3.963,0,0,1,96.708,1.2q1.776,1.749,3.525,3.523a3.837,3.837,0,0,1,1.158,2.96" transform="translate(-68.193 -0.029)" fill="#134080"/>
    <path id="Path_86093" data-name="Path 86093" d="M91.215,101.385l2.967,2.966c-.434.148-.881.3-1.33.454-.551.185-1.106.359-1.655.55-.317.111-.626.219-.912-.06-.3-.3-.183-.625-.074-.952q.43-1.292.862-2.583c.044-.133.1-.263.143-.375" transform="translate(-65.548 -73.764)" fill="#134080"/>
  </g>
</svg>
