<svg id="Group_7203" data-name="Group 7203" xmlns="http://www.w3.org/2000/svg" xmlns:xlink="http://www.w3.org/1999/xlink" width="44.497" height="38.541" viewBox="0 0 44.497 38.541">
  <defs>
    <clipPath id="clip-path">
      <rect id="Rectangle_3893" data-name="Rectangle 3893" width="44.497" height="38.541" fill="#134080"/>
    </clipPath>
  </defs>
  <g id="Group_7203-2" data-name="Group 7203" clip-path="url(#clip-path)">
    <path id="Path_86102" data-name="Path 86102" d="M26.222,95.014c0-4.357-.025-8.714,0-13.071A4.286,4.286,0,0,1,29.4,78a12.344,12.344,0,0,1,9.378.857,18.78,18.78,0,0,0,2.831,1.21,8.889,8.889,0,0,0,2.321.385c1.325.06,2.656.011,3.984.018a1.36,1.36,0,0,1,1.509,1.567,3.461,3.461,0,0,1-2.763,3.621,4.737,4.737,0,0,1-.935.063c-2.552,0-5.1-.012-7.655.019a2.112,2.112,0,0,0-1.106.362,1.143,1.143,0,0,0-.39,1.367,1.259,1.259,0,0,0,1.146.924c.355.034.716.018,1.074.018,2.283,0,4.567-.018,6.85.008A3.9,3.9,0,0,0,48.6,87.2c1.845-1.869,3.694-3.734,5.574-5.568a6.438,6.438,0,0,1,8.844-.1,1.374,1.374,0,0,1,.054,2.213q-4.73,4.735-9.465,9.465a5.892,5.892,0,0,1-3.358,1.731,1.06,1.06,0,0,0-.2.075Z" transform="translate(-19.109 -56.473)" fill="#134080"/>
    <path id="Path_86103" data-name="Path 86103" d="M1.022,106.706A1.635,1.635,0,0,1,0,104.971c.03-3.279.012-6.558.013-9.837,0-1.15.482-1.638,1.622-1.641.864,0,1.729,0,2.594.006a1.141,1.141,0,0,1,.2.051v13.157Z" transform="translate(0 -68.166)" fill="#134080"/>
    <path id="Path_86104" data-name="Path 86104" d="M73.8,0A11.241,11.241,0,1,0,85.041,11.24,11.241,11.241,0,0,0,73.8,0m4.447,9.157a.319.319,0,0,1-.331.331h-1.74a3.871,3.871,0,0,1-1.336,2.423,5.25,5.25,0,0,1-2.858,1.139q1.729,1.843,4.753,5.55a.283.283,0,0,1,.041.352.3.3,0,0,1-.3.187H74.456a.306.306,0,0,1-.259-.124q-3.168-3.8-5.157-5.913a.31.31,0,0,1-.093-.228V11.558a.336.336,0,0,1,.331-.331h1.16a4.673,4.673,0,0,0,2.2-.445A2.023,2.023,0,0,0,73.7,9.487H69.279a.319.319,0,0,1-.331-.331V8.1a.319.319,0,0,1,.331-.331h4.276Q72.965,6.6,70.78,6.6h-1.5a.336.336,0,0,1-.331-.331V4.889a.319.319,0,0,1,.331-.331h8.615a.318.318,0,0,1,.331.331V5.946a.318.318,0,0,1-.331.331H75.481a3.585,3.585,0,0,1,.663,1.491h1.771a.319.319,0,0,1,.331.331Z" transform="translate(-45.611 0.001)" fill="#134080"/>
  </g>
</svg>
