<svg id="Group_7201" data-name="Group 7201" xmlns="http://www.w3.org/2000/svg" xmlns:xlink="http://www.w3.org/1999/xlink" width="40.621" height="42.664" viewBox="0 0 40.621 42.664">
  <defs>
    <clipPath id="clip-path">
      <rect id="Rectangle_3891" data-name="Rectangle 3891" width="40.621" height="42.664" transform="translate(0 0)" fill="#134080"/>
    </clipPath>
  </defs>
  <g id="Group_7201-2" data-name="Group 7201" transform="translate(0 0)" clip-path="url(#clip-path)">
    <path id="Path_86094" data-name="Path 86094" d="M1.451,0H29.413a2.115,2.115,0,0,1,1.7,2.127q-.005,9.453-.01,18.905a.781.781,0,0,1-.214.5q-3.195,3.171-6.407,6.324a2.188,2.188,0,0,0-.248.355,8.086,8.086,0,0,0-10.412,1.163,7.74,7.74,0,0,0-1.991,5.946,7.869,7.869,0,0,0,3.085,5.593H7.068c-1.739,0-3.477.008-5.215-.005a1.74,1.74,0,0,1-1.8-1.424,4.433,4.433,0,0,1-.044-.83Q.009,20.517,0,2.382A2.2,2.2,0,0,1,1.451,0M18.958,8.183c2.211,0,4.422.006,6.634,0a1.939,1.939,0,0,0,2.023-1.462,4.585,4.585,0,0,0,.075-1.075,2.006,2.006,0,0,0-2.245-2.229q-5.486,0-10.972,0c-.751,0-1.5-.012-2.253.006a1.945,1.945,0,0,0-1.9,1.522,5.164,5.164,0,0,0-.058,1.037,2,2,0,0,0,2.227,2.2q3.233.005,6.466,0m0,7.507c2.2,0,4.395,0,6.592,0a1.954,1.954,0,0,0,2.066-1.46A4.365,4.365,0,0,0,27.69,13.2a2.026,2.026,0,0,0-2.283-2.28H13.558c-.445,0-.891-.012-1.335.006a1.943,1.943,0,0,0-1.885,1.485,4.7,4.7,0,0,0-.073,1.034A2.008,2.008,0,0,0,12.53,15.69q3.213,0,6.425,0M19,22.858c1.14,0,2.281,0,3.421,0s2.309.014,3.461-.027a1.869,1.869,0,0,0,1.749-1.475,4.687,4.687,0,0,0,.062-.994,2.028,2.028,0,0,0-2.284-2.28H12.557a3.469,3.469,0,0,0-.5.018,1.792,1.792,0,0,0-1.675,1.4,5.058,5.058,0,0,0-.01,1.928,1.878,1.878,0,0,0,2.074,1.432c2.183.006,4.367,0,6.55,0M7.823,20.631a2.314,2.314,0,1,0-2.328,2.333,2.329,2.329,0,0,0,2.328-2.333m0-14.908A2.314,2.314,0,1,0,5.492,8.052,2.327,2.327,0,0,0,7.823,5.723M5.5,15.343a2.326,2.326,0,0,0,2.322-2.291,2.284,2.284,0,0,0-2.315-2.325A2.308,2.308,0,1,0,5.5,15.343" transform="translate(0 0)" fill="#134080"/>
    <path id="Path_86095" data-name="Path 86095" d="M61.975,57.614a3.418,3.418,0,0,1-1.115,2.124q-6.337,6.334-12.687,12.655a3.353,3.353,0,0,1-4.919.026Q40.8,70.041,38.4,67.608a3.366,3.366,0,0,1,4.324-5.148c.5.412.956.888,1.422,1.343a2,2,0,0,0,3.109-.01q4.383-4.368,8.76-8.744a3.648,3.648,0,0,1,2.316-1.182c1.944-.165,3.584,1.3,3.641,3.746" transform="translate(-21.355 -30.817)" fill="#134080"/>
  </g>
</svg>
