<svg id="Group_7202" data-name="Group 7202" xmlns="http://www.w3.org/2000/svg" xmlns:xlink="http://www.w3.org/1999/xlink" width="39.714" height="44.965" viewBox="0 0 39.714 44.965">
  <defs>
    <clipPath id="clip-path">
      <rect id="Rectangle_3892" data-name="Rectangle 3892" width="39.714" height="44.965" fill="#134080"/>
    </clipPath>
  </defs>
  <g id="Group_7202-2" data-name="Group 7202" clip-path="url(#clip-path)">
    <path id="Path_86096" data-name="Path 86096" d="M2.564,282c-.269-.1-.548-.19-.807-.315a3.023,3.023,0,0,1-.932-4.81c2.3-2.376,4.649-4.7,7.013-7.018a2.145,2.145,0,0,1,2.732-.2l.925-1.116,1.937,1.943-1.073.952a2.409,2.409,0,0,1-.613,3.2c-1.962,1.908-3.887,3.853-5.808,5.8A5,5,0,0,1,3.617,282Z" transform="translate(0 -237.034)" fill="#134080"/>
    <path id="Path_86097" data-name="Path 86097" d="M99.671,135.774a9.22,9.22,0,1,1,9.2,9.221,9.222,9.222,0,0,1-9.2-9.221" transform="translate(-87.977 -111.708)" fill="#134080"/>
    <path id="Path_86098" data-name="Path 86098" d="M25.942,17.125a9.488,9.488,0,0,0-.6.979c-.4.874-.778,1.759-1.144,2.649-.078.188-.108.331-.367.33-2.384-.01-4.768-.006-7.218-.006V20.6q0-9.526,0-19.051A1.353,1.353,0,0,1,18.134,0Q24.3,0,30.469,0a3.512,3.512,0,0,1,3.7,3.685q.007,4.1,0,8.209v.358c-.653.152-1.292.282-1.92.452a11.772,11.772,0,0,0-3.325,1.545,1.5,1.5,0,0,1-.762.231c-2.034.018-4.068.009-6.1.011a1.329,1.329,0,1,0,.016,2.634q1.69,0,3.38,0ZM25.394,6.587q1.666,0,3.331,0a1.327,1.327,0,1,0,.013-2.634q-3.354,0-6.707,0a1.324,1.324,0,1,0-.012,2.633c1.125,0,2.25,0,3.375,0m-.007,5.269c1.125,0,2.25,0,3.375,0a1.322,1.322,0,1,0,.025-2.633q-3.4-.006-6.794,0a1.322,1.322,0,1,0,.018,2.633c1.125,0,2.25,0,3.375,0" transform="translate(-14.66 0)" fill="#134080"/>
    <path id="Path_86099" data-name="Path 86099" d="M206.336,21.079H199.36c-.189,0-.352.025-.426-.244a11.747,11.747,0,0,0-1.764-3.667c.147-.017.252-.039.357-.039,1.127,0,2.253,0,3.38,0a1.324,1.324,0,1,0,.017-2.633c-2.019,0-4.039,0-6.058-.006a.922.922,0,0,1-.5-.1,12.037,12.037,0,0,0-5.6-2.108v-.444q0-4.061,0-8.121A3.514,3.514,0,0,1,192.5,0q6.146,0,12.292,0a1.355,1.355,0,0,1,1.549,1.522q0,9.57,0,19.139v.415m-8.781-14.49q1.666,0,3.332,0a1.327,1.327,0,1,0,.019-2.634q-3.354,0-6.707,0a1.324,1.324,0,1,0-.019,2.633c1.125,0,2.25,0,3.375,0m0,5.269q1.666,0,3.331,0a1.327,1.327,0,1,0,.015-2.634q-3.353,0-6.707,0a1.324,1.324,0,1,0-.016,2.633c1.125,0,2.25,0,3.375,0" transform="translate(-166.625 -0.002)" fill="#134080"/>
    <path id="Path_86100" data-name="Path 86100" d="M16.6,202.271h7.108a12.141,12.141,0,0,0,1.048,5.231c-.175.008-.3.018-.428.018q-3.116,0-6.232,0a1.339,1.339,0,0,1-1.5-1.485c0-1.241,0-2.483,0-3.765" transform="translate(-14.655 -178.54)" fill="#134080"/>
    <path id="Path_86101" data-name="Path 86101" d="M278.268,202.351c0,1.363.019,2.692-.008,4.02a1.248,1.248,0,0,1-1.222,1.211c-2.236.019-4.472.007-6.768.007a12.4,12.4,0,0,0,1.063-5.238Z" transform="translate(-238.56 -178.611)" fill="#134080"/>
  </g>
</svg>
