<svg width="120" height="60" xmlns="http://www.w3.org/2000/svg"><g fill="#00A65D" fill-rule="evenodd"><path d="M43.333 40.642l-7.555-20.79h-3.291L25 40.643h3.24l1.723-4.929h8.305l1.757 4.929h3.308zm-6.02-7.726h-6.412l1.654-4.74c.529-1.536 1.28-3.923 1.518-4.81.239.887 1.074 3.291 1.569 4.775l1.671 4.775z"/><path d="M59.194 40.642l-4.69-10.37 3.94-5.218h-3.48l-3.24 4.537c-.512.75-1.313 1.927-1.722 2.558 0-.768.034-2.37.034-3.326V19L47 20.603v20.039h3.053v-4.605l2.37-3.138 3.445 7.743h3.326zM70.109 37.555c-.563.324-1.45.631-2.252.631-1.125 0-1.603-.41-1.603-1.876v-8.459h3.855v-2.797h-3.855V19l-3.001 1.603v4.451h-2.234v2.797h2.234v8.988c0 2.797 1.33 4.127 3.496 4.127 1.21 0 2.251-.29 3.001-.716l.359-2.695z" fill-rule="nonzero"/><path d="M77.92 21.08c0-1.09-.887-1.995-1.962-1.995a1.998 1.998 0 00-1.995 1.996c0 1.074.887 1.96 1.995 1.96 1.058 0 1.961-.903 1.961-1.96zm-.461 19.562V25.054h-3.053v15.588h3.053zM94.053 40.642V29.949c0-3.53-2.37-5.219-5.85-5.219-2.2 0-3.854.478-5.338 1.399l1.194 2.32c1.21-.683 2.456-.973 4.059-.973 1.893 0 2.933.955 2.933 2.643v1.16c-.853-.392-2.012-.597-3.479-.597-3.53 0-6.208 1.57-6.208 5.048 0 3.82 2.883 5.253 5.407 5.253 1.688 0 3.206-.802 4.28-1.876v1.535h3.002zm-3.002-4.434c-.716.972-2.132 1.995-3.769 1.995-2.012 0-3.001-1.04-3.001-2.575 0-1.433 1.245-2.32 3.206-2.32 1.654 0 2.729.273 3.564.683v2.217z"/></g></svg>