<svg width="120" height="60" xmlns="http://www.w3.org/2000/svg"><g fill="#006940" fill-rule="nonzero"><path d="M11.967 34.011c-.011-3.044 0-3.527 0-5.33-.857-1.483-.044-.077-.901-1.538h3.747v5.12c1.231.012 2.44 0 3.67.012-.923 1.681-.01.044-.956 1.736h-5.56M30.516 34.011v-5.286c-.9-1.538-.032-.044-.934-1.593h5.32c1.966 3.165.054.099 1.988 3.198v-3.198h2.33v6.879h-3.693c-2.626-4.132-.043-.099-2.659-4.187-.01 1.407 0 2.033 0 4.187a83.755 83.755 0 01-2.352 0M97.033 34.011c-1.703-2.77-.033-.066-1.747-2.824-.011.978.01 1.758 0 2.813-.978.011-1.857.011-2.802.011 0-1.363 0-3.516.01-5.352-.868-1.461-.032-.066-.912-1.527h3.704v3.736c1.12-1.22 2.285-2.505 3.395-3.736h1.978c-2.538 2.824-.143.143-2.648 2.945 2.275 3.813.077.143 2.352 3.934h-3.33M102.088 28.626c-.736-1.23-.044-.088-.901-1.483 2.626-.011 5.253-.011 7.89-.011.901 1.461.033.077.934 1.527h-5.033v1.121h2.11v1.484c-.703 0-1.418-.011-2.11 0v1.274h5.077c-.736 1.407-.055.088-.77 1.484h-7.197v-5.396M50.802 32.264c2.99 0 3.187 0 5.528.01.395-.11.384-.714.01-.79-4.406.043-5.472 0-5.538-2.088-.022-1.297 1-2.187 1.791-2.264 1.78 0 3.55-.011 5.352 0l.923 1.516h-4.505c-.297.11-.385.594-.011.726 1.879-.011 2.593 0 3.758 0 2.154.351 2.165 4.34-.077 4.626h-6.154c-1-1.626-.044-.066-1.077-1.736M46.758 27.187c-1.033-.066-1.725-.044-6.318-.044.9 1.483.044.077.923 1.527-.011 1.814-.011 3.528-.011 5.352 3.274 0 4.351.022 5.384-.066 1.835-.132 3.088-1.67 3.088-3.077.011-1.802-.868-3.34-3.066-3.692zm-2.516 5.34c0-1.538-.011-2.692 0-3.857 1.703-.11 2.527.319 2.505 2.143-.066 1.396-.703 1.846-2.505 1.714zM81 34.011c-4.011-6.516-.11-.187-4.242-6.88h-5.022c.956 1.473.066.089.978 1.517-.956 1.78-1.912 3.583-2.857 5.363h2.209c.637-1.275.154-.297.747-1.484h4.088c-.725 1.33-.088.143-.813 1.484H81zm-7.242-3.143c.824-1.604.055-.11.857-1.67.956 1.44.066.066 1.11 1.67h-1.967zM11.242 34.022a1688.081 1688.081 0 01-4.253-6.88c-1.681 0-3.352-.01-5.033 0 .945 1.506 0 .012.934 1.506-2.89 5.341-.01 0-2.89 5.363 2.198.011 0-.011 2.209 0 .714-1.34.099-.165.791-1.484h4.088c-.725 1.363-.044.066-.802 1.484 1.66.011 3.296.011 4.956.011zm-5.33-3.154c-1.835.011-.165.011-1.978 0h-.01c.867-1.593.054-.12.955-1.714.99 1.593 1.055 1.681 1.033 1.714zM29.626 34.022c-4.12-6.67-.088-.143-4.252-6.88-1.934-.01-2.429-.01-5.033-.01.868 1.384.055.088.934 1.516-2.704 5.077-2.846 5.363-2.857 5.363h2.22c.714-1.429.043-.077.758-1.484 1.384 0 2.725 0 4.099-.01-.704 1.33-.1.175-.792 1.494 1.813.011 3.286.011 4.923.011zm-7.296-3.154c.9-1.67.01-.044.923-1.703 1.01 1.615.055.088 1.066 1.692-.923.011-1.275.011-1.99.011zM68.12 30.45v-.054c.737-.352 1.045-1.055 1.012-1.726-.055-.978-.681-1.428-1.594-1.527-2.45.01-3.208-.011-7.351-.011.868 1.44.044.066.923 1.527 0 1.836 0 3.319-.011 5.352 2.505 0 3.934.011 6.824 0 2.165-.242 1.901-3.319.198-3.56zm-4.142-1.79c1.517.032 2.176-.144 2.209.494-.033.747-.868.55-2.209.582 0-.351.011-.736 0-1.077zm-.011 3.878v-1.33c1.791.012 2.462-.098 2.517.693-.044.78-.748.594-2.517.637zM3.242 26.55c-.901-1.484-.011 0-.945-1.539C4.197 25 4.56 25 5.637 25c.967 1.516.044.066.978 1.538-1.131.011-2.252.011-3.373.011M81.967 34.011v-5.286c-.89-1.538-.033-.044-.923-1.593h5.308c1.967 3.165.055.099 2 3.198v-3.198h2.33v6.879h-3.693c-2.637-4.132-.044-.099-2.67-4.187-.011 1.407.01 2.033 0 4.187-1 .011-1.45.011-2.352 0M111.286 34.011v-5.286c-.901-1.538-.044-.044-.923-1.593h5.318c1.967 3.165.044.099 1.99 3.198v-3.198H120v6.879h-3.692c-2.627-4.132-.044-.099-2.67-4.187 0 1.407.01 2.033 0 4.187a83.755 83.755 0 01-2.352 0"/></g></svg>