<svg width="120" height="60" xmlns="http://www.w3.org/2000/svg"><g fill-rule="nonzero" fill="none"><path fill="#016FD0" d="M33 3h53.974v29.137l-2.672 4.174 2.672 3.715v16.948H33V29.507l1.67-1.92L33 25.75z"/><path d="M43.478 40.61v-8.473h8.972l.962 1.255.995-1.255h32.567v7.89s-.852.575-1.837.584H67.104l-1.085-1.336v1.336h-3.557v-2.28s-.486.318-1.536.318h-1.21v1.962H54.33l-.962-1.282-.976 1.282h-8.915zM33 25.75l2.023-4.717h3.5l1.148 2.642v-2.642h4.35l.683 1.91.662-1.91h19.526v.96s1.026-.96 2.713-.96l6.335.022 1.129 2.608v-2.63h3.64l1.002 1.498v-1.498h3.673v8.474H79.71l-.96-1.503v1.503h-5.349l-.537-1.336h-1.438l-.53 1.336h-3.626c-1.451 0-2.38-.94-2.38-.94v.94h-5.468l-1.085-1.336v1.336H38.004l-.537-1.336h-1.434l-.533 1.336H33V25.75z" fill="#FFF"/><path d="M35.74 22.078l-2.73 6.345h1.777l.504-1.27h2.927l.5 1.27h1.817l-2.727-6.345H35.74zm1.01 1.476l.891 2.22h-1.787l.895-2.22zM40.722 28.422v-6.345l2.525.009 1.469 4.09 1.433-4.1h2.505v6.346h-1.587v-4.676l-1.681 4.676h-1.391l-1.686-4.676v4.676zM49.739 28.422v-6.345h5.176v1.419h-3.573v1.085h3.49v1.336h-3.49v1.127h3.573v1.378zM55.833 22.078v6.345h1.587v-2.254h.668l1.902 2.254h1.938l-2.087-2.338a1.932 1.932 0 001.74-1.949c0-1.335-1.048-2.058-2.218-2.058h-3.53zm1.587 1.419h1.813c.435 0 .751.34.751.668 0 .421-.41.668-.728.668H57.42v-1.336zM63.848 28.422h-1.62v-6.345h1.62zM67.689 28.422h-.35c-1.692 0-2.719-1.333-2.719-3.147 0-1.858 1.016-3.198 3.152-3.198h1.753v1.502h-1.817c-.867 0-1.48.677-1.48 1.712 0 1.229.7 1.745 1.711 1.745h.417l-.667 1.386zM71.14 22.078l-2.729 6.345h1.777l.503-1.27h2.928l.5 1.27h1.816l-2.726-6.345H71.14zm1.01 1.476l.892 2.22h-1.787l.895-2.22zM76.12 28.422v-6.345h2.017l2.575 3.986v-3.986H82.3v6.345h-1.952l-2.64-4.091v4.09zM44.563 39.525V33.18h5.176v1.42h-3.573v1.085h3.49v1.336h-3.49v1.127h3.573v1.377zM69.926 39.525V33.18h5.176v1.42H71.53v1.085h3.473v1.336h-3.473v1.127h3.573v1.377zM49.94 39.525l2.52-3.133-2.58-3.212h1.998l1.537 1.986 1.542-1.986h1.92l-2.546 3.173 2.525 3.172h-1.999l-1.492-1.954-1.455 1.954zM57.044 33.181v6.345h1.628v-2.003h1.67c1.413 0 2.483-.75 2.483-2.208 0-1.207-.84-2.134-2.277-2.134h-3.504zm1.628 1.435h1.758c.457 0 .783.28.783.73 0 .424-.324.731-.788.731h-1.753v-1.46zM63.514 33.18v6.345H65.1v-2.254h.668l1.902 2.254h1.939l-2.087-2.337a1.932 1.932 0 001.74-1.95c0-1.334-1.048-2.058-2.218-2.058h-3.53zM65.1 34.6h1.814c.435 0 .751.34.751.667 0 .422-.41.668-.728.668H65.1V34.6zM75.837 39.525v-1.377h3.174c.47 0 .673-.254.673-.533 0-.266-.202-.536-.673-.536h-1.434c-1.247 0-1.942-.76-1.942-1.9 0-1.018.636-1.999 2.49-1.999h3.088l-.668 1.428h-2.671c-.51 0-.668.268-.668.524 0 .263.194.553.584.553h1.503c1.39 0 1.993.788 1.993 1.82 0 1.111-.672 2.02-2.069 2.02h-3.38zM81.659 39.525v-1.377h3.174c.47 0 .673-.254.673-.533 0-.266-.202-.536-.673-.536H83.4c-1.247 0-1.942-.76-1.942-1.9 0-1.018.636-1.999 2.49-1.999h3.088l-.668 1.428h-2.671c-.511 0-.668.268-.668.524 0 .263.194.553.584.553h1.503c1.39 0 1.993.788 1.993 1.82 0 1.111-.672 2.02-2.069 2.02h-3.38z" fill="#016FD0"/></g></svg>