<svg width="1024" height="144" viewBox="0 0 1024 144" fill="none" xmlns="http://www.w3.org/2000/svg">
<path d="M974.972 141.589C969.277 142.447 963.496 142.576 957.768 141.974C955.48 141.775 954.549 139.606 953.458 137.983C946.313 127.006 939.235 116.003 932.077 105.027C930.746 102.911 929.602 100.556 927.101 98.7469C913.25 100.077 898.988 98.6538 884.006 99.7448C882.609 113.741 884.312 127.618 883.035 141.562C877.447 142.892 872.391 142.227 866.75 142.068V5.34683C868.334 4.2774 870.26 3.83628 872.152 4.10947C889.448 4.10947 906.864 3.83007 924.2 4.26913C936.813 4.57514 948.814 7.74169 958.793 16.004C972.51 27.2998 974.972 42.6137 973.016 59.0053C971.06 75.3969 962.545 87.0918 947.338 93.7842C946.563 94.1252 945.815 94.5255 945.102 94.9816C944.85 95.1413 944.716 95.5138 944.091 96.4186L974.972 141.589ZM883.966 82.1424C889.488 83.2068 894.424 82.8343 899.294 82.7146C910.816 82.4219 922.418 83.8987 933.886 80.9849C949.493 76.9935 957.689 66.3496 957.263 50.1709C956.851 34.5111 948.562 24.3728 932.622 21.765C917.122 19.2238 901.409 20.674 885.776 20.9401C885.337 20.9401 884.911 21.4058 884.006 21.9114L883.966 82.1424Z" shape-rendering="geometricPrecision" fill="#1C1C1C"/>
<path d="M298.233 120.607C299.882 115.921 302.093 111.454 304.819 107.302C310.327 110.974 315.197 114.606 320.426 117.613C334.769 125.875 350.176 128.257 366.168 123.906C378.595 120.54 384.396 111.466 381.748 100.902C381.002 98.0149 379.632 95.3267 377.733 93.0276C375.834 90.7285 373.453 88.8747 370.758 87.5973C362.416 83.1801 353.369 80.7586 344.428 78.0445C337.413 75.9666 330.599 73.2591 324.071 69.9551C311.232 63.3027 305.045 52.6588 305.445 38.4758C305.844 24.2929 313.521 14.1412 326.307 8.93905C350.362 -0.840018 373.605 2.65916 395.758 15.4451C396.17 15.6846 396.423 16.1902 397.088 16.9885C395.482 21.8832 393.378 26.6002 390.809 31.065C388.148 31.4775 386.817 29.8942 385.181 29.0826C370.292 21.592 354.819 18.2924 338.281 22.4302C331.163 24.213 325.668 28.0714 324.191 35.5488C322.648 43.4252 326.386 49.5189 332.653 53.9228C339.412 58.6859 347.288 60.9344 355.138 63.3426C364.079 66.0967 372.993 68.8508 381.336 73.2414C392.964 79.3616 399.656 88.5819 400.534 101.847C401.519 116.801 395.412 128.19 382.427 135.215C362.695 145.859 342.246 144.875 321.796 137.118C314.807 134.412 308.281 130.637 302.451 125.929C300.475 124.692 298.986 122.813 298.233 120.607V120.607Z" shape-rendering="geometricPrecision" fill="#1C1C1C"/>
<path d="M494.639 27.0204L445.651 141.642C439.624 142.653 434.302 142.28 427.33 141.934C446.715 94.303 465.701 47.6828 484.727 0.902951C491.191 -0.300984 497.822 -0.300984 504.285 0.902951C522.047 47.4699 539.796 94.1168 557.824 141.455C551.717 142.365 545.516 142.459 539.384 141.735L495.877 27.0736L494.639 27.0204Z" shape-rendering="geometricPrecision" fill="#1C1C1C"/>
<path d="M830.375 141.894C824.182 142.573 817.932 142.537 811.748 141.788L767.629 25.5435C750.665 65.2186 734.367 103.417 718.029 141.615C711.982 142.502 705.845 142.596 699.774 141.894L756.852 1.63472C761.669 -0.121517 770.051 -0.347701 776.73 1.10253C794.345 47.297 812.16 93.997 830.375 141.894Z" shape-rendering="geometricPrecision" fill="#1C1C1C"/>
<path d="M203.038 0.743278C208.993 -0.0783131 215.03 -0.131975 220.999 0.583616C224.192 4.3888 274.498 135.974 274.871 141.07C271.292 142.533 264.44 142.773 257.455 141.429C243.218 103.909 228.769 65.8439 214.307 27.7654L212.644 27.4461C196.385 65.5424 180.131 103.603 163.882 141.628C157.834 142.514 151.689 142.514 145.641 141.628C164.986 94.1966 183.932 47.6695 203.038 0.743278Z" shape-rendering="geometricPrecision" fill="#1C1C1C"/>
<path d="M122.463 24.8118L113.03 36.6265C96.8912 22.1109 78.5571 16.0971 57.3891 21.4457C45.2309 24.5309 34.5447 31.7931 27.2004 41.9617C13.0041 60.8014 13.6959 88.5287 28.6506 105.825C35.5691 113.808 43.6718 120.048 53.8367 123.374C63.8872 126.891 74.7395 127.432 85.0898 124.931C95.3611 122.416 104.249 117.307 112.538 110.389C116.609 113.795 120.201 116.961 122.476 121.205C108.999 136.892 76.7742 150.303 45.5211 138.502C17.5809 128.004 -0.872891 100.836 0.0318393 69.6092C0.85674 41.1635 21.5325 15.2855 50.098 6.7305C78.1047 -1.62495 109.238 8.55326 122.463 24.8118Z" fill="#1C1C1C"/>
<path d="M681.148 20.5675H611.43V67.2409H673.883C675.719 72.9354 675.387 77.8848 674.163 83.7124H611.39C610.06 103.39 611.497 122.203 610.579 141.229C605.257 142.946 600.321 142.347 594.812 141.668V4.76135H681.148C682.718 9.01891 682.837 14.4739 681.148 20.5675Z" fill="#1C1C1C"/>
<path d="M1008.57 4.85444C1013.66 3.84549 1018.9 3.81388 1024 4.76131V141.322C1019.05 142.972 1014.11 142.307 1008.57 141.735V4.85444Z" fill="#1C1C1C"/>
<path d="M211.845 113.542C204.753 113.395 198.141 106.703 198.154 99.6915C198.154 91.642 204.913 84.8033 212.697 84.9497C216.482 85.1052 220.058 86.7309 222.664 89.4811C225.27 92.2314 226.702 95.8895 226.653 99.6782C226.64 107.182 219.668 113.701 211.845 113.542Z" fill="#1C1C1C"/>
<path d="M493.895 113.542C490.201 113.517 486.668 112.031 484.067 109.408C481.466 106.785 480.01 103.239 480.018 99.5452C480.048 95.7552 481.535 92.1221 484.17 89.3979C486.805 86.6736 490.387 85.0668 494.174 84.9098C501.864 84.7901 508.49 91.8151 508.304 99.9177C508.152 103.619 506.56 107.114 503.869 109.659C501.177 112.204 497.598 113.597 493.895 113.542V113.542Z" fill="#1C1C1C"/>
<path d="M780.468 99.1194C780.561 100.992 780.269 102.863 779.612 104.619C778.954 106.375 777.945 107.977 776.645 109.328C775.345 110.679 773.783 111.75 772.054 112.474C770.325 113.199 768.466 113.562 766.591 113.542C764.76 113.609 762.934 113.302 761.225 112.641C759.516 111.98 757.959 110.978 756.65 109.696C755.34 108.414 754.305 106.879 753.608 105.184C752.911 103.489 752.566 101.67 752.594 99.8379C752.528 92.0812 758.941 85.1094 766.298 84.9098C768.168 84.8902 770.023 85.2445 771.753 85.9522C773.484 86.6598 775.056 87.7064 776.376 89.0303C777.696 90.3543 778.738 91.9289 779.441 93.6615C780.144 95.3942 780.493 97.2499 780.468 99.1194Z" fill="#1C1C1C"/>
</svg>
