<svg xmlns="http://www.w3.org/2000/svg" width="212" height="213" viewBox="0 0 212 213" fill="none">
  <path d="M10.6637 -3.70605H203.336C210.888 -3.70605 217 2.40587 217 9.95763V202.63C217 210.182 210.888 216.294 203.336 216.294H10.6637C3.11193 216.294 -3 210.182 -3 202.63V9.95763C-3 2.40587 3.11193 -3.70605 10.6637 -3.70605Z" fill="#005EB8"/>
  <path d="M68.8144 59.1176C68.8144 59.1176 76.9832 75.8079 86.1511 74.9851" stroke="#D89F79" stroke-width="6.1707" stroke-miterlimit="10" stroke-linecap="round"/>
  <path d="M93.5558 96.2884C102.709 96.2884 110.129 88.8685 110.129 79.7156C110.129 70.5628 102.709 63.1429 93.5558 63.1429C84.403 63.1429 76.9831 70.5628 76.9831 79.7156C76.9831 88.8685 84.403 96.2884 93.5558 96.2884Z" fill="#A87A54"/>
  <path d="M101.225 86.474C102.686 86.474 103.87 85.29 103.87 83.8294C103.87 82.3689 102.686 81.1848 101.225 81.1848C99.7646 81.1848 98.5806 82.3689 98.5806 83.8294C98.5806 85.29 99.7646 86.474 101.225 86.474Z" fill="#534741"/>
  <path d="M102.254 78.5401C103.325 78.5401 104.193 77.6719 104.193 76.6008C104.193 75.5297 103.325 74.6614 102.254 74.6614C101.183 74.6614 100.314 75.5297 100.314 76.6008C100.314 77.6719 101.183 78.5401 102.254 78.5401Z" fill="#534741"/>
  <path d="M90.3237 70.1068C91.3948 70.1068 92.2631 69.2385 92.2631 68.1674C92.2631 67.0963 91.3948 66.2281 90.3237 66.2281C89.2527 66.2281 88.3844 67.0963 88.3844 68.1674C88.3844 69.2385 89.2527 70.1068 90.3237 70.1068Z" fill="#534741"/>
  <path d="M93.5553 84.4464C94.6264 84.4464 95.4947 83.5781 95.4947 82.5071C95.4947 81.436 94.6264 80.5677 93.5553 80.5677C92.4842 80.5677 91.616 81.436 91.616 82.5071C91.616 83.5781 92.4842 84.4464 93.5553 84.4464Z" fill="#534741"/>
  <path d="M86.1503 79.7156C87.4649 79.7156 88.5305 78.65 88.5305 77.3355C88.5305 76.021 87.4649 74.9554 86.1503 74.9554C84.8358 74.9554 83.7702 76.021 83.7702 77.3355C83.7702 78.65 84.8358 79.7156 86.1503 79.7156Z" fill="#534741"/>
  <path d="M95.3487 78.5402C96.5659 78.5402 97.5525 77.5535 97.5525 76.3364C97.5525 75.1193 96.5659 74.1326 95.3487 74.1326C94.1316 74.1326 93.1449 75.1193 93.1449 76.3364C93.1449 77.5535 94.1316 78.5402 95.3487 78.5402Z" fill="#534741"/>
  <path d="M87.5024 90.3528C88.9143 90.3528 90.0588 89.2082 90.0588 87.7963C90.0588 86.3844 88.9143 85.2399 87.5024 85.2399C86.0905 85.2399 84.946 86.3844 84.946 87.7963C84.946 89.2082 86.0905 90.3528 87.5024 90.3528Z" fill="#534741"/>
  <path d="M74.1623 53.9165C74.1623 53.9165 82.8013 43.6908 90.3237 51.0662C97.846 58.4417 94.2318 68.1679 94.2318 68.1679" stroke="#D89F79" stroke-width="6.1707" stroke-miterlimit="10" stroke-linecap="round"/>
  <path d="M71.6645 50.8901C71.6645 50.8901 92.1453 32.76 106.72 44.0142" stroke="#D89F79" stroke-width="6.1707" stroke-miterlimit="10" stroke-linecap="round"/>
  <path d="M71.6645 48.3921C71.6645 48.3921 82.9774 30.6146 100.314 31.6137" stroke="#D89F79" stroke-width="6.1707" stroke-miterlimit="10" stroke-linecap="round"/>
  <path d="M65.9634 51.7128C65.9634 51.7128 71.4876 30.0566 87.5314 23.7096" stroke="#D89F79" stroke-width="6.1707" stroke-miterlimit="10" stroke-linecap="round"/>
  <path d="M63.6425 63.1432L70.8123 67.0513L74.7791 63.5252C74.7791 63.5252 73.6919 60.146 77.4825 54.5336C81.2437 48.9212 65.1999 45.0131 65.1999 45.0131C65.1999 45.0131 61.5562 55.8853 60.6159 56.0322C59.6462 56.1791 63.6425 63.1432 63.6425 63.1432Z" fill="#D89F79"/>
  <path d="M136.634 146.213C136.634 146.213 176.479 150.65 176.479 211.857" stroke="#FFCD00" stroke-width="11.7537" stroke-miterlimit="10"/>
  <path d="M138.338 140.071H94.2321V216.294H138.338V140.071Z" fill="#FFCD00"/>
  <path d="M173.1 120.295L150.18 76.9241C148.212 73.1923 149.622 68.5496 153.383 66.5809L153.942 66.287C157.673 64.3183 162.316 65.7287 164.285 69.4899L187.205 112.861C189.173 116.593 187.763 121.236 184.002 123.204L183.443 123.498C179.712 125.467 175.069 124.027 173.1 120.295Z" fill="white"/>
  <path d="M174.076 121.735L149.417 75.041L140.582 79.7067L165.241 126.401L174.076 121.735Z" fill="#333333"/>
  <path d="M139.574 113.919L122.501 81.5962C120.415 77.6293 121.914 72.7221 125.881 70.6064L126.468 70.2832C130.435 68.1969 135.342 69.6955 137.458 73.6624L154.53 105.985C156.616 109.952 155.118 114.859 151.151 116.975L150.563 117.298C146.596 119.414 141.689 117.886 139.574 113.919Z" fill="#D89F79"/>
  <path d="M140.837 79.7156L115.89 92.8798L122.501 105.397C125.91 111.862 123.441 119.913 116.977 123.322C110.512 126.73 102.461 124.262 99.0525 117.798L93.0875 106.543C85.5651 114.536 83.567 126.73 88.9737 136.956C95.7908 149.856 111.746 154.792 124.646 147.975L165.49 126.407L140.837 79.7156Z" fill="#D89F79"/>
  <path d="M145.863 134.547L139.927 123.292C137.958 119.561 139.398 114.977 143.101 113.008L146.539 111.186C150.27 109.217 154.854 110.657 156.823 114.36L162.759 125.614C164.727 129.346 163.288 133.93 159.585 135.898L156.147 137.72C152.445 139.689 147.832 138.249 145.863 134.547Z" fill="#D89F79"/>
  <path d="M147.009 130.932L141.602 120.707L152.738 114.83L158.145 125.056C159.761 128.141 158.586 131.961 155.501 133.577C152.474 135.193 148.654 134.018 147.009 130.932Z" fill="#CE8A65"/>
  <path d="M145.01 133.753L138.546 121.53L155.618 112.509L162.083 124.732L145.01 133.753Z" fill="url(#paint0_linear_1292_1101)"/>
  <path d="M147.861 127.671L145.51 123.204C144.482 121.236 145.216 118.797 147.185 117.768C149.154 116.74 151.593 117.474 152.621 119.443L154.972 123.91C156 125.878 155.266 128.317 153.297 129.346C151.358 130.403 148.919 129.639 147.861 127.671Z" fill="url(#paint1_linear_1292_1101)"/>
  <path d="M146.654 83.4769C148.326 83.4769 149.681 82.1219 149.681 80.4503C149.681 78.7788 148.326 77.4238 146.654 77.4238C144.983 77.4238 143.628 78.7788 143.628 80.4503C143.628 82.1219 144.983 83.4769 146.654 83.4769Z" fill="#FFFF00"/>
  <path d="M175.569 90.7935V143.009" stroke="#333333" stroke-width="1.8349" stroke-miterlimit="10" stroke-linecap="round"/>
  <path d="M176.745 145.037H174.6C173.777 145.037 173.13 144.39 173.13 143.568C173.13 142.745 173.777 142.099 174.6 142.099H176.745C177.567 142.099 178.214 142.745 178.214 143.568C178.214 144.39 177.567 145.037 176.745 145.037Z" fill="#333333"/>
  <path d="M176.744 143.568L177.92 160.493" stroke="#333333" stroke-width="1.17537" stroke-miterlimit="10" stroke-linecap="round"/>
  <path d="M175.893 144.39L175.657 161.257" stroke="#333333" stroke-width="1.17537" stroke-miterlimit="10" stroke-linecap="round"/>
  <path d="M174.365 144.39L173.542 161.874" stroke="#333333" stroke-width="1.17537" stroke-miterlimit="10" stroke-linecap="round"/>
  <path d="M176.598 143.891L176.833 161.081" stroke="#333333" stroke-width="1.17537" stroke-miterlimit="10" stroke-linecap="round"/>
  <path d="M175.217 143.891L174.658 161.933" stroke="#333333" stroke-width="1.17537" stroke-miterlimit="10" stroke-linecap="round"/>
  <path d="M94.2322 149.886C94.2322 149.886 33.5243 149.562 28.9991 107.19C25.1791 71.4589 63.7901 57.8246 63.7901 57.8246" stroke="#FFCD00" stroke-width="11.7537" stroke-miterlimit="10"/>
  <defs>
    <linearGradient id="paint0_linear_1292_1101" x1="153.769" y1="130.087" x2="147.446" y2="117.936" gradientUnits="userSpaceOnUse">
      <stop stop-color="#D89F79" stop-opacity="0"/>
      <stop offset="0.5119" stop-color="#D89F79"/>
    </linearGradient>
    <linearGradient id="paint1_linear_1292_1101" x1="145.139" y1="123.277" x2="155.318" y2="122.764" gradientUnits="userSpaceOnUse">
      <stop stop-color="#D89F79" stop-opacity="0"/>
      <stop offset="0.5119" stop-color="#D89F79"/>
    </linearGradient>
  </defs>
</svg>
