<svg width="120" height="60" xmlns="http://www.w3.org/2000/svg"><g fill-rule="nonzero" fill="none"><path d="M120 21H77.04v18.096H120V21zm-.48.456V38.64H77.496V21.456h42.024zM0 39.096h75.168V21H0z" fill="#03426A"/><path fill="#FFF" d="M119.52 21.456V38.64H77.496V21.456h42.024M25.968 31.272c0 1.776-.96 2.664-3.096 2.664h-3.36v-6.672h3.264c2.592 0 3.216 1.272 3.216 2.64v1.368h-.024zm1.368-.048v-1.152c0-3.648-2.856-3.792-4.8-3.792h-4.44v8.64h4.824c3.792 0 4.416-2.04 4.416-3.696zM34.848 32.808c0 .504-.048.96-.624 1.152-.336.12-.816.168-1.608.168-.792 0-1.272-.072-1.56-.264-.192-.12-.264-.312-.264-.72 0-.528.12-.816.384-.936.24-.12.576-.144 1.536-.144h2.16l-.024.744zm1.32 2.112v-3.384c0-.648 0-1.08-.048-1.416-.072-.336-.168-.576-.456-.792-.624-.48-2.184-.504-2.928-.504-.576 0-2.136.072-2.712.552-.192.168-.24.36-.24.6 0 .144.024.36.024.624h1.272c.024-.144.048-.528.192-.672.168-.168.456-.24 1.344-.24 1.008 0 1.704.024 1.992.192.264.144.264.48.264.72v.576H31.92c-.792 0-1.704.024-2.208.696-.24.288-.336.672-.336 1.152 0 1.44.888 1.92 3.144 1.92 1.176 0 1.944-.192 2.4-.576l.12.504 1.128.048zM44.016 34.92v-3.288c0-1.152-.048-1.368-.336-1.584-.264-.192-.792-.312-1.584-.312-.696 0-1.416.096-2.088.264v4.92h-1.296v-6.024h1.152l.096.432c.264-.144.456-.24.72-.336.432-.12.984-.192 1.704-.192.816 0 1.464.12 1.944.336.48.216.744.6.84 1.056.072.312.096.576.096 1.272v3.456h-1.248M53.616 34.56c-.6.312-1.584.432-2.856.432-.888 0-1.608-.072-2.184-.216-.6-.144-.912-.432-.936-.936-.024-.264 0-.504.024-.84h1.248c.048.312.048.408.048.456.048.288.024.432.36.552.336.096.84.144 1.512.144.816 0 1.392-.096 1.776-.264.264-.12.408-.336.408-.744 0-.48-.096-.672-.6-.744-.144-.024-.312-.024-.456-.048-.096 0-.36 0-.816-.024-.216 0-.456-.024-.768-.024-1.296-.072-2.664-.12-2.664-1.632 0-1.368.84-1.848 3.144-1.848a17.8 17.8 0 011.728.096c.504.072.888.144 1.152.312.312.168.408.456.408.912 0 .12 0 .264-.024.456h-1.272l-.048-.264c-.072-.336-.096-.384-.192-.456-.192-.144-.744-.216-1.512-.216s-1.224.024-1.584.168c-.336.12-.48.336-.48.768 0 .288.12.504.24.6.336.216 2.112.192 2.736.192.648 0 1.08.072 1.44.192.672.24.912.672.912 1.536.024.72-.216 1.176-.744 1.44M61.584 34.92l-3.12-2.856h-.456v2.856h-1.296v-8.616h1.296v4.92h.456l2.592-2.328h1.512l-3 2.664 3.744 3.36h-1.728M69.744 31.32h-4.152c.048-.768.216-1.104.504-1.32.312-.216.864-.336 1.68-.336 1.128 0 1.656.24 1.848.768.072.24.12.432.12.888zm1.2 1.704h-1.272c-.048.192-.072.648-.24.816-.192.192-.576.288-1.632.288-1.032 0-1.608-.144-1.896-.432-.216-.216-.336-.672-.336-1.368v-.168h5.424c0-.288.024-.36.024-.6 0-1.008-.144-1.56-.576-1.968-.48-.504-1.44-.768-2.736-.768-1.656 0-2.688.384-3.096 1.224-.24.48-.384 1.152-.384 1.992 0 1.32.336 2.136 1.128 2.544.48.264 1.296.408 2.352.432.888 0 1.584-.048 2.352-.264.744-.24.936-.672.936-1.032-.024-.096-.024-.384-.048-.696z"/><path d="M88.056 28.464c0 1.272-.72 1.536-2.184 1.536h-3.264v-2.736h3.432c1.296 0 2.016.12 2.016 1.2zm1.704 4.032c0-1.056-.6-1.848-2.064-2.064v-.024c1.128-.288 1.728-.888 1.728-1.8 0-1.512-.744-2.28-2.832-2.28h-5.4v8.592h5.616c1.896 0 2.952-.864 2.952-2.424zm-1.392.096c0 1.224-.864 1.344-2.208 1.344h-3.552v-2.952h3.744c1.584 0 2.016.504 2.016 1.608zM96.816 32.808c0 .504-.024.96-.6 1.152-.336.12-.816.168-1.608.168-.792 0-1.272-.072-1.56-.264-.192-.12-.264-.312-.264-.72 0-.528.12-.816.384-.936.24-.12.552-.144 1.536-.144h2.136v.744h-.024zm1.32 2.112v-3.384c0-.648 0-1.08-.048-1.416-.072-.336-.168-.576-.456-.792-.624-.48-2.184-.504-2.928-.504-.576 0-2.136.072-2.712.552-.192.168-.24.36-.24.6 0 .144.024.36.024.624h1.272c.024-.144.048-.528.192-.672.168-.168.456-.24 1.344-.24 1.008 0 1.704.024 1.992.192.264.144.24.48.24.72v.576h-2.928c-.792 0-1.704.024-2.208.696-.216.288-.336.672-.336 1.152 0 1.44.888 1.92 3.144 1.92 1.176 0 1.944-.192 2.4-.576l.12.504 1.128.048zM105.672 34.92v-3.288c0-1.152-.048-1.368-.336-1.584-.264-.192-.792-.312-1.584-.312-.696 0-1.416.096-2.088.264v4.92h-1.296v-6.024h1.152l.096.432c.24-.144.456-.24.72-.336.432-.12.96-.192 1.704-.192.816 0 1.464.12 1.944.336.48.216.744.6.84 1.056.072.312.096.576.096 1.272v3.456h-1.248M114.096 34.92l-3.12-2.856h-.456v2.856h-1.296v-8.616h1.296v4.92h.456l2.592-2.328h1.512l-3 2.64 3.744 3.384h-1.728" fill="#03426A"/></g></svg>