<svg width="120" height="60" xmlns="http://www.w3.org/2000/svg"><g fill-rule="nonzero" fill="none"><path d="M96.063 51.72a4.85 4.85 0 01-4.906 4.795h-62.57a4.85 4.85 0 01-4.906-4.796V8.481a4.85 4.85 0 014.906-4.795h62.57a4.85 4.85 0 014.906 4.795V51.72z" fill="#FFF"/><path d="M24.102 8.481V51.72a4.443 4.443 0 004.485 4.38h62.57a4.443 4.443 0 004.49-4.38V8.481a4.44 4.44 0 00-4.49-4.38h-62.57a4.44 4.44 0 00-4.49 4.38h.005zm4.485 48.449a5.27 5.27 0 01-5.321-5.21V8.48a5.267 5.267 0 015.321-5.218h62.57a5.273 5.273 0 015.324 5.21V51.72a5.273 5.273 0 01-5.324 5.21h-62.57z" fill="#0069AA"/><path d="M31.626 41.831c0 1.015.728 1.134 1.37 1.134 2.85 0 3.783-2.146 3.783-4.11 0-2.465-1.582-4.242-4.124-4.242-.543 0-.79.038-1.029.054v7.164zm-1.289-6.179c0-1.183-.62-1.107-1.212-1.118v-.336c.515.024 1.039.024 1.554.024.516 0 1.306-.024 2.28-.024 3.41 0 5.27 2.277 5.27 4.613 0 1.305-.763 4.586-5.428 4.586-.673 0-1.291-.027-1.9-.027-.607 0-1.174 0-1.766.027v-.353c.79-.079 1.175-.106 1.213-1.001l-.01-6.39zM40.1 35.338a.646.646 0 11.647-.66.657.657 0 01-.646.66zm-1.41 7.706h.25c.369 0 .632 0 .632-.434v-3.571c0-.578-.196-.66-.684-.923v-.209c.619-.187 1.357-.434 1.408-.475a.48.48 0 01.24-.067c.064 0 .091.081.091.187v5.058c0 .434.29.434.66.434h.222v.345c-.447 0-.909-.027-1.384-.027-.475 0-.947 0-1.435.027v-.345zM42.76 39.118c0-.486-.144-.62-.762-.869v-.252c.59-.181 1.17-.393 1.74-.635.037 0 .075.027.075.133v.857c.754-.542 1.4-.99 2.282-.99 1.118 0 1.514.814 1.514 1.845v3.403c0 .434.29.434.66.434h.236v.345c-.461 0-.923-.027-1.395-.027s-.95 0-1.425.027v-.345h.24c.368 0 .629 0 .629-.434v-3.411c0-.752-.459-1.12-1.21-1.12-.421 0-1.086.341-1.53.632v3.899c0 .434.292.434.661.434h.236v.345c-.461 0-.922-.027-1.397-.027s-.947 0-1.422.027v-.345h.239c.366 0 .63 0 .63-.434v-3.492zM51.84 39.33c.328 0 .366-.172.366-.332 0-.67-.407-1.21-1.145-1.21-.814 0-1.357.591-1.514 1.541h2.293zm-2.331.423c-.03.253-.03.509 0 .762.076 1.251.882 2.28 1.935 2.28.724 0 1.291-.397 1.78-.882l.182.184c-.606.814-1.357 1.49-2.443 1.49-2.095 0-2.515-2.033-2.515-2.874 0-2.583 1.74-3.348 2.66-3.348 1.068 0 2.216.673 2.227 2.07.005.079.005.158 0 .236l-.12.082H49.51zM53.644 43.044H54c.369 0 .632 0 .632-.434v-3.701c0-.41-.488-.489-.686-.595v-.198c.963-.407 1.49-.751 1.609-.751.12 0 .116.04.116.173v1.186h.03c.329-.513.882-1.357 1.685-1.357a.72.72 0 01.75.7.638.638 0 01-.617.673c-.41 0-.41-.317-.87-.317a1.113 1.113 0 00-.964 1.085v3.102c0 .434.271.434.632.434h.738v.345a80.737 80.737 0 00-1.842-.027c-.567 0-1.086 0-1.569.027v-.345zM58.708 41.554c.17.871.697 1.61 1.66 1.61.777 0 1.067-.475 1.067-.937 0-1.555-2.871-1.053-2.871-3.175 0-.738.592-1.685 2.04-1.685a3.457 3.457 0 011.501.383l.095 1.357h-.304c-.133-.83-.591-1.305-1.435-1.305-.53 0-1.029.303-1.029.868 0 1.544 3.056 1.069 3.056 3.137 0 .868-.698 1.793-2.266 1.793a3.473 3.473 0 01-1.606-.45l-.144-1.514.236-.082zM74.392 36.575h-.328c-.25-1.539-1.343-2.17-2.817-2.17-1.517 0-3.717 1.014-3.717 4.175 0 2.662 1.9 4.573 3.926 4.573a2.678 2.678 0 002.649-2.28l.304.079-.304 1.93c-.543.341-2.044.7-2.915.7-3.08 0-5.03-1.992-5.03-4.956 0-2.713 2.412-4.64 4.995-4.64 1.066 0 2.092.345 3.107.7l.13 1.889zM74.87 43.044h.25c.369 0 .632 0 .632-.434v-7.327c0-.857-.198-.882-.7-1.028v-.212a8.195 8.195 0 001.356-.567c.091-.058.187-.106.288-.144.081 0 .106.079.106.185v9.093c0 .434.29.434.66.434h.222v.345c-.445 0-.907-.027-1.381-.027-.475 0-.947 0-1.436.027l.003-.345zM83.328 42.662c0 .238.144.252.366.252.16 0 .356-.014.53-.014v.272c-.643.088-1.278.225-1.9.41l-.068-.041v-1.07c-.79.646-1.395 1.11-2.333 1.11-.711 0-1.447-.464-1.447-1.568v-3.368c0-.344-.054-.673-.79-.738v-.252c.475 0 1.526-.09 1.7-.09.173 0 .146.09.146.38v3.4c0 .397 0 1.528 1.145 1.528.448 0 1.04-.342 1.593-.814v-3.52c0-.27-.633-.41-1.105-.542v-.236c1.183-.082 1.922-.185 2.054-.185.133 0 .106.09.106.236l.003 4.85zM85.95 41.899a1.42 1.42 0 001.356 1.343c1.408 0 2.003-1.384 2.003-2.556 0-1.422-1.086-2.608-2.109-2.608-.488 0-.895.315-1.25.619v3.202zm0-3.585c.526-.447 1.237-.95 1.961-.95 1.53 0 2.442 1.333 2.442 2.768 0 1.726-1.264 3.455-3.147 3.455-.64 0-1.27-.16-1.832-.464l-.385.301-.272-.144c.12-.776.183-1.561.185-2.347v-5.65c0-.857-.198-.882-.7-1.028v-.212a8.14 8.14 0 001.357-.567c.091-.058.188-.106.29-.144.079 0 .106.079.106.185l-.006 4.797zM29.111 51.05h.1c.258 0 .53-.036.53-.41v-3.756c0-.375-.272-.41-.53-.41h-.1v-.214c.271 0 .708.027 1.061.027s.787-.027 1.126-.027v.214h-.103c-.255 0-.543.035-.543.41v3.755c0 .375.272.41.543.41h.106v.215c-.345 0-.776-.028-1.134-.028-.359 0-.774.028-1.053.028l-.003-.215z" fill="#231F20"/><path d="M31.266 51.234v-.155h-.068c-.272 0-.562-.043-.565-.44v-3.755c0-.396.307-.44.565-.44h.068v-.154c-.332 0-.747.03-1.086.03-.34 0-.752-.028-1.031-.03v.154h.07c.256 0 .56.044.56.44v3.755c0 .397-.304.44-.56.44h-.09v.155c.272 0 .685-.03 1.024-.03.34 0 .765.027 1.102.03h.01zm.021.06c-.347 0-.776-.028-1.134-.028-.358 0-.77.027-1.053.027h-.032v-.271h.133c.27 0 .496-.027.499-.377v-3.761c0-.35-.239-.375-.5-.377h-.132v-.272h.032c.271 0 .711.03 1.061.03s.787-.03 1.126-.03h.03v.272h-.13c-.272 0-.5.027-.5.377v3.755c0 .35.24.372.5.378h.13v.27l-.03.006zM36.223 49.85l.014-.014V47.15a.592.592 0 00-.624-.676h-.158v-.214c.337 0 .668.027 1.004.027.293 0 .59-.027.882-.027v.214h-.108c-.302 0-.638.057-.638.912v3.256c-.005.242.009.485.04.725h-.27l-3.691-4.117v2.958c0 .624.12.838.673.838h.125v.215c-.31 0-.616-.027-.926-.027-.309 0-.65.027-.974.027v-.215h.1c.494 0 .646-.339.646-.909V47.12a.646.646 0 00-.654-.646h-.092v-.214c.272 0 .543.027.814.027.217 0 .426-.027.64-.027l3.197 3.59z" fill="#231F20"/><path d="M36.364 51.34h.236a5.18 5.18 0 01-.035-.692V47.39c0-.86.358-.941.668-.944h.076v-.152c-.272 0-.565.03-.85.03-.328 0-.648-.027-.971-.03v.152h.127a.63.63 0 01.654.708v2.714l-.013.013-.025.025-3.188-3.607c-.214 0-.42.03-.64.03-.272 0-.543-.027-.793-.03v.152h.063a.678.678 0 01.683.679v3.02c0 .573-.16.939-.675.942h-.07v.154c.311 0 .631-.03.943-.03.313 0 .597.028.893.03v-.152h-.09c-.564 0-.705-.25-.705-.87v-3.05l3.712 4.164zm.272.062h-.293l-3.64-4.054v2.86c0 .621.104.8.644.814h.152v.271h-.027c-.312 0-.619-.027-.926-.027-.306 0-.65.027-.974.027h-.032v-.271h.133c.472 0 .607-.307.613-.876V47.12a.61.61 0 00-.622-.613h-.124v-.272h.032c.272 0 .543.03.814.03.215 0 .42-.03.662-.019l3.15 3.547v-2.635c0-.57-.382-.64-.59-.643h-.19v-.272h.032c.339 0 .667.03 1.004.03.29 0 .583-.03.882-.03h.03v.272h-.139c-.296 0-.6.032-.608.879v3.256c-.004.24.01.481.044.72v.035l-.027-.003zM38.413 46.618c-.543 0-.559.13-.665.651h-.206c.03-.2.065-.401.087-.608a4.12 4.12 0 00.043-.61h.171c.06.217.239.209.432.209h3.698c.196 0 .375 0 .388-.223l.171.03c-.027.193-.057.385-.078.58a5.163 5.163 0 00-.028.576l-.214.081c-.016-.27-.051-.689-.543-.689h-1.175v3.813c0 .542.253.618.595.618h.138v.215c-.271 0-.784-.027-1.17-.027-.431 0-.933.027-1.212.027v-.215h.138c.393 0 .594-.035.594-.602v-3.826h-1.164z" fill="#231F20"/><path d="M41.24 51.293c-.27 0-.784-.027-1.169-.027-.429 0-.93.027-1.213.027h-.03v-.271h.168c.394 0 .543-.014.562-.57v-3.799h-1.145v-.062h1.208v3.861c0 .575-.234.632-.625.635H38.9v.15c.271 0 .768-.028 1.183-.028.374 0 .852.027 1.137.027v-.149h-.106c-.347 0-.624-.087-.624-.651v-3.85h1.205c.483 0 .542.41.561.678l.155-.057v-.565c0-.19.046-.366.073-.542l-.108-.02c-.033.21-.236.22-.415.218h-3.731c-.171 0-.353 0-.418-.207h-.12c0 .195-.013.389-.04.581-.022.198-.055.385-.082.575h.155c.092-.499.154-.662.69-.654v.063c-.544 0-.52.1-.636.63v.024h-.271v-.038c.027-.198.065-.402.087-.608.03-.2.044-.403.043-.605v-.03h.225v.022c.05.182.182.182.367.184h3.733c.199 0 .345 0 .359-.192v-.033h.03l.203.033v.03c-.027.192-.057.385-.076.577-.019.193-.014.386-.014.578v.022h-.021l-.255.095v-.043c-.02-.272-.05-.66-.502-.66h-1.143v3.783c0 .543.22.58.562.586h.168v.272l-.032.01zM42.75 51.05h.102c.272 0 .543-.036.543-.41v-3.756c0-.375-.271-.41-.543-.41h-.103v-.214c.437 0 1.186.027 1.786.027.6 0 1.357-.027 1.834-.027 0 .306 0 .781.017 1.085l-.218.057c-.032-.467-.119-.838-.873-.838h-.993v1.877h.838c.431 0 .526-.241.567-.63h.215c0 .272-.022.56-.022.84 0 .279 0 .542.022.813l-.215.044c-.04-.429-.062-.708-.559-.708h-.857v1.68c0 .466.412.466.87.466.864 0 1.24-.06 1.458-.874l.2.05c-.094.379-.178.759-.244 1.139-.458 0-1.283-.027-1.926-.027s-1.5.027-1.9.027v-.212z" fill="#231F20"/><path d="M46.56 51.231c.062-.36.143-.725.233-1.085l-.142-.036c-.217.814-.632.874-1.478.869-.45 0-.904 0-.904-.497v-1.701h.89c.502 0 .543.295.586.705l.155-.032a16.05 16.05 0 01-.02-.793c0-.25 0-.543.02-.814h-.155c-.038.375-.157.635-.594.632h-.882v-1.934h1.026c.746 0 .87.38.903.83l.155-.043a11.08 11.08 0 01-.022-.7v-.342c-.488 0-1.215.03-1.804.03-.59 0-1.314-.028-1.753-.03v.152h.07c.255 0 .56.046.562.442v3.755c0 .397-.307.44-.562.443h-.07v.149c.418 0 1.245-.027 1.875-.027.63 0 1.44.027 1.9.027h.01zm.015.062c-.46 0-1.286-.03-1.929-.03s-1.498.03-1.9.03h-.03v-.271h.134c.271 0 .494-.027.496-.377v-3.761c0-.35-.238-.375-.496-.377h-.133v-.272h.03c.44 0 1.185.03 1.785.03.6 0 1.357-.03 1.835-.03h.032V46.64c0 .247 0 .518.022.721v.028h-.025l-.25.067v-.038c-.043-.464-.105-.814-.843-.814h-.977v1.818h.814c.415 0 .488-.217.543-.602v-.03h.271v.033c0 .271-.022.559-.022.838 0 .28 0 .543.022.814v.025h-.027l-.25.051v-.035c-.049-.437-.054-.676-.542-.681h-.81v1.628c0 .434.378.431.845.434.865 0 1.21-.046 1.427-.85v-.029h.03l.23.06v.027c-.094.38-.178.76-.244 1.14v.024l-.038.024zM48.714 48.68h.35c.719 0 1.104-.271 1.104-1.118a.977.977 0 00-1.047-1.045 3.232 3.232 0 00-.407.03v2.133zm-.917-1.66c0-.524-.288-.543-.51-.543h-.128v-.215c.228 0 .673.028 1.11.028.437 0 .776-.028 1.156-.028.9 0 1.707.245 1.707 1.262 0 .646-.432 1.04-.999 1.262l1.226 1.834a.795.795 0 00.695.432v.214c-.236 0-.467-.027-.7-.027-.233 0-.453.027-.676.027a20.352 20.352 0 01-1.492-2.323h-.472v1.536c0 .543.258.576.586.576h.13v.214c-.41 0-.814-.027-1.232-.027-.344 0-.68.027-1.04.027v-.214h.128c.272 0 .51-.123.51-.388v-3.648z" fill="#231F20"/><path d="M49.064 48.65c.71 0 1.069-.252 1.085-1.085a.95.95 0 00-1.017-1.018c-.126.001-.25.01-.375.027v2.076h.307zm-.35.063h-.03v-2.196h.027c.136-.017.273-.026.41-.027a1.012 1.012 0 011.085 1.086c0 .857-.412 1.148-1.137 1.148l-.355-.011zm0 .195h.496v.016c.441.8.93 1.57 1.466 2.31.22 0 .447-.03.673-.03.225 0 .45.024.673.027v-.157a.814.814 0 01-.69-.44l-1.248-1.864.035-.017c.562-.22.977-.602.977-1.231 0-.996-.773-1.227-1.674-1.232-.377 0-.722.03-1.156.03-.434 0-.847-.028-1.085-.03v.152h.097c.223 0 .543.037.543.577v3.642c0 .288-.271.418-.543.42h-.097v.15c.344 0 .673-.027 1.01-.027.398 0 .813.027 1.201.027v-.15h-.1c-.326 0-.616-.04-.616-.607v-1.566h.038zm3.34 2.385c-.239 0-.467-.027-.703-.027-.236 0-.447.027-.697.017a19.85 19.85 0 01-1.484-2.31h-.424v1.506c0 .543.223.543.543.543h.163v.271h-.033c-.41 0-.827-.027-1.232-.027-.342 0-.68.027-1.039.027h-.033v-.271h.16c.258 0 .478-.114.478-.355v-3.648c0-.51-.255-.507-.477-.512h-.16v-.272h.032c.23 0 .673.03 1.11.03.437 0 .773-.03 1.156-.03.903 0 1.734.253 1.737 1.295 0 .645-.43 1.05-.98 1.275l1.202 1.805a.77.77 0 00.687.412h.024v.271h-.03zM56.922 49.85V47.15a.592.592 0 00-.621-.676h-.157v-.214c.336 0 .664.027 1.004.027.295 0 .586-.027.881-.027v.214h-.108c-.301 0-.638.057-.638.912v3.256c-.004.242.01.485.044.725h-.272l-3.693-4.117v2.958c0 .624.122.838.673.838h.122v.215c-.306 0-.616-.027-.922-.027-.307 0-.654.027-.977.027v-.215h.1c.494 0 .646-.339.646-.909V47.12a.643.643 0 00-.651-.646h-.095v-.214c.271 0 .542.027.814.027.214 0 .423-.027.637-.027l3.213 3.59z" fill="#231F20"/><path d="M57.066 51.34h.233c-.028-.23-.04-.461-.037-.692V47.39c0-.86.363-.941.67-.944h.076v-.152c-.272 0-.565.03-.85.03-.328 0-.648-.027-.974-.03v.152h.128a.63.63 0 01.654.708v2.714l-.014.013-.022.025-3.19-3.607c-.212 0-.421.03-.638.03-.272 0-.543-.027-.795-.03v.152h.065a.676.676 0 01.68.679v3.017c0 .576-.162.942-.675.945h-.07v.154c.312 0 .63-.03.944-.03.315 0 .6.028.895.03v-.152h-.092c-.562 0-.703-.247-.705-.873v-3.045l3.717 4.162zm.271.062h-.295l-3.64-4.054v2.86c0 .627.104.814.644.814h.152v.271h-.03c-.31 0-.619-.03-.925-.03-.307 0-.652.03-.974.03h-.033v-.271h.133c.472 0 .608-.307.613-.88V47.12a.61.61 0 00-.618-.613h-.128v-.272h.033c.27 0 .542.03.814.03.211 0 .418-.03.659-.019l3.15 3.547v-2.635c0-.57-.382-.64-.591-.643h-.19v-.272h.033c.339 0 .667.03 1.004.03.293 0 .586-.03.881-.03h.03v.272h-.138c-.296 0-.6.032-.608.879v3.256c-.004.24.01.481.043.72v.035l-.019-.003zM60.241 47.063h-.016l-.665 2.03h1.338l-.657-2.03zm-1.047 3.175c-.073.18-.126.368-.16.559 0 .217.303.252.542.252h.079v.215c-.288-.017-.58-.028-.868-.028-.288 0-.516 0-.774.028v-.215h.044c.287 0 .54-.19.621-.467l1.148-3.291c.114-.288.205-.585.271-.887.227-.082.445-.186.651-.31a.16.16 0 01.06 0 .046.046 0 01.049.022c.022.057.043.122.065.179l1.313 3.737c.087.25.171.515.272.73.076.191.27.309.475.287h.043v.215a19.375 19.375 0 00-.988-.028c-.342 0-.71 0-1.085.028v-.215h.079c.162 0 .445-.03.445-.209a2.366 2.366 0 00-.144-.515l-.271-.833h-1.629l-.238.746z" fill="#231F20"/><path d="M59.6 49.06h1.257l-.624-1.921-.632 1.921zm-.078.063l.684-2.093h.04v.033-.033h.022l.681 2.093h-1.427zm1.465 2.108c.353 0 .7-.027 1.045-.027s.643.013.955.027v-.152a.486.486 0 01-.502-.307c-.092-.214-.182-.48-.271-.732l-1.335-3.75-.063-.171h-.013a.152.152 0 00-.041 0c-.2.125-.417.223-.643.29a6.021 6.021 0 01-.271.895l-1.14 3.29a.678.678 0 01-.651.485v.152c.247 0 .493-.027.743-.027s.562.013.836.027v-.152h-.046c-.236 0-.562-.027-.57-.271.033-.195.087-.385.16-.567h.03-.03l.236-.768h1.672l.285.852c.07.168.12.345.146.526 0 .22-.312.236-.475.239h-.046l-.01.141zm2.03.062c-.32-.013-.646-.03-.985-.03-.34 0-.711.017-1.085.03h-.036v-.271h.112c.165 0 .412-.038.412-.176a2.28 2.28 0 00-.141-.508l-.271-.814h-1.58l-.222.725c-.07.175-.124.357-.16.542 0 .177.271.22.51.22h.108v.272h-.032c-.285-.014-.578-.03-.866-.03-.288 0-.515.016-.77.03h-.036v-.272h.076a.619.619 0 00.592-.445l1.15-3.286c.112-.297.207-.6.285-.906a3.87 3.87 0 00.651-.31.226.226 0 01.068-.016c.032 0 .063.015.082.04.019.06.043.126.065.183l1.319 3.75c.084.25.17.515.271.727a.423.423 0 00.445.271h.07v.272l-.032.002zM63.32 46.618c-.542 0-.558.13-.667.651h-.214c.027-.2.065-.401.087-.608.027-.202.04-.406.04-.61h.174c.057.217.236.209.429.209h3.701c.193 0 .372 0 .386-.223l.17.03c-.027.193-.054.385-.075.58-.022.196-.017.386-.017.579l-.214.081c0-.271-.049-.69-.53-.69h-1.177v3.813c0 .543.252.62.597.62h.136v.214c-.272 0-.782-.028-1.17-.028-.388 0-.93.028-1.21.028v-.215h.136c.396 0 .594-.035.594-.602v-3.83H63.32z" fill="#231F20"/><path d="M66.154 51.293c-.271 0-.784-.027-1.17-.027-.428 0-.93.027-1.21.027h-.032v-.271h.168c.396 0 .542-.014.564-.57v-3.799h-1.153v-.062h1.207v3.861c0 .575-.233.632-.626.632h-.106v.155c.285 0 .765-.03 1.18-.03.415 0 .855.027 1.137.03v-.155h-.106c-.344 0-.624-.084-.624-.648v-3.85h1.208c.48 0 .542.41.556.678l.157-.057c0-.188 0-.375.014-.565.014-.19.049-.366.073-.542l-.108-.02c-.033.21-.234.223-.413.218h-3.728c-.168 0-.353 0-.418-.21h-.117c0 .196-.015.391-.043.584-.02.198-.054.388-.082.575h.155c.092-.499.155-.662.692-.654v.063c-.543 0-.518.1-.638.63v.024h-.271v-.035c.03-.201.065-.405.087-.611.03-.2.044-.403.043-.605v-.03h.228v.022c.049.182.18.182.364.184h3.736c.198 0 .342 0 .356-.192v-.033h.035l.204.033v.03c-.03.192-.057.385-.079.577-.022.193-.014.386-.014.578v.022h-.021l-.255.095v-.043c-.02-.272-.047-.66-.5-.66H65.46v3.783c0 .543.223.58.562.586h.168v.272l-.035.01zM67.7 51.05h.101c.258 0 .53-.036.53-.41v-3.756c0-.375-.272-.41-.53-.41h-.1v-.214c.271 0 .708.027 1.06.027.353 0 .79-.027 1.127-.027v.214h-.1c-.258 0-.543.035-.543.41v3.755c0 .375.271.41.542.41h.1v.215c-.344 0-.775-.028-1.13-.028-.356 0-.777.028-1.056.028v-.215z" fill="#231F20"/><path d="M69.855 51.231v-.152h-.068c-.257 0-.561-.043-.561-.44v-3.755c0-.396.304-.44.561-.442h.068v-.152c-.33 0-.746.03-1.085.03-.34 0-.752-.028-1.029-.03v.152h.068c.255 0 .562.046.562.442v3.755c0 .397-.307.44-.562.44h-.068v.152c.272 0 .681-.027 1.023-.027.342 0 .76.027 1.1.027h-.009zm.04.062c-.346 0-.775-.03-1.13-.03-.356 0-.777.03-1.056.03h-.046v-.271h.13c.258 0 .496-.027.5-.377v-3.761c0-.35-.242-.375-.5-.377h-.13v-.272h.03c.27 0 .71.03 1.06.03.35 0 .787-.03 1.127-.03h.03v.272h-.13c-.272 0-.497.027-.5.377v3.755c0 .35.236.375.5.378h.13v.27l-.014.006zM72.854 51.055c1.392 0 1.628-1.227 1.628-2.272 0-1.044-.565-2.317-1.756-2.317-1.254 0-1.628 1.12-1.628 2.079 0 1.283.589 2.51 1.748 2.51m-.109-4.904c1.53 0 2.749.947 2.749 2.475a2.63 2.63 0 01-2.714 2.746c-1.52 0-2.68-1.034-2.68-2.575a2.608 2.608 0 012.642-2.646" fill="#231F20"/><path d="M71.074 48.545c0-.964.38-2.109 1.658-2.109 1.218 0 1.785 1.294 1.788 2.347.003 1.053-.247 2.301-1.666 2.301v-.062c1.356 0 1.6-1.197 1.603-2.241.003-1.045-.559-2.283-1.725-2.285-1.23 0-1.593 1.085-1.596 2.046 0 1.278.583 2.477 1.718 2.48v.06c-1.189 0-1.778-1.249-1.78-2.54m-1.004.252a2.643 2.643 0 012.675-2.675v.062a2.575 2.575 0 00-2.613 2.613c0 1.525 1.145 2.543 2.651 2.543a2.597 2.597 0 002.678-2.714c0-1.509-1.199-2.442-2.713-2.442v-.062c1.541 0 2.776.957 2.779 2.504a2.665 2.665 0 01-2.741 2.776c-1.533 0-2.714-1.047-2.714-2.605M80.324 49.85V47.15a.592.592 0 00-.624-.676h-.157v-.214c.336 0 .667.027 1.004.027.336 0 .588-.027.882-.027v.214h-.109c-.298 0-.638.057-.638.912v3.256c-.004.242.01.485.044.725h-.272l-3.693-4.117v2.958c0 .624.122.838.673.838h.122v.215c-.306 0-.616-.027-.922-.027-.307 0-.654.027-.977.027v-.215h.1c.497 0 .646-.339.646-.909V47.12a.643.643 0 00-.654-.646h-.092v-.214c.271 0 .542.027.814.027.214 0 .42-.027.638-.027l3.215 3.59z" fill="#231F20"/><path d="M80.468 51.34h.233a5.18 5.18 0 01-.035-.692V47.39c0-.863.36-.941.668-.944h.078v-.152c-.285 0-.567.03-.852.03-.328 0-.648-.027-.971-.03v.152h.125a.63.63 0 01.654.708v2.714l-.014.013-.022.025-3.199-3.617c-.212 0-.42.03-.638.03-.271 0-.542-.028-.795-.03v.152h.063a.678.678 0 01.683.678v3.02c0 .573-.16.939-.675.942h-.07v.154c.311 0 .631-.03.946-.03.315 0 .595.028.893.03v-.152h-.092c-.565 0-.706-.247-.706-.87v-3.04l3.726 4.165zm.271.062h-.295l-3.64-4.054v2.86c0 .624.104.798.644.814h.154v.271h-.032c-.31 0-.616-.027-.923-.027-.306 0-.651.027-.977.027h-.03v-.271h.13c.473 0 .609-.307.617-.876V47.12a.613.613 0 00-.624-.613h-.122v-.272h.03c.27 0 .542.03.813.03.212 0 .418-.03.663-.019l3.15 3.547v-2.635c0-.57-.385-.64-.594-.643h-.19v-.272h.032c.34 0 .668.03 1.004.03.293 0 .584-.03.882-.03h.03v.272h-.138c-.296 0-.6.032-.605.879v3.256c-.005.24.008.481.04.72v.035l-.019-.003zM83.643 47.063h-.014l-.67 2.03h1.343l-.66-2.03zm-1.056 3.175c-.07.18-.123.368-.157.559 0 .217.301.252.543.252h.078v.215c-.287-.017-.58-.028-.868-.028-.288 0-.516 0-.773.028v-.215h.04c.289 0 .543-.19.624-.467l1.15-3.291c.115-.288.206-.585.272-.887a3.71 3.71 0 00.654-.31.136.136 0 01.057 0c.022 0 .036 0 .05.022l.064.179 1.319 3.75c.084.25.171.516.271.73.08.187.274.299.475.274h.044v.215a19.396 19.396 0 00-.99-.028c-.345 0-.709 0-1.086.028v-.215h.078c.166 0 .445-.03.445-.209a2.214 2.214 0 00-.143-.515l-.272-.833h-1.628l-.247.746z" fill="#231F20"/><path d="M83.002 49.06h1.257l-.624-1.921-.633 1.921zm-.086.063l.689-2.093h.038v.033-.033h.03l.678 2.093h-1.435zm1.465 2.108c.355 0 .705-.027 1.045-.027.339 0 .645.013.96.027v-.152a.486.486 0 01-.502-.307c-.095-.214-.179-.48-.271-.732l-1.319-3.75a3.276 3.276 0 01-.06-.171h-.019a.114.114 0 00-.04 0c-.201.121-.416.217-.64.285a6.021 6.021 0 01-.272.895l-1.148 3.292a.681.681 0 01-.654.485v.152c.244 0 .491-.027.74-.027.25 0 .563.014.837.027v-.152h-.046c-.234 0-.562-.027-.57-.271.034-.194.088-.384.16-.567h.03-.03l.236-.768h1.669l.287.852c.07.169.118.346.144.526 0 .22-.312.236-.475.24h-.049l-.013.143zm2.032.062c-.323 0-.645-.027-.987-.027-.342 0-.709.017-1.072.027h-.033v-.271h.109c.165 0 .412-.038.415-.176a2.51 2.51 0 00-.144-.508l-.271-.814h-1.571l-.22.725c-.07.175-.122.357-.158.542 0 .177.272.22.508.22h.108v.272h-.032c-.272 0-.58-.028-.866-.028-.285 0-.513.017-.773.028h-.03v-.272h.07c.276 0 .52-.18.598-.445l1.147-3.291c.106-.298.197-.6.272-.907a4.01 4.01 0 00.654-.31.214.214 0 01.068-.013.081.081 0 01.078.041c.022.057.04.122.065.18l1.32 3.75c.086.249.17.515.27.73a.423.423 0 00.446.27h.073v.272l-.044.005zM88.223 50.56c0 .288.198.372.43.402.314.029.631.029.946 0 .271-.033.518-.172.687-.388.103-.157.178-.332.222-.515h.22c-.079.407-.18.814-.271 1.218-.63 0-1.262-.027-1.9-.027-.638 0-1.262.027-1.9.027v-.214h.101c.271 0 .543-.036.543-.48v-3.7c0-.374-.272-.409-.543-.409h-.1v-.214c.38 0 .754.027 1.134.027.38 0 .722-.027 1.085-.027v.214h-.179c-.271 0-.486 0-.486.388l.011 3.699z" fill="#231F20"/><path d="M90.424 51.231c.084-.388.18-.768.255-1.156h-.146c-.046.18-.12.35-.223.505a1.064 1.064 0 01-.708.399c-.19.019-.375.03-.543.03-.168 0-.271 0-.404-.017-.234-.024-.459-.125-.459-.431v-3.699c0-.399.253-.42.521-.42h.147v-.152c-.353 0-.7.03-1.059.03-.358 0-.732-.028-1.099-.03v.152h.068c.255 0 .567.046.567.442v3.685c0 .464-.309.51-.567.51h-.068v.152c.62 0 1.238-.027 1.862-.027.624 0 1.245.027 1.864.027h-.008zm.035.062c-.632 0-1.264-.027-1.9-.027-.634 0-1.261.027-1.899.027h-.03v-.271h.13c.272 0 .505-.024.508-.448v-3.69c0-.35-.247-.375-.507-.377h-.13v-.272h.027c.38 0 .754.03 1.131.03s.722-.03 1.086-.03h.03v.272h-.21c-.27 0-.45 0-.455.355v3.699c0 .271.176.339.401.371.125 0 .258.014.396.014.182 0 .363-.009.543-.027.263-.032.503-.167.668-.375.1-.155.174-.327.217-.507v-.024h.271v.038c-.081.41-.179.814-.271 1.218v.024h-.006zM90.508 46.813h.09c.097 0 .14-.073.14-.192 0-.12-.067-.163-.146-.163h-.084v.355zm-.255.396v-.035c.092-.013.111 0 .111-.068v-.559c0-.078 0-.105-.108-.1v-.038h.388c.133 0 .255.065.255.2a.239.239 0 01-.18.229l.126.173a.782.782 0 00.165.18v.032h-.146c-.07 0-.133-.147-.272-.345h-.084v.25c0 .049.016.046.111.06v.035l-.366-.014zm.375.215a.613.613 0 10.032-1.226.613.613 0 00-.032 1.226zm0-1.357a.754.754 0 11-.755.757.744.744 0 01.755-.757z" fill="#231F20"/><path d="M45.854 20.95c.001-6.704 5.437-12.139 12.142-12.138 6.705.001 12.14 5.437 12.139 12.142 0 6.705-5.436 12.14-12.14 12.14A12.14 12.14 0 0145.853 20.95z" fill="#FFF"/><path d="M58.01 33.308c-6.957.032-12.683-5.604-12.683-12.466 0-7.498 5.726-12.686 12.683-12.684h3.257c6.876 0 13.15 5.183 13.15 12.684 0 6.86-6.274 12.466-13.15 12.466H58.01zm.03-24.11c-6.357.004-11.508 5.161-11.505 11.519.003 6.358 5.158 11.51 11.516 11.508 6.358-.001 11.511-5.156 11.511-11.514A11.514 11.514 0 0058.04 9.198zM55.427 27.52V13.903a7.291 7.291 0 000 13.617zm9.91-6.809a7.305 7.305 0 00-4.686-6.81v13.622a7.308 7.308 0 004.686-6.812z" fill="#0069AA"/></g></svg>