<?xml version="1.0" encoding="UTF-8"?><svg id="Layer_1" xmlns="http://www.w3.org/2000/svg" width="21" height="15" xmlns:xlink="http://www.w3.org/1999/xlink" viewBox="0 0 21 15"><defs><style>.cls-1{clip-path:url(#clippath);}.cls-2{fill:none;}.cls-2,.cls-3,.cls-4,.cls-5,.cls-6,.cls-7,.cls-8{stroke-width:0px;}.cls-3{fill:#1a47b8;}.cls-3,.cls-4,.cls-5,.cls-6{fill-rule:evenodd;}.cls-4{fill:#249f58;}.cls-5{fill:#fff;}.cls-6,.cls-7{fill:#f93939;}.cls-8{fill:#ffda2c;}</style><clipPath id="clippath"><rect class="cls-2" width="21" height="15" rx="3" ry="3"/></clipPath></defs><g class="cls-1"><rect class="cls-7" width="21" height="15" rx="3" ry="3"/><path class="cls-4" d="m0,0h7v15H0V0Z"/><path class="cls-8" d="m7,10c1.657,0,3-1.343,3-3s-1.343-3-3-3-3,1.343-3,3,1.343,3,3,3Z"/><path class="cls-6" d="m9,8v-3h-4v3c0,.552.895,1,2,1s2-.448,2-1Z"/><path class="cls-5" d="m6,6h2v2h-2v-2Z"/><path class="cls-3" d="m6,6h1v1h-1v-1Zm1,1h1v1h-1v-1Z"/></g></svg>