<?xml version="1.0" encoding="UTF-8"?><svg id="Layer_1" xmlns="http://www.w3.org/2000/svg" width="21" height="15" xmlns:xlink="http://www.w3.org/1999/xlink" viewBox="0 0 21 15"><defs><style>.cls-1{clip-path:url(#clippath);}.cls-2{fill:none;}.cls-2,.cls-3,.cls-4,.cls-5,.cls-6,.cls-7,.cls-8,.cls-9{stroke-width:0px;}.cls-3{fill:#1a47b8;}.cls-3,.cls-4,.cls-5,.cls-6,.cls-7,.cls-8{fill-rule:evenodd;}.cls-4{fill:#ae6a3e;}.cls-5{fill:#d4af2c;}.cls-6{fill:#af010d;}.cls-7{fill:#cbcbcb;}.cls-8{fill:#ffda2c;}.cls-9{fill:#f93939;}</style><clipPath id="clippath"><rect class="cls-2" width="21" height="15" rx="3" ry="3"/></clipPath></defs><g class="cls-1"><rect class="cls-9" width="21" height="15" rx="3" ry="3"/><path class="cls-9" d="m19,0H2C.895,0,0,.895,0,2v11c0,1.105.895,2,2,2h17c1.105,0,2-.895,2-2V2c0-1.105-.895-2-2-2Z"/><path class="cls-8" d="m0,4h21v7H0v-7Z"/><path class="cls-5" d="m9,6.222v2.52c0,.7-.672,1.26-1.5,1.26h-2c-.826-.002-1.5-.565-1.5-1.262v-2.52c0-.572.448-1.05,1.064-1.205.186-.52.758-.054,1.436-.054.682,0,1.25-.463,1.436.055.614.159,1.064.638,1.064,1.206Z"/><path class="cls-7" d="m9,7h1v3h-1v-3Zm-6,0h1v3h-1v-3Z"/><path class="cls-3" d="m9,9h1v1h-1v-1Zm-6,0h1v1h-1v-1Z"/><path class="cls-5" d="m9,6h1v1h-1v-1Zm-6,0h1v1h-1v-1Z"/><path class="cls-6" d="m5,6h1v1.5h-1v-1.5Zm2,2h1v1.5h-1v-1.5Z"/><path class="cls-8" d="m5,8h1v1.5h-1v-1.5Z"/><path class="cls-4" d="m7,6h1v1.5h-1v-1.5Z"/><path class="cls-6" d="m6,6l-1-1h3l-1,1h-1Z"/><path class="cls-5" d="m6,4h1v1h-1v-1Z"/></g></svg>