<svg xmlns="http://www.w3.org/2000/svg" id="logo" data-name="group_1" width="104" height="43" viewBox="0 0 104 43">
		<defs>
			<style>
				.cls-1 {
					fill: #893400;
				}

				.cls-1, .cls-2 {
					fill-rule: evenodd;
				}

				.cls-2 {
					fill: #8ca9ff;
				}
			</style>
		</defs>
		<path id="logo" class="cls-1" d="M9.342,27.358l-0.023-.007-0.155.037Zm68.768,2.418c-0.6-.993-1.186-2-1.817-2.976a2.448,2.448,0,0,1-.387-1.411c0.011-4.874.009-10.276,0-15.225a1.121,1.121,0,0,0-1.121-1.12H66.847a1.231,1.231,0,0,0-.524.1,0.658,0.658,0,0,0-.352.93,3.626,3.626,0,0,0,.234.421c0.573,0.939,1.135,1.884,1.727,2.81a2.27,2.27,0,0,1,.362,1.228c0,0.054,0,.108,0,0.163q-0.006,1.639-.008,3.28l0-.006q0,3.153,0,6.306c0,0.573-.006,1.05,0,1.622a0.906,0.906,0,0,1-.231.661,4.017,4.017,0,0,1-2.133,1.082,2.785,2.785,0,0,1-3.444-2.113,6.99,6.99,0,0,1-.164-1.651c0-4.322,0-9.285,0-13.712a1.17,1.17,0,0,0-1.171-1.17h-7.9a1.254,1.254,0,0,0-.524.1,0.659,0.659,0,0,0-.352.931,3.662,3.662,0,0,0,.234.421c0.573,0.938,1.135,1.883,1.727,2.809A2.267,2.267,0,0,1,54.7,14.48c-0.013,3.49-.02,6.981,0,10.47a5.788,5.788,0,0,0,3.728,5.629,6.419,6.419,0,0,0,2.218.46,8.2,8.2,0,0,0,3.539-.513,11.937,11.937,0,0,0,3.7-2.365c0.1-.087.42-0.417,0.394-0.193L68.3,30.989h9.29a0.7,0.7,0,0,0,.7-0.611A0.911,0.911,0,0,0,78.111,29.776Zm-25.547,0c-0.6-.993-1.186-2-1.817-2.976a2.448,2.448,0,0,1-.387-1.411c0.011-4.874.009-10.276,0.005-15.225a1.121,1.121,0,0,0-1.121-1.12H41.3a1.231,1.231,0,0,0-.524.1,0.657,0.657,0,0,0-.352.93,3.625,3.625,0,0,0,.234.421c0.573,0.939,1.135,1.884,1.727,2.81a2.271,2.271,0,0,1,.362,1.228c0,0.054,0,.108,0,0.163q-0.006,1.639-.008,3.28l0-.006q0,3.153,0,6.306c0,0.573-.006,1.05,0,1.622a0.907,0.907,0,0,1-.231.661,4.017,4.017,0,0,1-2.133,1.082,2.785,2.785,0,0,1-3.444-2.113,6.99,6.99,0,0,1-.165-1.651c0-4.322,0-9.285,0-13.712A1.17,1.17,0,0,0,35.6,8.991H27.7a1.254,1.254,0,0,0-.524.1,0.659,0.659,0,0,0-.352.931,3.692,3.692,0,0,0,.234.421c0.573,0.938,1.135,1.883,1.727,2.809a2.268,2.268,0,0,1,.363,1.231c-0.013,3.49-.02,6.981,0,10.47a5.788,5.788,0,0,0,3.728,5.629,6.418,6.418,0,0,0,2.218.46,8.2,8.2,0,0,0,3.539-.513,11.938,11.938,0,0,0,3.7-2.365c0.1-.087.42-0.417,0.394-0.193l0.028,3.021h9.29a0.7,0.7,0,0,0,.7-0.611A0.912,0.912,0,0,0,52.564,29.776Zm50.208-.529L101.2,26.778a1.849,1.849,0,0,1-.364-1.145q0.015-3.84,0-7.68c0-2.363-.018-4.726-0.018-7.089,0-2.146.006-4.454,0.012-6.712,0-.783.006-1.56,0-2.326A1.12,1.12,0,0,0,99.714.706H95.3s0,0.008,0,.013h-3.5a1.237,1.237,0,0,0-.524.1,0.658,0.658,0,0,0-.352.931,3.755,3.755,0,0,0,.234.422c0.573,0.938,1.135,1.883,1.727,2.809a2.269,2.269,0,0,1,.363,1.231c0,0.286-.005,3.931-0.006,4.3a0.514,0.514,0,0,1-.084.422,0.68,0.68,0,0,1-.431-0.214,8.5,8.5,0,0,0-11.469.732,11.443,11.443,0,0,0-3.169,7.283,13.853,13.853,0,0,0,.517,5.148,11.3,11.3,0,0,0,2.288,4.268,8.793,8.793,0,0,0,5.021,2.889,7.442,7.442,0,0,0,3.453-.108,10.358,10.358,0,0,0,3.758-1.9c0.52-.412,1.013-0.852,1.507-1.293a0.879,0.879,0,0,1,1.079-.19,2.109,2.109,0,0,1,.452.377c0.911,0.9,1.828,1.79,2.731,2.7a1.318,1.318,0,0,0,.954.386c0.793-.011,1.585,0,2.378,0a0.921,0.921,0,0,0,.951-0.35A1.351,1.351,0,0,0,102.772,29.248Zm-9.57-2.5a2.808,2.808,0,0,1-1.568.689,3.727,3.727,0,0,1-3.41-1.168,6.556,6.556,0,0,1-1.813-3.236,11.869,11.869,0,0,1,.264-7.021A7.3,7.3,0,0,1,88.353,13.3,3.917,3.917,0,0,1,91,12.029a4.59,4.59,0,0,1,2.153.439ZM14.559,35.673c0,0.25-.014.521,0,0.743a6.8,6.8,0,0,0,.9,3.008A5.447,5.447,0,0,0,18,41.672a8.421,8.421,0,0,0,5.082.464,7.615,7.615,0,0,0,4.156-2.211,6.3,6.3,0,0,0,1.838-4.105,8.3,8.3,0,0,0-.077-1.736,6.846,6.846,0,0,0-6.519-5.978,7.919,7.919,0,0,0-4.747,1.147,19.061,19.061,0,0,0-1.914,1.395,21.5,21.5,0,0,1-2.539,1.9,5.7,5.7,0,0,1-3.728.8A2.21,2.21,0,0,1,7.565,31.6a2.061,2.061,0,0,1,.7-2.128,6.138,6.138,0,0,1,2.611-1.209,35.4,35.4,0,0,1,3.65-.625,19.4,19.4,0,0,0,4.138-1.092,14.248,14.248,0,0,0,5.168-3.286,8.528,8.528,0,0,0,2.1-3.439h0.014a8.04,8.04,0,0,0,.246-1.239,7.832,7.832,0,0,0-.667-4.265A10.254,10.254,0,0,0,22.1,10.278a15.3,15.3,0,0,0-5.666-2.44,14.5,14.5,0,0,0-6.5,0,15.3,15.3,0,0,0-5.666,2.44A10.255,10.255,0,0,0,.83,14.319a7.831,7.831,0,0,0-.667,4.265,8.127,8.127,0,0,0,.691,2.452,9.186,9.186,0,0,0,.99,1.677,11.173,11.173,0,0,0,1.742,1.866A9.584,9.584,0,0,0,9.67,26.811H9.946V11.894a3.406,3.406,0,1,1,6.812,0v8.151A6.706,6.706,0,0,1,15.7,23.834a7.993,7.993,0,0,1-4.236,2.939c-2.2.757-4.659,0.957-6.726,2.052a8.231,8.231,0,0,0-2.653,2.151,6.544,6.544,0,0,0-.967,1.6A7.874,7.874,0,0,0,.58,35.981a7.606,7.606,0,0,0,.654,2.853,5.584,5.584,0,0,0,4,3.332,5.806,5.806,0,0,0,4.615-.84,9.711,9.711,0,0,0,2.22-2.187A25.033,25.033,0,0,0,13.8,36.533c0.667-1.111,1.268-2.262,2.018-3.323a13.461,13.461,0,0,1,1.741-2.15,4.54,4.54,0,0,1,3.638-1.386,2.309,2.309,0,0,1,2.1,1.607,3.121,3.121,0,0,1-1.9,3.929,6.473,6.473,0,0,1-2.31.462H14.559Z"/>
		<path id="dot" class="cls-2" d="M27.2,5.65A3.45,3.45,0,1,1,23.751,2.2,3.451,3.451,0,0,1,27.2,5.65Z"/>
	</svg>