<svg width="120" height="60" xmlns="http://www.w3.org/2000/svg"><g fill="#039" fill-rule="nonzero"><path d="M2.52 30.66v5.415H0V24h2.52v4.575h4.71V24h2.52v12.075H7.23V30.66zM19.125 34.32c0 1.065.24 1.29.525 1.395v.36H17.1c-.135-.42-.165-.555-.225-1.065-.54.555-1.29 1.29-2.895 1.29-1.35 0-2.73-.75-2.73-2.61 0-1.755 1.11-2.64 2.61-2.865l2.115-.315c.375-.045.825-.195.825-.705 0-.99-.945-1.05-1.545-1.05-1.17 0-1.38.72-1.44 1.245H11.55c.27-2.745 2.175-3.135 4.005-3.135 1.26 0 3.57.39 3.57 2.595v4.86zm-2.31-2.595c-.24.18-.615.33-1.605.495-.87.15-1.605.375-1.605 1.35 0 .825.645 1.08 1.095 1.08 1.05 0 2.1-.675 2.1-1.77v-1.155h.015zM29.145 36.075H26.79v-5.43c0-.66-.03-1.77-1.53-1.77-1.05 0-1.845.705-1.845 2.07v5.13H21.06v-8.94h2.25v1.305h.03c.315-.54.99-1.545 2.685-1.545 1.755 0 3.105 1.02 3.105 3l.015 6.18zM39.345 36.075h-2.31V34.95h-.03c-.57 1.005-1.62 1.365-2.595 1.365-2.655 0-3.765-2.355-3.765-4.815 0-3.09 1.755-4.605 3.72-4.605 1.515 0 2.22.825 2.595 1.395h.03V24h2.355v12.075zm-4.35-1.695c1.5 0 2.085-1.245 2.085-2.58 0-1.425-.405-2.88-2.025-2.88-1.5 0-1.995 1.335-1.995 2.745 0 1.065.42 2.715 1.935 2.715zM48.96 33.45c-.615 2.16-2.4 2.865-3.93 2.865-2.52 0-4.455-1.215-4.455-4.89 0-1.08.375-4.53 4.29-4.53 1.77 0 4.2.84 4.2 4.935v.42H42.93c.06.675.195 2.19 2.1 2.19.66 0 1.335-.33 1.515-.975l2.415-.015zm-2.325-2.745c-.135-1.44-1.065-1.89-1.815-1.89-1.11 0-1.695.705-1.83 1.89h3.645zM52.875 36.075H50.52V24h2.355zM60.03 29.85c-.105-.57-.3-1.17-1.575-1.17s-1.44.495-1.44.87c0 1.41 5.595.39 5.595 3.69 0 2.61-2.52 3.075-3.915 3.075-2.04 0-4.245-.705-4.305-3.09h2.415c0 .75.465 1.305 1.95 1.305 1.215 0 1.5-.585 1.5-.93 0-1.5-5.55-.375-5.55-3.72 0-1.305.825-3 3.615-3 1.755 0 3.84.435 4.02 2.955l-2.31.015zM66.435 28.29h.03c.375-.57 1.08-1.395 2.595-1.395 1.965 0 3.72 1.515 3.72 4.605 0 2.46-1.11 4.815-3.765 4.815-.975 0-2.025-.36-2.595-1.365h-.03v1.125h-2.31V24h2.355v4.29zm1.92.645c-1.62 0-2.025 1.44-2.025 2.88 0 1.335.585 2.58 2.085 2.58 1.515 0 1.935-1.65 1.935-2.715 0-1.425-.51-2.745-1.995-2.745zM81.495 34.32c0 1.065.24 1.29.525 1.395v.36h-2.535c-.135-.42-.165-.555-.225-1.065-.54.555-1.29 1.29-2.895 1.29-1.35 0-2.73-.75-2.73-2.61 0-1.755 1.11-2.64 2.61-2.865l2.115-.315c.375-.045.825-.195.825-.705 0-.99-.945-1.05-1.545-1.05-1.185 0-1.38.72-1.44 1.245h-2.265c.27-2.745 2.175-3.135 4.005-3.135 1.26 0 3.57.39 3.57 2.595l-.015 4.86zM79.2 31.725c-.24.18-.615.33-1.605.495-.87.15-1.605.375-1.605 1.35 0 .825.645 1.08 1.095 1.08 1.05 0 2.1-.675 2.1-1.77l.015-1.155zM91.53 36.075h-2.355v-5.43c0-.66-.03-1.77-1.53-1.77-1.05 0-1.845.705-1.845 2.07v5.13h-2.355v-8.94h2.25v1.305h.03c.315-.54.99-1.545 2.685-1.545 1.755 0 3.105 1.02 3.105 3v6.18h.015zM95.97 36.075h-2.355V24h2.355v6.525l2.955-3.39h2.895L98.655 30.6l3.24 5.49h-2.82l-2.13-3.84-.975 1.005v2.82zM110.415 33.45c-.615 2.16-2.4 2.865-3.93 2.865-2.52 0-4.455-1.215-4.455-4.89 0-1.08.375-4.53 4.29-4.53 1.77 0 4.2.84 4.2 4.935v.42h-6.135c.06.675.195 2.19 2.1 2.19.66 0 1.335-.33 1.515-.975l2.415-.015zm-2.325-2.745c-.135-1.44-1.065-1.89-1.815-1.89-1.11 0-1.695.705-1.83 1.89h3.645zM120 36.075h-2.355v-5.43c0-.66-.03-1.77-1.53-1.77-1.05 0-1.845.705-1.845 2.07v5.13h-2.355v-8.94h2.25v1.305h.03c.315-.54.99-1.545 2.685-1.545 1.755 0 3.105 1.02 3.105 3v6.18H120z"/></g></svg>