<?xml version="1.0" encoding="UTF-8"?><svg id="Layer_1" xmlns="http://www.w3.org/2000/svg" width="64" height="64" viewBox="0 0 64 64"><defs><style>.cls-1{fill:#009cde;fill-rule:evenodd;stroke-width:0px;}</style></defs><path class="cls-1" d="m62.1,56.471c-.124-.124-.292-.194-.467-.194h-1.73v-1.657c0-.366-.298-.663-.661-.663h-.18v-21.251h.179c.175,0,.343-.07.467-.194s.194-.292.194-.467v-2.318h0v-2.821c0-.365-.298-.661-.661-.661h-1.761v-3.016c0-.366-.298-.663-.661-.663h-.207v-.834c1.475-.314,2.427-.985,2.825-2.005.032-.081.047-.167.045-.254-.002-.087-.021-.173-.055-.252-.035-.08-.085-.152-.148-.212-.063-.06-.137-.107-.218-.139-.081-.032-.167-.047-.254-.045-.087.002-.173.021-.252.055-.08.035-.152.085-.212.148-.06.063-.108.137-.139.218-.254.651-1.012,1.078-2.253,1.266-1.24-.189-1.999-.614-2.254-1.266-.069-.156-.195-.28-.353-.345-.158-.065-.335-.067-.493-.004-.159.062-.288.184-.359.339-.071.155-.08.332-.025.493.399,1.021,1.349,1.692,2.823,2.006v.833h-7.184v-.833c1.474-.314,2.425-.986,2.823-2.005.036-.082.055-.169.056-.259,0-.089-.016-.177-.05-.26-.034-.082-.084-.157-.148-.219-.063-.062-.139-.111-.222-.144-.083-.032-.172-.048-.261-.045-.089.003-.177.023-.258.06-.081.037-.153.091-.213.157-.06.066-.106.143-.135.228-.256.651-1.013,1.078-2.254,1.266-1.24-.189-1.999-.614-2.253-1.266-.032-.081-.079-.155-.139-.218-.06-.063-.132-.113-.212-.148-.08-.035-.165-.054-.252-.055-.087-.002-.173.014-.254.045-.081.032-.155.079-.218.139-.063.06-.113.132-.148.212s-.054.165-.055.252c-.002.087.014.173.045.254.399,1.021,1.351,1.692,2.825,2.006v.833h-3.857v-7.604c0-.021-.01-.039-.012-.06-.004-.044-.005-.089-.018-.132-.003-.01-.01-.018-.013-.028-.011-.031-.026-.057-.042-.086-.022-.042-.047-.081-.078-.117-.012-.014-.017-.032-.031-.046-.01-.01-.025-.014-.035-.024-.011-.01-.019-.023-.031-.033l-10.263-7.903c-.116-.089-.257-.137-.403-.137s-.288.048-.403.137l-10.264,7.904c-.013.01-.022.025-.034.037-.008.008-.02.01-.028.018-.011.011-.016.027-.026.039-.034.04-.063.083-.087.13-.013.026-.027.051-.037.078-.004.011-.011.02-.015.031-.013.043-.014.087-.018.132-.002.02-.012.038-.012.058v7.604h-3.857v-.834c1.474-.314,2.425-.986,2.823-2.005.032-.081.047-.167.045-.254s-.02-.172-.055-.252c-.035-.08-.085-.151-.148-.212-.063-.06-.136-.107-.217-.139-.081-.032-.167-.047-.254-.045-.087.002-.172.021-.252.055-.079.035-.151.085-.212.147-.06.063-.107.136-.139.217-.256.651-1.013,1.078-2.254,1.266-1.24-.189-1.997-.614-2.253-1.266-.064-.163-.19-.294-.351-.365-.161-.07-.343-.074-.506-.01-.163.064-.294.19-.365.351-.07.161-.074.343-.01.506.399,1.021,1.35,1.692,2.823,2.005v.833h-7.183v-.834c1.474-.314,2.425-.986,2.823-2.005.032-.081.047-.167.045-.254-.002-.087-.02-.172-.055-.252-.035-.08-.085-.151-.148-.212-.063-.06-.136-.107-.217-.139-.081-.032-.167-.047-.254-.045-.087.002-.172.021-.252.055-.08.035-.151.085-.212.147-.06.063-.107.136-.139.217-.254.651-1.013,1.078-2.253,1.266-1.241-.189-1.999-.614-2.254-1.266-.064-.163-.19-.294-.351-.365-.161-.07-.343-.074-.506-.01-.163.064-.294.19-.365.351-.07.161-.074.343-.01.506.399,1.021,1.35,1.692,2.823,2.005v.833h-.205c-.365,0-.661.298-.661.661v3.017h-1.761c-.365,0-.661.296-.661.661v2.821h0v2.318c0,.175.07.344.194.467.124.124.292.194.467.194h.178v21.251h-.176c-.365,0-.661.296-.661.662v1.656h-1.733c-.175,0-.344.07-.467.194-.124.124-.194.292-.194.467s.07.344.194.468c.124.124.292.194.467.194h2.392s.002,0,.003,0,.002,0,.003,0h8.192s.001,0,.002,0,.001,0,.002,0h24.262s.001,0,.002,0,.001,0,.002,0h9.41s.002,0,.003,0,.002,0,.003,0h8.195s.001,0,.002,0,.001,0,.002,0h6.79c.175,0,.343-.07.467-.194.124-.124.194-.292.194-.468s-.07-.344-.194-.467ZM5.605,31.385s-.003,0-.005,0-.003,0-.005,0h-.172v-.995h3.076v.995h-.175s-.001,0-.002,0-.001,0-.002,0h-2.715Zm3.555,1.322c.175,0,.344-.07.467-.194.124-.124.194-.292.194-.467v-1.656h2.475v1.656c0,.175.07.344.194.467.124.124.292.194.467.194h.179v9.964h-4.153v-9.964h.177Zm49.417-1.322h-.176s-.001,0-.002,0-.001,0-.002,0h-2.715s-.003,0-.005,0-.003,0-.005,0h-.172v-.995h3.076v.995Zm-4.206,1.129c.124.124.292.194.467.194h.177v9.964h-4.152v-9.964h.176c.087,0,.173-.017.253-.05.08-.033.153-.082.215-.143.062-.061.11-.134.144-.215.033-.08.05-.166.05-.253v-1.656h2.475v1.656c0,.175.07.344.194.467Zm-6.23,21.445v-21.251h1.399v10.625s0,0,0,0,0,0,0,0v10.625h-1.399Zm2.238-22.574h-.173s-.002,0-.003,0-.002,0-.003,0h-2.716s-.002,0-.003,0-.002,0-.003,0h-.174v-.995h3.076v.995Zm-4.349.915c.033.08.082.153.144.215.062.061.135.11.215.143.08.033.167.05.254.05h.176v8.478c-.667-.592-1.487-.876-2.266-.876-.778,0-1.598.284-2.264.876v-8.479h.374c.175,0,.344-.07.468-.194s.194-.292.194-.467v-1.656h2.656v1.656c0,.087.017.173.05.253Zm-7.106,21.659v-21.251h2.041v21.251h-2.041Zm3.078-22.573h-.372s-.002,0-.003,0-.002,0-.003,0h-3.36s0,0,0,0,0,0,0,0h-.374v-.995h4.113v.995Zm-5.243,1.129c.124.124.292.194.468.194h.376v4.813c-1.391-2.154-3.575-3.151-5.602-3.151s-4.209.997-5.6,3.151v-4.812h.374c.175,0,.344-.07.467-.194.124-.124.194-.292.194-.467v-1.656h9.129v1.656c0,.175.07.344.194.467Zm-13.723,21.445v-21.251h2.042v21.251h-2.042Zm3.078-22.573h-.374s0,0,0,0,0,0,0,0h-3.364s0,0,0,0,0,0,0,0h-.374v-.995h4.113v.995Zm-5.242,1.128c.124.124.292.194.467.194h.376v8.478c-.666-.592-1.487-.875-2.265-.876-.778,0-1.599.284-2.266.877v-8.479h.176c.087,0,.173-.017.253-.05.08-.033.153-.082.215-.143s.11-.134.143-.214c.033-.08.05-.166.05-.253v-1.656h2.658v1.656c0,.175.069.343.193.467Zm-6.41,21.445v-21.251h1.399v21.251h-1.399Zm2.236-22.573h-.176s0,0,0,0,0,0,0,0h-2.718s-.002,0-.003,0-.002,0-.003,0h-.175v-.995h3.076v.995Zm-7.535,22.574h-.179v-9.965h4.153v9.964h-.177c-.365,0-.661.296-.661.663v1.657h-2.475v-1.656c0-.366-.295-.662-.661-.662Zm4.46,1.323h3.076v.995h-3.076v-.995Zm3.739-1.324h-.179v-9.998c.264-1.715,1.382-2.326,2.266-2.326s2.002.611,2.265,2.326v9.998h-.374c-.366,0-.661.296-.661.663v1.657h-2.656v-1.657c0-.366-.295-.663-.661-.663Zm4.639,1.324h.373s0,0,0,0,0,0,0,0h3.362s0,0,0,0,0,0,0,0h.374v.995h-4.113v-.995Zm4.776-1.324h-.376v-12.606c.583-3.908,3.228-5.66,5.6-5.66s5.018,1.752,5.602,5.66v12.605h-.374c-.366,0-.663.296-.663.663v1.657h-9.129v-1.657c0-.366-.296-.663-.66-.663Zm11.113,1.324h4.113v.995h-4.113v-.995Zm4.774-1.324h-.374v-9.997c.263-1.715,1.381-2.326,2.264-2.326s2.003.611,2.266,2.327v9.997h-.176c-.366,0-.663.296-.663.663v1.656h-2.656v-1.657c0-.366-.296-.663-.661-.663Zm4.64,1.324h3.076v.995h-3.076v-.995Zm3.737-1.324h-.176v-9.964h4.152v9.964h-.176c-.365,0-.661.296-.661.663v1.657h-2.477v-1.656c0-.366-.296-.663-.662-.663Zm4.463,1.324h3.075v.995h-3.075v-.995Zm2.236-1.324h-1.399v-21.251h1.399v21.251Zm-18.919-31.39v-6.943h2.781v6.943h-2.781Zm-3.403,0s0,0,0,0h-6.84s0,0,0,0h-2.073v-6.943h10.995v6.943h-2.08Zm-3.418-14.672l8.322,6.407h-14.477s-.002,0-.004,0-.002,0-.004,0h-2.158l8.32-6.407Zm-9.602,7.729h2.781v6.943h-2.781v-6.943Zm-14.554,8.266h48.311v2.355H7.844v-2.355Zm-2.419,5.174v-1.497h1.758s0,0,0,0,0,0,0,0h49.632s0,0,0,0,0,0,0,0h1.76v1.497H5.424s-.001,0-.001,0h.001Zm.837,3.641h1.399v10.624s0,0,0,0,0,0,0,0v10.625h-1.399v-21.251Zm-.837,22.575h3.075v.995h-3.075v-.995Z"/></svg>