<?xml version="1.0" encoding="UTF-8"?>
<svg id="Layer_1" xmlns="http://www.w3.org/2000/svg" width="64" height="64" viewBox="0 0 64 64">
<defs>
    <style>.cls-1{fill:#009cde;stroke-width:0px;}</style>
</defs>
<path class="cls-1" d="m56.916,38.846c-.441-.559-1.058-.958-1.754-1.135v-1.711c0-.212-.086-.416-.238-.566-.152-.15-.359-.234-.575-.234s-.422.084-.575.234c-.152.15-.238.353-.238.566v1.714c-.698.172-1.318.57-1.759,1.13-.442.559-.681,1.248-.679,1.957v.8h-2.438c-.216,0-.422.084-.575.234-.153.15-.238.354-.238.566v1.6h-1.625v-1.6c0-.212-.086-.416-.238-.566-.152-.15-.359-.234-.575-.234h-3.251c-.216,0-.422.084-.575.234-.152.15-.238.354-.238.566v1.6h-1.625v-1.6c0-.212-.086-.416-.238-.566-.152-.15-.359-.234-.575-.234h-3.251c-.215,0-.422.084-.575.234-.152.15-.238.354-.238.566v1.6h-1.625v-4.307l2.801-1.379c.135-.066.248-.168.328-.294.079-.126.122-.271.122-.42v-6.4c0-.149-.042-.294-.122-.421-.079-.126-.193-.228-.328-.295l-2.801-1.382v-1.663l1.489-2.198c.089-.131.136-.284.136-.442v-4.8c0-.212-.086-.416-.238-.566-.152-.15-.359-.234-.575-.234h-1.625v-10.4c0-.212-.086-.416-.238-.566l-1.625-1.6c-.152-.15-.359-.234-.575-.234s-.422.084-.575.234l-1.625,1.6c-.152.15-.238.353-.238.566v2.4h-1.625v-2c0-.743-.3-1.455-.833-1.98-.533-.525-1.257-.82-2.011-.82s-1.478.295-2.011.82c-.533.525-.833,1.237-.833,1.98v2h-2.438v-2.4h-1.625v2.4h-1.625v-2.4c0-.212-.086-.416-.238-.566l-1.625-1.6c-.152-.15-.359-.234-.575-.234s-.422.084-.575.234l-1.625,1.6c-.152.15-.238.353-.238.566v10.4h-1.625c-.216,0-.422.084-.575.234-.152.15-.238.353-.238.566v4.8c0,.158.047.312.137.444l1.489,2.196v7.071c-.696.177-1.313.576-1.754,1.135s-.682,1.246-.684,1.954v7.2c0,.173.057.341.163.48l2.276,2.984v5.145l-1.54,3.031c-.062.122-.092.258-.086.394.006.137.047.269.12.386.073.116.175.212.296.279.121.066.258.101.397.101h47.136c.124,0,.245-.028.356-.081.111-.053.208-.131.284-.227.076-.096.129-.207.154-.326.026-.119.023-.242-.006-.36l-.788-3.107v-2.035l2.276-2.984c.105-.138.162-.307.162-.48v-7.2c-.002-.708-.243-1.395-.684-1.954Zm-21.259,6.754c.216,0,.422-.084.575-.234.152-.15.238-.354.238-.566v-1.6h1.625v1.6c0,.212.086.416.238.566.152.15.359.234.575.234h3.251c.216,0,.422-.084.575-.234.152-.15.238-.354.238-.566v-1.6h1.625v1.6c0,.212.086.416.238.566.152.15.359.234.575.234h3.251c.216,0,.422-.084.575-.234.152-.15.238-.354.238-.566v-1.6h1.625v4.8c0,.173.057.341.163.48l2.276,2.984v1.336h-26.006v-1.336l2.276-2.984c.106-.138.163-.307.163-.48v-4.8h1.625v1.6c0,.212.086.416.238.566.152.15.359.234.575.234h3.251Zm-7.314-2.4v4h-3.251v-4h3.251Zm-3.251-1.6v-.8c0-.424.171-.831.476-1.131.305-.3.718-.469,1.149-.469s.844.169,1.149.469.476.707.476,1.131v.8h-3.251Zm9.752-4.494l-1.625.8v-2.706h1.625v1.906Zm0-5.41v1.905h-1.625v-2.707l1.625.802Zm-5.689-22.56l.813-.8.813.8v2.065h-1.625v-2.065Zm-3.251,3.665h4.876v2.4h-2.438v1.6h2.438v2.4h-4.876v-6.4Zm-4.064-3.6c0-.318.128-.623.357-.849.229-.225.539-.352.862-.352s.633.126.862.352c.229.225.357.53.357.849v2h-2.438v-2Zm0,3.6h2.438v6.4h-2.438v-6.4Zm-10.565-3.671l.813-.8.813.8v2.071h-1.625v-2.071Zm0,3.671h8.94v6.4h-8.94v-6.4Zm-2.438,8h3.251v1.6h1.625v-1.6h2.438v1.6h1.625v-1.6h2.438v1.6h1.625v-1.6h2.438v1.6h1.625v-1.6h2.438v1.6h1.625v-1.6h3.251v3.2H8.838v-3.2Zm-.813,16.8c0-.424.171-.831.476-1.131.305-.3.718-.469,1.149-.469s.845.169,1.149.469c.305.3.476.707.476,1.131v.8h-3.251v-.8Zm0,6.4v-4h3.251v4h-3.251Zm2.438,1.6l-.813,1.064-.813-1.064h1.625Zm15.441,7.899l-.634,2.501h-15.931l.813-1.6h12.501c.215,0,.422-.084.575-.234.152-.15.238-.353.238-.566s-.086-.416-.238-.566c-.152-.15-.359-.234-.575-.234h-12.191v-4h10.565c.216,0,.422-.084.575-.234.152-.15.238-.354.238-.566s-.086-.416-.238-.566c-.152-.15-.359-.234-.575-.234h-9.752l1.463-1.92c.106-.139.163-.307.163-.48v-7.2c.002-.709-.237-1.397-.679-1.957-.442-.559-1.061-.957-1.759-1.13v-7.314c0-.158-.048-.312-.137-.443l-.783-1.157h2.113l1.382,2.044c.131.161.316.272.523.313.206.041.42.008.605-.091.09-.057.168-.131.229-.218.061-.087.103-.185.124-.289.021-.104.021-.21-.001-.314-.022-.103-.065-.201-.126-.288l-.783-1.157h2.773l.627,1.854c.073.198.22.36.411.454.191.094.411.112.616.052.204-.067.373-.212.47-.401.096-.19.112-.41.044-.611l-.456-1.347h2.124v1.6c0,.212.086.416.238.566.152.15.359.234.575.234s.422-.084.575-.234c.152-.15.238-.354.238-.566v-1.6h2.124l-.456,1.347c-.068.201-.052.421.044.611.096.19.265.334.47.401.101.039.209.056.317.051.108-.005.214-.032.311-.08.097-.048.182-.115.251-.197.069-.082.119-.178.148-.28l.627-1.854h2.773l-.783,1.157c-.119.176-.163.392-.121.6.042.208.167.391.346.509.087.064.186.109.292.133.106.023.215.025.322.004.106-.021.207-.064.295-.125.089-.062.163-.141.218-.233l1.384-2.044h2.113l-.784,1.157c-.09.131-.138.285-.139.443v3.2h-2.438v1.6h2.438v9.6h-1.625v-.8c.002-.709-.237-1.397-.679-1.957-.442-.559-1.061-.957-1.759-1.13v-1.714c0-.212-.086-.416-.238-.566-.152-.15-.359-.234-.575-.234s-.422.084-.575.234c-.152.15-.238.353-.238.566v1.714c-.696.177-1.312.576-1.754,1.134s-.682,1.245-.685,1.952v7.2c0,.173.057.341.162.48l2.276,2.984v2.035Zm0-4.699h1.625l-.813,1.064-.813-1.064Zm1.041,7.2l.406-1.6h26.362l.406,1.6h-27.175Zm27.403-6.136l-.813-1.064h1.625l-.813,1.064Zm1.625-2.664h-3.251v-4h3.251v4Zm0-5.6h-3.251v-.8c0-.424.171-.831.476-1.131s.718-.469,1.149-.469.844.169,1.149.469c.305.3.476.707.476,1.131v.8Zm-17.067,7.198h-1.625v1.6h1.625v-1.6Zm4.876,0h-1.625v1.6h1.625v-1.6Zm4.876,0h-1.625v1.6h1.625v-1.6Zm-26.819-19.198c-.216,0-.422.084-.575.234-.152.15-.238.353-.238.566v3.2h1.625v-3.2c0-.212-.086-.416-.238-.566-.152-.15-.359-.234-.575-.234Zm10.565,20.798h1.625v-1.6h-1.625v1.6Zm-17.879-4.8h2.438v-1.6h-2.438v1.6Zm7.314-9.598h-3.251c-.216,0-.422.084-.575.234-.152.15-.238.354-.238.566v5.6c0,.212.086.416.238.566.152.15.359.234.575.234h3.251c.216,0,.422-.084.575-.234.152-.15.238-.353.238-.566v-5.6c0-.212-.086-.416-.238-.566-.152-.15-.359-.234-.575-.234Zm-.813,5.6h-1.625v-4h1.625v4Zm-5.689-25.602h3.251v-1.6h-3.251v1.6Zm4.063,14.402c0-.212-.086-.416-.238-.566-.152-.15-.359-.234-.575-.234s-.422.084-.575.234c-.152.15-.238.353-.238.566v3.2h1.625v-3.2Z"/>
</svg>