<?xml version="1.0" encoding="UTF-8"?><svg id="Layer_1" xmlns="http://www.w3.org/2000/svg" width="64" height="64" viewBox="0 0 64 64"><defs><style>.cls-1{fill:#009cde;stroke-width:0px;}</style></defs><path class="cls-1" d="m12.181,32.826h4.955c.219,0,.429-.087.584-.242.155-.155.242-.365.242-.584v-4.129c0-.876-.348-1.716-.968-2.336-.619-.619-1.46-.967-2.336-.967s-1.716.348-2.336.967c-.619.62-.967,1.46-.967,2.336v4.129c0,.219.087.429.242.584.155.155.365.242.584.242Zm.826-4.955c0-.438.174-.858.484-1.168.31-.31.73-.484,1.168-.484s.858.174,1.168.484.484.73.484,1.168v3.303h-3.303v-3.303Zm44.529-6.099c-.042-.101-.105-.192-.183-.269-.075-.077-.165-.138-.264-.179-.099-.041-.206-.061-.314-.06v-4.129c0-.219-.087-.429-.242-.584-.155-.155-.365-.242-.584-.242h-.892c-.137-.941-.505-1.834-1.069-2.6-.565-.766-1.309-1.38-2.168-1.789v-.566c-.002-.511-.162-1.008-.458-1.424-.296-.416-.713-.731-1.194-.901v-2.629h-1.652v2.629c-.481.17-.898.485-1.194.901-.296.416-.456.914-.458,1.424v.566c-.859.409-1.603,1.024-2.168,1.789-.565.766-.932,1.659-1.069,2.6h-.892c-.219,0-.429.087-.584.242-.155.155-.242.365-.242.584v4.288h-.165c-.217.002-.425.091-.578.245-.153.155-.239.363-.239.581v8.925h-.67v-1.652c0-.219-.087-.429-.242-.584l-1.652-1.652c-.155-.155-.365-.242-.584-.242s-.429.087-.584.242l-1.652,1.652c-.155.155-.242.365-.242.584v1.652h-.826v-1.652c0-.219-.087-.429-.242-.584l-1.652-1.652c-.155-.155-.365-.242-.584-.242s-.429.087-.584.242l-1.652,1.652c-.155.155-.242.365-.242.584v1.652h-.826v-1.652c0-.219-.087-.429-.242-.584l-1.652-1.652c-.155-.155-.365-.242-.584-.242s-.429.087-.584.242l-1.652,1.652c-.155.155-.242.365-.242.584v1.652h-.826v-9.084c0-.219-.087-.429-.242-.584-.155-.155-.365-.242-.584-.242v-4.129c0-.219-.087-.429-.242-.584-.155-.155-.365-.242-.584-.242h-.892c-.137-.941-.505-1.834-1.069-2.6-.565-.766-1.309-1.38-2.168-1.789v-.566c-.002-.511-.162-1.008-.458-1.424-.296-.416-.713-.731-1.194-.901v-2.629h-1.652v2.629c-.481.17-.898.485-1.194.901-.296.416-.456.914-.458,1.424v.566c-.859.409-1.603,1.024-2.168,1.789s-.932,1.659-1.069,2.6h-.892c-.219,0-.429.087-.584.242-.155.155-.242.365-.242.584v4.129c-.219,0-.429.087-.584.242s-.242.365-.242.584v34.684c0,.219.087.429.242.584.155.155.365.242.584.242h49.548c.219,0,.429-.087.584-.242.155-.155.242-.365.242-.584V22.09c0-.109-.022-.218-.065-.318Zm-38.748-3.811h1.652v3.303h-1.652v-3.303Zm-4.955-6.607c0-.219.087-.429.242-.584s.365-.242.584-.242.429.087.584.242c.155.155.242.365.242.584v.066c-.273-.042-.549-.064-.826-.066-.276.002-.552.024-.826.066v-.066Zm-1.785,2.584c.737-.602,1.659-.931,2.611-.932.951.001,1.874.33,2.611.932.737.602,1.244,1.439,1.436,2.371h-.743c-.219,0-.429.087-.584.242-.155.155-.242.365-.242.584v.826h-4.955v-.826c0-.219-.087-.429-.242-.584s-.365-.242-.584-.242h-.743c.192-.932.699-1.769,1.436-2.371Zm5.088,5.674v1.652h-4.955v-1.652h4.955Zm-8.258-1.652h1.652v3.303h-1.652v-3.303Zm3.303,37.987h-1.652v-16.516h1.652v16.516Zm-1.42-18.168l.413-1.652h.362l.413,1.652h-1.188Zm8.026,18.168h-1.652v-16.516h1.652v16.516Zm-1.42-18.168l.413-1.652h.362l.413,1.652h-1.188Zm3.897,18.168h-.826v-17.342c0-.068-.008-.135-.025-.201l-.826-3.303c-.045-.179-.148-.337-.293-.45-.145-.113-.324-.175-.508-.175h-1.652c-.184,0-.363.062-.508.175-.145.113-.248.272-.293.45l-.826,3.303c-.016.066-.025.133-.025.201v17.342h-1.652v-17.342c0-.068-.008-.135-.025-.201l-.826-3.303c-.045-.179-.148-.337-.293-.45-.145-.113-.324-.175-.508-.175h-1.652c-.184,0-.363.062-.508.175-.145.113-.248.272-.293.45l-.826,3.303c-.016.066-.025.133-.025.201v17.342h-.826V22.916h13.213v33.032Zm15.69-26.084l.826-.826.826.826v1.31h-1.652v-1.31Zm-5.781,0l.826-.826.826.826v1.31h-1.652v-1.31Zm-5.781,0l.826-.826.826.826v1.31h-1.652v-1.31Zm8.258,26.084h-3.303v-4.129h3.303v4.129Zm4.129,0h-2.477v-4.129h.826v-1.652h-8.258v1.652h.826v4.129h-2.477v-14.039c0-1.533.609-3.003,1.693-4.087s2.554-1.693,4.088-1.693,3.003.609,4.088,1.693,1.693,2.554,1.693,4.087v14.039Zm3.145,0h-1.493v-14.039c0-1.971-.783-3.862-2.177-5.255s-3.284-2.177-5.255-2.177-3.862.783-5.255,2.177c-1.394,1.394-2.177,3.284-2.177,5.255v14.039h-1.652v-23.122h18.009v23.122Zm12.546-37.987h1.652v3.32l-1.652.018v-3.339Zm-4.955-6.607c0-.219.087-.429.242-.584.155-.155.365-.242.584-.242s.429.087.584.242c.155.155.242.365.242.584v.066c-.547-.088-1.105-.088-1.652,0v-.066Zm-1.785,2.584c.737-.602,1.659-.931,2.611-.932.951.001,1.873.33,2.611.932.737.602,1.244,1.439,1.436,2.371h-.743c-.219,0-.429.087-.584.242-.155.155-.242.365-.242.584v.826h-4.955v-.826c0-.219-.087-.429-.242-.584-.155-.155-.365-.242-.584-.242h-.743c.192-.932.699-1.769,1.436-2.371Zm5.088,5.674v1.704l-4.955.053v-1.757h4.955Zm-8.258-1.652h1.652v3.426l-1.652.018v-3.444Zm3.303,37.987h-1.652v-16.516h1.652v16.516Zm-1.419-18.168l.413-1.652h.362l.413,1.652h-1.188Zm8.026,18.168h-1.652v-16.516h1.652v16.516Zm-1.42-18.168l.413-1.652h.362l.413,1.652h-1.188Zm3.897,18.168h-.826v-17.342c0-.068-.008-.135-.025-.201l-.826-3.303c-.045-.179-.148-.337-.293-.45-.145-.113-.324-.175-.508-.175h-1.652c-.184,0-.363.062-.508.175-.145.113-.248.272-.293.45l-.826,3.303c-.016.066-.025.133-.025.201v17.342h-1.652v-17.342c0-.068-.008-.135-.025-.201l-.826-3.303c-.045-.179-.148-.337-.293-.45-.145-.113-.324-.175-.508-.175h-1.652c-.184,0-.363.062-.508.175-.145.113-.248.272-.293.45l-.826,3.303c-.017.066-.025.133-.025.201v17.342h-.984V23.068l13.372-.143v33.023Zm-9.084-23.122h4.955c.219,0,.429-.087.584-.242s.242-.365.242-.584v-4.129c0-.876-.348-1.716-.967-2.336-.619-.619-1.46-.967-2.336-.967s-1.716.348-2.336.967c-.62.62-.968,1.46-.968,2.336v4.129c0,.219.087.429.242.584.155.155.365.242.584.242Zm.826-4.955c0-.438.174-.858.484-1.168s.73-.484,1.168-.484.858.174,1.168.484c.31.31.484.73.484,1.168v3.303h-3.303v-3.303Zm-15.69,9.91c-.817,0-1.615.242-2.294.696-.679.454-1.208,1.099-1.521,1.853-.313.754-.394,1.585-.235,2.386.159.801.553,1.537,1.13,2.114.577.578,1.313.971,2.114,1.13.801.159,1.631.078,2.386-.235.755-.312,1.399-.842,1.853-1.521.454-.679.696-1.477.696-2.294-.001-1.095-.437-2.144-1.211-2.918s-1.823-1.21-2.918-1.211Zm1.752,5.881c-.465.465-1.095.726-1.752.726-.49,0-.969-.145-1.376-.417-.407-.272-.725-.659-.912-1.112-.188-.453-.237-.951-.141-1.431.096-.48.331-.922.678-1.268.346-.346.788-.583,1.268-.678.48-.096.979-.047,1.431.141.453.188.84.505,1.112.912.272.407.418.886.418,1.376,0,.657-.261,1.287-.726,1.752Zm-5.881,4.855h8.258v-1.652h-8.258v1.652Zm3.303-5.781h1.652v-1.652h-1.652v1.652Z"/></svg>