<svg width="119" height="26" viewBox="0 0 119 26" fill="none" xmlns="http://www.w3.org/2000/svg">
<path d="M0 25.52H3.66205V0.383183H0V25.52Z" fill="#1E2D23"/>
<path d="M20.1304 0.383183V18.2395L12.4878 0.383183H8.58696V25.52H12.1296V7.81695L19.7721 25.52H23.673V0.383183H20.1304Z" fill="#1E2D23"/>
<path d="M35.2969 25.9032V22.6078C33.1873 22.3013 32.0728 20.8452 32.0728 18.5078V7.43376C32.0728 5.09634 33.1873 3.60193 35.2969 3.29538V0C30.998 0.344866 28.4107 3.02715 28.4107 7.16553V18.7377C28.4107 22.8761 30.9582 25.5584 35.2969 25.9032ZM37.2474 0V3.29538C39.357 3.60193 40.4716 5.05802 40.4716 7.5104V10.1927H44.1336V7.74031C44.1336 2.95051 41.7851 0.306545 37.2474 0ZM37.2474 22.6078V25.9032C41.7851 25.5967 44.1336 22.991 44.1336 18.2012V15.7872H40.4716V18.3928C40.4716 20.8452 39.357 22.3013 37.2474 22.6078Z" fill="#1E2D23"/>
<path d="M58.1829 0.383183H53.8441L47.1171 24.9836V25.52H50.8588L52.2917 19.9256H59.6954L61.1284 25.52H64.8701V24.9836L58.1829 0.383183ZM53.1276 16.7451L55.9936 5.47953L58.8595 16.7451H53.1276Z" fill="#1E2D23"/>
<path d="M68.2942 25.52H71.9961V15.0208H76.3746C81.2706 15.0208 83.8579 12.6451 83.8579 8.08518V7.31881C83.8579 2.83556 81.2308 0.383183 76.3746 0.383183H68.2942V25.52ZM71.9961 11.8021V3.64024H76.096C78.8425 3.64024 80.1959 4.90475 80.1959 7.31881V8.08518C80.1959 10.7291 78.6435 11.8021 76.096 11.8021H71.9961Z" fill="#1E2D23"/>
<path d="M91.085 25.52H94.747V3.64024H100.559V0.383183H85.2735V3.64024H91.085V25.52Z" fill="#1E2D23"/>
<path d="M110.163 25.9032V22.6078C108.133 22.263 106.979 20.8069 106.979 18.5078V7.43376C106.979 5.09634 108.133 3.64024 110.163 3.29538V0C105.904 0.344866 103.317 3.02715 103.317 7.16553V18.7377C103.317 22.8761 105.864 25.5584 110.163 25.9032ZM112.154 22.6078V25.9032C116.413 25.5584 119 22.8761 119 18.7377V7.16553C119 3.06547 116.413 0.344866 112.154 0V3.29538C114.184 3.64024 115.338 5.09634 115.338 7.43376V18.5078C115.338 20.8069 114.184 22.263 112.154 22.6078Z" fill="#1E2D23"/>
</svg>
