<?xml version="1.0" encoding="UTF-8"?><svg id="Layer_1" xmlns="http://www.w3.org/2000/svg" width="190" height="42" viewBox="0 0 190 42"><defs><style>.cls-1{fill:#2444e6;}.cls-1,.cls-2{stroke-width:0px;}.cls-2{fill:#e3665f;}</style></defs><path class="cls-2" d="m134.756,25.668c-.366-.257-.814-.368-1.258-.314-.44.062-.819.314-1.133.691l-.189.189c-1.507,1.945-3.83,3.083-6.29,3.083-2.581,0-4.972-1.258-6.481-3.334-.254-.389-.67-.643-1.131-.692-.444-.054-.892.057-1.258.314-.389.255-.643.67-.692,1.133-.054.444.057.892.314,1.258,2.151,2.961,5.588,4.715,9.248,4.718,3.524,0,6.794-1.635,8.996-4.405.063-.125.189-.187.252-.314.566-.691.44-1.761-.377-2.328"/><path class="cls-1" d="m1.824,0c-.504,0-.943.189-1.258.504C.203.847-.002,1.325,0,1.824v28.752C0,31.078.189,31.519.504,31.833c.251.252.629.567,1.32.567.44,0,.881-.189,1.259-.504.314-.314.504-.692.566-1.195V1.886c0-.504-.189-.943-.504-1.258-.377-.438-.818-.628-1.321-.628m40.578,8.493c-1.762,0-3.586.504-5.411,1.511-1.195.691-2.201,1.447-2.957,2.326-.629-1.006-1.383-1.886-2.39-2.516-1.429-.909-3.088-1.389-4.782-1.383-1.636,0-3.209.44-4.718,1.32-.692.44-1.385.881-1.95,1.447v-.691c0-.44-.189-.881-.504-1.196-.311-.37-.774-.579-1.258-.566-.439,0-.881.189-1.258.504-.329.335-.511.788-.504,1.258v20.067c0,.44.189.881.504,1.196.313.377.754.566,1.321.566.439,0,.881-.189,1.258-.504.329-.335.511-.788.504-1.258v-12.771c0-1.007.314-1.951.943-2.831.634-.94,1.501-1.699,2.516-2.202.96-.542,2.044-.824,3.146-.818,1.699,0,2.893.504,3.649,1.511.818,1.068,1.258,2.578,1.258,4.34v12.771c0,.44.189.881.504,1.196.314.377.754.566,1.32.566.503,0,.943-.189,1.321-.566.318-.317.499-.747.504-1.196v-12.516c0-1.069.314-2.077.943-2.958.696-.947,1.6-1.722,2.643-2.264,1.069-.566,2.202-.881,3.272-.881,1.761,0,3.02.504,3.836,1.573.882,1.133,1.323,2.643,1.323,4.467v12.519c0,.44.189.881.504,1.196.314.377.754.566,1.32.566.503,0,.943-.189,1.321-.566.318-.317.498-.746.504-1.195v-12.645c0-2.706-.692-4.97-2.139-6.669-1.637-1.762-3.775-2.706-6.543-2.706m36.614,1.887c-1.699-1.071-3.586-1.573-5.661-1.573-1.95,0-3.712.439-5.347,1.321-.819.439-1.511,1.006-2.202,1.699v-1.258c0-.44-.189-.881-.504-1.196-.313-.377-.754-.566-1.321-.566-.503,0-.943.189-1.321.566-.189.315-.377.692-.377,1.196v29.065c0,.439.189.881.504,1.258.314.315.754.504,1.258.504s.943-.189,1.321-.567c.318-.317.498-.746.504-1.195v-10.004c.691.691,1.383,1.32,2.201,1.824,1.594.961,3.423,1.462,5.284,1.447,1.977.009,3.916-.536,5.599-1.572,1.691-1.06,3.062-2.561,3.964-4.341.943-1.824,1.447-3.901,1.447-6.103,0-2.264-.504-4.34-1.383-6.102-1.007-1.95-2.329-3.397-3.964-4.405m1.825,10.443c0,1.635-.315,3.145-1.007,4.467-.691,1.321-1.572,2.328-2.705,3.083-1.133.691-2.454,1.069-3.837,1.069-1.374.012-2.725-.359-3.901-1.071-1.133-.691-2.076-1.761-2.705-3.019-.671-1.415-1.015-2.963-1.007-4.53,0-1.699.315-3.208,1.007-4.53.629-1.258,1.51-2.266,2.705-3.02,1.176-.712,2.526-1.082,3.901-1.069,1.354-.012,2.684.358,3.836,1.069,1.134.756,2.077,1.762,2.706,3.02.629,1.383,1.007,2.831,1.007,4.53m24.598-12.769c-2.139.065-4.027.692-5.536,2.014-.623.486-1.174,1.058-1.637,1.699v-1.258c0-.44-.189-.881-.504-1.196-.314-.377-.754-.566-1.32-.566-.504,0-.881.189-1.258.504-.329.335-.511.788-.504,1.258v20.067c0,.44.189.881.504,1.196.313.377.754.566,1.321.566.439,0,.88-.189,1.258-.504.329-.335.511-.788.504-1.258v-10.883c0-1.195.376-2.454,1.006-3.774.691-1.321,1.572-2.454,2.705-3.272,1.007-.818,2.076-1.195,3.02-1.195.252,0,.504.062.754.125.504.189.756.252.943.252.504,0,.944-.189,1.259-.567.252-.314.439-.754.439-1.195-.062-.818-.439-2.014-2.955-2.014m53.726,12.017c-1.006-.504-2.328-.881-3.837-1.321-1.95-.504-3.46-1.069-4.405-1.699-.818-.504-1.258-1.195-1.32-2.201,0-1.069.377-1.825,1.195-2.391.881-.629,2.013-.943,3.397-.943,2.139,0,3.837.691,5.159,2.201.294.357.732.565,1.195.566.315,0,.629-.062.944-.251l.125-.065.127-.125c.377-.377.566-.817.566-1.32,0-.504-.189-.944-.566-1.259-1.069-1.069-2.202-1.886-3.524-2.39-1.24-.499-2.564-.755-3.901-.756-2.328,0-4.34.629-5.85,1.887-1.573,1.321-2.391,2.958-2.391,4.97,0,2.076.818,3.712,2.391,4.844,1.447,1.07,3.397,1.888,5.85,2.454,1.7.439,2.958.943,3.901,1.51.756.504,1.133,1.195,1.133,2.264,0,1.007-.44,1.762-1.321,2.391-1.006.692-2.202,1.007-3.586,1.007-2.768,0-4.844-1.071-6.354-3.272-.321-.442-.838-.701-1.385-.692-.44,0-.818.125-1.133.439-.566.442-.629.945-.629,1.259,0,.44.127.818.44,1.321l.063.063c2.264,2.83,5.284,4.278,8.87,4.278,2.454,0,4.468-.567,6.04-1.762,1.637-1.258,2.454-2.958,2.454-5.034,0-1.51-.377-2.768-1.069-3.711-.567-1.007-1.51-1.762-2.579-2.266m29.882,2.202c-.69-.961-1.624-1.721-2.705-2.202-1.006-.504-2.328-.881-3.837-1.321-1.95-.504-3.46-1.069-4.405-1.699-.818-.504-1.258-1.195-1.32-2.201,0-1.069.377-1.825,1.195-2.391.881-.629,2.013-.943,3.397-.943,2.139,0,3.837.691,5.159,2.201.294.357.732.565,1.195.566.315,0,.629-.062.944-.251l.125-.065.127-.125c.377-.377.566-.817.566-1.32s-.189-.944-.566-1.259c-1.069-1.069-2.202-1.886-3.524-2.39-1.24-.499-2.564-.755-3.901-.756-2.328,0-4.34.629-5.85,1.887-1.573,1.321-2.391,2.958-2.391,4.97,0,2.076.818,3.712,2.391,4.844,1.447,1.07,3.397,1.888,5.85,2.454,1.7.439,2.958.943,3.901,1.51.756.504,1.133,1.195,1.133,2.264,0,1.007-.44,1.762-1.321,2.391-1.006.692-2.202,1.007-3.586,1.007-2.768,0-4.844-1.071-6.354-3.272-.321-.442-.838-.701-1.385-.692-.44,0-.818.125-1.133.439-.566.442-.629.945-.629,1.259,0,.44.127.818.44,1.321l.063.063c2.264,2.83,5.284,4.278,8.87,4.278,2.454,0,4.468-.567,6.04-1.762,1.637-1.258,2.454-2.958,2.454-5.034.063-1.572-.252-2.83-.944-3.774m-57.941-12.959c-1.573-.819-3.272-1.196-5.159-1.196-1.825,0-3.586.44-5.159,1.195-1.642.814-3.017,2.08-3.963,3.65-1.007,1.635-1.573,3.648-1.637,5.976,0,.439.189.88.504,1.258.252.251.566.439.881.504h18.684c.315-.065.629-.252.881-.504.315-.378.504-.756.504-1.258-.063-2.329-.629-4.341-1.635-5.976-.939-1.553-2.289-2.816-3.901-3.65m-12.206,7.989c.19-1.069.568-2.012,1.196-2.768.692-.943,1.573-1.635,2.643-2.139,1.019-.496,2.138-.754,3.272-.754,1.131,0,2.201.251,3.27.754s1.95,1.195,2.643,2.139c.566.756,1.006,1.699,1.195,2.768h-14.218Z"/></svg>