<svg width="544" height="117" viewBox="0 0 544 117" fill="none" xmlns="http://www.w3.org/2000/svg">
<path d="M0 114.016V2.47861H22.9271L79.3153 76.0622V2.47861H104.101V114.016H80.8645L24.786 41.0519V114.016H0Z" fill="#1E1E1E"/>
<path d="M232.036 114.016L274.328 55.6137L237.768 2.47861H265.343L288.115 37.1791L310.887 2.47861H338.461L301.902 55.6137L344.193 114.016H314.45L288.115 75.1327L261.78 114.016H232.036Z" fill="#1E1E1E"/>
<path d="M375.893 2.47861V69.4009C375.893 72.809 376.461 76.0105 377.597 79.0055C378.734 82.0005 380.334 84.634 382.4 86.9061C384.465 89.1781 386.892 90.9854 389.681 92.328C392.469 93.5673 395.567 94.187 398.975 94.187C402.384 94.187 405.482 93.5673 408.27 92.328C411.059 90.9854 413.486 89.1781 415.551 86.9061C417.617 84.634 419.217 82.0005 420.353 79.0055C421.489 76.0105 422.057 72.809 422.057 69.4009V2.47861H446.843V70.95C446.843 77.4564 445.604 83.498 443.126 89.0748C440.75 94.6517 437.394 99.454 433.056 103.482C428.822 107.509 423.761 110.711 417.875 113.086C412.091 115.358 405.792 116.494 398.975 116.494C392.159 116.494 385.808 115.358 379.921 113.086C374.138 110.711 369.077 107.509 364.74 103.482C360.505 99.454 357.149 94.6517 354.67 89.0748C352.295 83.498 351.107 77.4564 351.107 70.95V2.47861H375.893Z" fill="#1E1E1E"/>
<path d="M513.457 48.6426C517.278 49.3655 520.945 50.5532 524.456 52.2056C528.071 53.7547 531.272 55.8202 534.061 58.4021C536.849 60.984 539.069 64.0306 540.722 67.542C542.477 70.95 543.355 74.8745 543.355 79.3153C543.355 84.6856 542.323 89.6429 540.257 94.187C538.295 98.7311 535.455 102.656 531.737 105.96C528.019 109.265 523.475 111.847 518.104 113.706C512.837 115.565 506.899 116.494 500.29 116.494C494.3 116.494 488.723 115.462 483.559 113.396C478.395 111.227 473.903 108.336 470.082 104.721C466.364 101.106 463.42 96.9237 461.252 92.1731C459.186 87.4224 458.153 82.4136 458.153 77.1466H482.32C482.836 82.0005 484.695 86.0799 487.897 89.3847C491.201 92.5862 495.332 94.187 500.29 94.187C506.073 94.187 510.669 92.896 514.077 90.3141C517.588 87.7323 519.344 84.066 519.344 79.3153C519.344 76.94 518.724 75.0294 517.485 73.5836C516.349 72.0344 514.645 70.6919 512.373 69.5558C510.101 68.4198 507.312 67.4387 504.008 66.6125C500.806 65.683 497.14 64.7535 493.009 63.8241C488.465 62.7913 484.179 61.4487 480.151 59.7963C476.123 58.1439 472.56 56.1301 469.462 53.7547C466.467 51.3794 464.092 48.6426 462.336 45.5443C460.58 42.4461 459.702 38.8831 459.702 34.8554C459.702 29.6916 460.632 24.9926 462.491 20.7583C464.453 16.524 467.19 12.8578 470.701 9.75951C474.213 6.66125 478.447 4.28593 483.404 2.63352C488.465 0.87784 494.093 0 500.29 0C505.866 0 511.133 0.87784 516.091 2.63352C521.048 4.3892 525.385 6.81617 529.103 9.91442C532.925 13.0127 535.92 16.6789 538.088 20.9132C540.257 25.0442 541.341 29.5883 541.341 34.5455H516.71C515.678 31.0342 513.612 28.1425 510.514 25.8704C507.519 23.4951 504.111 22.3074 500.29 22.3074C495.642 22.3074 491.718 23.4435 488.516 25.7155C485.315 27.8843 483.714 30.6211 483.714 33.9259C483.714 35.8881 484.54 37.6438 486.193 39.1929C487.948 40.7421 490.22 42.1363 493.009 43.3756C495.797 44.5116 498.947 45.5444 502.458 46.4738C506.073 47.3 509.739 48.023 513.457 48.6426Z" fill="#1E1E1E"/>
<path fill-rule="evenodd" clip-rule="evenodd" d="M137.758 30.7703C128.561 32.8616 117.869 35.293 117.869 58.1419C117.869 90.9259 135.967 116.253 169.72 116.253C203.473 116.253 237.375 83.7521 237.375 50.9681C237.375 18.1841 211.377 0.00280762 177.624 0.00280762C154.286 0.00280762 152.848 8.87547 151.531 17.0031C150.943 20.6303 150.379 24.1091 147.903 26.5847C145.472 29.0159 141.756 29.861 137.758 30.7703ZM194.889 84.6454C211.542 73.7955 217.312 53.1355 207.776 38.5001C198.241 23.8647 177.011 20.796 160.358 31.6459C143.705 42.4958 137.936 63.1558 147.471 77.7912C157.006 92.4266 178.236 95.4953 194.889 84.6454Z" fill="#1E1E1E"/>
</svg>
