<?xml version="1.0" encoding="UTF-8"?><svg id="Layer_1" xmlns="http://www.w3.org/2000/svg" width="186" height="48" xmlns:xlink="http://www.w3.org/1999/xlink" viewBox="0 0 186 48"><defs><style>.cls-1{fill:url(#linear-gradient);}.cls-1,.cls-2,.cls-3,.cls-4,.cls-5{stroke-width:0px;}.cls-2{fill:url(#linear-gradient-2);}.cls-3{fill:url(#linear-gradient-3);}.cls-4{fill:#585858;}.cls-5{fill:#45132d;}</style><linearGradient id="linear-gradient" x1="2.344" y1="36.158" x2="36.621" y2="36.158" gradientUnits="userSpaceOnUse"><stop offset="0" stop-color="#0e2e62"/><stop offset="1" stop-color="#4177a9"/></linearGradient><linearGradient id="linear-gradient-2" x1="17.355" y1="21.839" x2="36.939" y2="21.839" gradientUnits="userSpaceOnUse"><stop offset="0" stop-color="#4177a9"/><stop offset="1" stop-color="#0e2e62"/></linearGradient><linearGradient id="linear-gradient-3" x1="0" y1="23.267" x2="24.673" y2="23.267" xlink:href="#linear-gradient-2"/></defs><path class="cls-5" d="m69.66,2.616c-.012.096-.168.084-.456-.06-1.524-.708-3.288-.072-3.996,1.416-.216.456-.228.528-.228,1.26,0,.744.012.816.228,1.26.42.888,1.32,1.56,2.256,1.704.6.084,1.248-.036,1.848-.336l.336-.168v.18c0,.12.228.18.672.18h.684V2.412l-.66.024c-.612.024-.66.036-.684.18Zm-.336,3.48c-.12.204-.348.432-.54.552-.408.252-1.02.312-1.464.144-.444-.156-.924-.72-1.02-1.188-.132-.6,0-1.056.456-1.512.516-.504,1.044-.648,1.668-.432.42.156.708.384.924.756.156.264.192.408.192.828,0,.432-.024.552-.216.852ZM46.2,0h-1.764v8.052h1.944c2.16,0,2.532-.048,3.288-.456,1.152-.6,1.86-1.8,1.944-3.288.06-1.332-.3-2.352-1.116-3.18-.948-.948-1.632-1.116-4.296-1.128Zm3.852,4.716c-.168.792-.6,1.344-1.284,1.668-.432.192-.504.204-1.644.228l-1.188.024V1.404l1.116.048c1.368.036,1.716.132,2.232.588.708.648.996,1.62.768,2.676Zm6.619-2.257l-.598,1.46c-.932,2.251-.976,2.35-1.018,2.35-.022,0-.277-.699-.569-1.553-.285-.848-.584-1.717-.662-1.916l-.135-.378h-1.631l.12.306c.064.164.577,1.439,1.133,2.828h0s1.011,2.527,1.011,2.527l-.221.413c-.285.513-.726.954-1.089,1.082l-.277.1.015.378c.007.206.036.513.057.684l.042.307.263-.042c.505-.086,1.126-.442,1.538-.898.52-.562.719-.962,2.286-4.643l1.303-3.049-.783.022-.783.022Zm34.368,2.841c-.022-.049.086-.263.235-.471.142-.206.598-.834,1.004-1.388l.733-1.018h-1.602s-.263.376-.263.376c-.15.199-.427.591-.62.854l-.349.491-.62-.861-.62-.861h-.777c-.427,0-.777.015-.777.036,0,.015.378.556.841,1.19.463.641.912,1.261.991,1.381l.157.221-.94,1.31c-.52.719-.969,1.354-1.004,1.403-.036.064.12.086.733.086h.783l.591-.819c.321-.449.613-.819.641-.819s.314.37.633.819l.591.819h.77c.42,0,.77-.022.77-.042s-.42-.62-.933-1.325c-.513-.704-.947-1.325-.969-1.381Zm-5.695-2.924c-.492-.144-1.296-.144-1.752,0-1.536.468-2.46,2.184-1.98,3.732.324,1.092,1.188,1.848,2.388,2.1.828.18,1.908-.18,2.592-.852,1.572-1.572.876-4.356-1.248-4.98Zm.636,3.576c-.192.384-.648.78-.996.876-.612.168-1.152.048-1.62-.36-.408-.36-.564-.756-.528-1.368.036-.564.288-.96.816-1.296.288-.18.408-.204.804-.204.732,0,1.272.36,1.548.996.168.396.144,1.008-.024,1.356Zm-5.182-1.644l-.199-.427c-.399-.854-1.232-1.439-2.158-1.518-.577-.042-1.297.171-1.731.52l-.314.25-.328-.243c-.812-.598-1.717-.691-2.693-.285-.049.022-.093-.007-.093-.071,0-.093-.108-.113-.677-.113h-.677v5.627h1.426v-3.598l.228-.277c.556-.677,1.553-.591,1.959.171.157.299.164.37.164,2.009v1.695h1.354v-1.673c0-1.874.022-1.987.449-2.364.456-.399,1.069-.399,1.524,0,.427.378.449.491.449,2.364v1.673h1.361l-.022-1.866-.022-1.874Zm-18.318-1.816c-.577-.221-1.524-.179-2.065.078-.247.119-.378.131-.392.036-.022-.135-.078-.15-.677-.171l-.662-.022v5.634h1.338l.029-1.66.022-1.667.214-.349c.627-1.004,2.009-.919,2.558.164.093.192.113.498.113,1.874v1.638h1.354v-1.667c0-1.46-.015-1.724-.142-2.115-.25-.805-.883-1.474-1.688-1.773Z"/><polygon class="cls-4" points="85.677 14.101 85.662 21.16 85.64 28.219 80.156 21.167 74.672 14.109 71.167 14.109 67.655 14.101 67.655 40.882 75.063 40.882 75.077 33.56 75.099 26.239 80.797 33.56 86.494 40.882 93.011 40.882 93.011 14.104 85.675 14.104 85.677 14.101"/><polygon class="cls-4" points="150.777 14.101 150.762 21.138 150.741 28.182 145.264 21.138 139.779 14.101 132.828 14.101 132.828 40.882 140.164 40.882 140.179 33.539 140.201 26.203 145.906 33.524 151.603 40.846 154.858 40.867 158.113 40.882 158.113 14.104 150.777 14.104 150.777 14.101"/><path class="cls-4" d="m113.347,25.219l-2.222,2.685-2.222,2.686,2.421.022,2.414.014v3.277l-.37.214c-1.567.898-4.153,1.153-6.09.598-2.892-.826-4.78-3.176-5.085-6.34-.228-2.33.498-4.537,2.001-6.112.648-.677,1.197-1.082,2.002-1.467.797-.378,1.574-.569,2.521-.62,2.173-.108,4.174.542,6.105,1.987.627.471.655.484.777.363.284-.292,4.194-5.036,4.194-5.085,0-.093-1.025-.89-1.781-1.388-2.421-1.589-5.079-2.386-8.333-2.5-4.423-.15-8.291,1.283-11.155,4.138-2.072,2.073-3.369,4.665-3.846,7.699-.164,1.054-.164,3.198,0,4.273.334,2.151,1.033,3.974,2.173,5.67,2.18,3.248,5.741,5.349,10.051,5.933.883.121,3.262.142,4.167.042,3.376-.378,6.502-1.596,9.01-3.512l.677-.513.022-6.041.014-6.033-3.718.007h-3.727Z"/><path class="cls-4" d="m182.201,25.212h-3.697l-2.251,2.707-2.258,2.707h4.844l-.015,1.66-.022,1.653-.669.334c-1.867.932-4.631.983-6.639.128-1.595-.677-2.999-2.137-3.654-3.789-.407-1.033-.506-1.617-.506-3.049,0-1.474.108-2.038.569-3.149.685-1.617,1.952-2.948,3.483-3.662,1.467-.677,3.355-.777,5.257-.27.912.235,2.336.962,3.227,1.631.392.292.726.535.748.527.021,0,1.011-1.175,2.2-2.607l2.166-2.607-.172-.135c-2.857-2.308-5.435-3.37-8.967-3.682-4.864-.442-9.217,1.047-12.293,4.202-1.759,1.81-2.835,3.733-3.454,6.183-.691,2.707-.527,5.933.413,8.483.348.954,1.082,2.337,1.645,3.127,2.223,3.12,5.962,5.229,10.093,5.691.932.107,3.191.093,4.189-.022,3.247-.378,6.21-1.56,8.817-3.505l.633-.471v-12.087h-3.687Z"/><polygon class="cls-4" points="122.784 14.101 122.784 40.882 130.191 40.882 130.191 14.104 122.784 14.104 122.784 14.101"/><polygon class="cls-4" points="51.772 34.544 51.772 29.985 59.892 29.985 59.892 24.785 51.772 24.785 51.772 20.368 66.017 20.368 66.017 14.1 44.436 14.1 44.436 40.88 66.23 40.88 66.23 34.541 51.772 34.541 51.772 34.544"/><path class="cls-1" d="m36.423,36.406c-.148.059-1.079.222-2.054.385-6.311,1.034-12.43.414-16.569-1.656-.651-.325-2.039-1.094-3.104-1.714-3.237-1.862-3.163-1.744-3.178-6.016v-3.089l-.828.799c-2.572,2.513-5.542,7.419-7.863,13.035-.548,1.316-.577,1.434-.354,1.641.28.237,11.958,7.021,13.066,7.582.399.192.96.414,1.256.488.857.206,2.542.177,3.37-.045,1.005-.266,1.374-.457,8.129-4.36,4.877-2.824,6.045-3.547,6.651-4.197.709-.754,1.405-1.862,1.625-2.601.088-.296.076-.34-.147-.251Z"/><path class="cls-2" d="m35.95,16.66c-.443-.414-14.794-8.764-16.124-9.4-.636-.28-.96-.34-1.596-.296-.443.045-.828.103-.871.148-.044.045.428.799,1.034,1.685,2.439,3.473,4.951,7.937,5.882,10.479.991,2.661,1.034,2.941,1.108,7.153.059,4.286,0,4.745-.828,5.528-.385.369-4.996,3.059-5.247,3.059-.385,0,.192.325,1.197.651,1.405.457,3.149.813,4.863.976,1.611.163,6.104.074,7.582-.148,1.67-.251,3.444-.606,3.74-.754.237-.134.251-.709.251-8.809,0-8.366-.015-8.691-.296-9.282-.163-.34-.473-.783-.694-.991v.002Z"/><path class="cls-3" d="m10.528,24.582c.991-.917,1.804-1.479,4.389-2.956,1.744-1.005,3.326-1.833,3.518-1.833.414,0,.694.148,3.547,1.802,2.823,1.641,2.69,1.596,2.69,1.034,0-1.139-1.256-4.375-2.853-7.346-1.744-3.221-4.7-7.744-5.099-7.759-.266,0-15.268,8.691-15.741,9.134-.222.206-.532.665-.694,1.005C-.01,18.273-.026,18.495.019,27.126c.045,8.809.045,8.854.385,9.68.177.458.532,1.139.783,1.522.251.369.503.68.562.68s.458-.813.902-1.804c2.542-5.853,5.232-10.141,7.878-12.623Z"/></svg>