<?xml version="1.0" encoding="UTF-8"?><svg id="Layer_1" xmlns="http://www.w3.org/2000/svg" width="170" height="38" viewBox="0 0 170 38"><defs><style>.cls-1{stroke-width:0px;}</style></defs><path class="cls-1" d="m46.833,29.956c.073-.03.143-.067.216-.099.063-.027.12-.054.174-.08,5.121-2.293,8.849-7.283,8.849-14.159,0-9.663-7.307-15.618-15.508-15.618-8.156,0-15.462,5.955-15.462,15.618,0,9.338,6.872,15.217,14.726,15.562,4.111,4.669,7.496,6.3,10.656,6.3,1.784,0,3.093-.305,4.617-.996v-5.238c-1.089.65-2.091.909-3.615.909-1.698,0-3.477-.691-4.653-2.2Zm-15.657-14.378c0-6.752,4.755-9.963,9.388-9.963,4.673,0,9.434,3.211,9.434,9.963s-4.76,9.963-9.434,9.963c-4.633,0-9.388-3.211-9.388-9.963Zm31.391,4.391V.635h5.862v18.911c0,3.926,2.209,5.994,5.692,5.994,3.568,0,5.735-2.068,5.735-5.994V.635h5.863v19.333c0,7.345-5.14,11.271-11.598,11.271-6.415,0-11.555-3.926-11.555-11.271Zm48.216,3.757h-12.235l-2.507,6.839h-6.202L101.395.635h6.797l11.471,29.928h-6.373l-2.506-6.839Zm-10.28-5.318h8.326l-4.163-11.313-4.162,11.313Zm24.722,12.157V.635h5.862v24.356h13.425v5.572h-19.287Zm25.487,0V.635h5.864v24.356h13.424v5.572h-19.288Zm-150.712.007V.587h18.897v5.498H5.874v6.851h11.789v5.202H5.874v6.936h13.023v5.498H0Z"/></svg>