<?xml version="1.0" encoding="UTF-8"?><svg id="Layer_1" xmlns="http://www.w3.org/2000/svg" width="190" height="38" viewBox="0 0 190 38"><defs><style>.cls-1{fill:#063737;stroke-width:0px;}</style></defs><path class="cls-1" d="m35.109,9.484L4.05,30.429c3.443,4.357,8.762,7.163,14.745,7.163,8.421,0,15.547-5.538,17.937-13.171l-23.799,10.996,24.657-16.626c0-3.389-.912-6.56-2.483-9.305ZM18.796,0C10.375,0,3.25,5.537.858,13.168L24.649,2.177,0,18.799c0,3.389.912,6.561,2.481,9.307L33.54,7.161C30.097,2.805,24.779,0,18.796,0Zm145.702,23.044l-3.496-14.36h-4.624l-3.458,14.36-2.97-14.36h-4.849l5.376,20.224h4.248l3.985-14.961,3.985,14.961h4.248l5.376-20.224h-4.849l-2.97,14.36Zm-94.853-10.939v-3.421h-15.638v3.421h10.075l-10.826,13.383v3.421h16.653v-3.421h-11.127l10.864-13.383Zm65.277-3.891c-4.925,0-9.962,3.308-9.962,10.601,0,7.33,5.037,10.563,9.962,10.563s9.962-3.233,9.962-10.563c0-7.293-5.037-10.601-9.962-10.601Zm0,17.518c-2.857,0-5.338-2.218-5.338-6.917,0-4.661,2.481-6.954,5.338-6.954s5.338,2.293,5.338,6.954c0,4.699-2.481,6.917-5.338,6.917Zm-54.181-17.518c-5.714,0-9.924,4.323-9.924,10.413,0,5.827,3.722,10.751,10.225,10.751,5.188,0,8.27-3.308,9.172-6.541h-4.398c-.789,1.917-2.594,2.819-4.962,2.819-2.556,0-5.188-1.842-5.488-5.601h15.074c.414-6.766-3.496-11.841-9.699-11.841Zm-5.376,8.571c.414-3.797,3.27-5.075,5.376-5.075,2.631,0,5.037,1.917,5.15,5.075h-10.526Zm28.231-8.327c-2.857,0-4.962,1.165-6.128,3.27v-2.819h-4.473v20.224h4.473v-10.751c0-3.646,1.241-6.278,4.699-6.278s3.834,2.707,3.834,5.413v11.616h4.473v-12.706c0-4.812-1.992-7.969-6.879-7.969Zm79.186,8.364l-2.857-.564c-1.767-.338-2.707-1.053-2.707-2.406s1.804-2.218,3.759-2.218c2.255,0,3.947.714,4.436,2.556h4.21c-.827-4.06-4.436-5.977-8.383-5.977-4.361,0-8.233,2.293-8.233,5.864,0,3.722,2.669,5.188,6.09,5.902l3.045.601c1.992.414,3.496,1.128,3.496,2.782s-1.692,2.631-4.06,2.631c-2.669,0-4.135-1.165-4.549-3.27h-4.361c.489,3.797,3.797,6.654,8.759,6.654,4.586,0,8.571-2.331,8.571-6.541,0-3.947-3.12-5.225-7.218-6.015Zm-57.726-8.082c-.338-.038-.827-.075-1.165-.075-2.443.038-4.398,1.391-5.488,3.646v-3.609h-4.398v20.224h4.473v-10.601c0-4.06,1.616-5.188,4.436-5.188.677,0,1.391.038,2.143.113v-4.511Z"/></svg>