<?xml version="1.0" encoding="UTF-8"?>
<svg id="Layer_1" xmlns="http://www.w3.org/2000/svg" width="120" height="55" xmlns:xlink="http://www.w3.org/1999/xlink" viewBox="0 0 120 55">
  <defs>
    <style>
      .cls-1 {
        fill: url(#linear-gradient);
      }
    </style>
    <linearGradient id="linear-gradient" x1="-262" y1="829" x2="-142.834" y2="829" gradientTransform="translate(262 856.5) scale(1 -1)" gradientUnits="userSpaceOnUse">
      <stop offset="0" stop-color="#003972"/>
      <stop offset=".5" stop-color="#0070d1"/>
      <stop offset="1" stop-color="#009be1"/>
    </linearGradient>
  </defs>
  <path class="cls-1" d="M115.217,0c-2.154,0-3.91,1.749-3.91,3.934v6.358c-2.194-1.55-4.907-2.464-7.82-2.464-7.54,0-13.684,6.16-13.684,13.75v4.888c0,.556-.439.954-.958.954s-.958-.437-.958-.954v-4.888c0-7.59-6.104-13.75-13.684-13.75-7.54,0-13.684,6.16-13.684,13.75v4.888c0,.556-.439.954-.958.954-.558,0-.956-.436-.957-.952v-12.679c0-2.146-1.755-3.934-3.91-3.934-2.194,0-3.91,1.749-3.91,3.934v7.829c0,3.259-2.633,5.921-5.865,5.921s-5.865-2.623-5.865-5.921v-7.829c0-2.146-1.755-3.934-3.91-3.934-2.194,0-3.91,1.749-3.91,3.934v12.757c0,.556-.439.954-.958.954-.558,0-.958-.437-.958-.954v-4.888c0-7.59-6.104-13.75-13.684-13.75-2.912,0-5.585.914-7.819,2.464V3.934c0-2.146-1.755-3.934-3.909-3.934C1.716,0,0,1.749,0,3.934v25.513c0,2.146,1.755,3.934,3.91,3.934,1.157,0,2.194-.517,2.912-1.272,2.354,2.027,5.466,3.259,8.817,3.259,3.072,0,5.944-1.033,8.258-2.782,1.596,1.709,3.87,2.782,6.383,2.782,2.553,0,4.787-1.073,6.383-2.782,2.274,1.749,5.146,2.782,8.258,2.782,2.114,0,4.069-.477,5.865-1.312v17.009c0,2.146,1.755,3.934,3.91,3.934s3.91-1.749,3.91-3.934v-15.831c.276.031.555.05.838.054h.08c4.867,0,8.817-3.974,8.817-8.822v-4.888c0-3.259,2.633-5.921,5.865-5.921,3.271,0,5.865,2.623,5.865,5.921v4.888c0,4.888,3.95,8.822,8.817,8.822,2.554,0,4.787-1.073,6.383-2.782,2.274,1.749,5.146,2.782,8.258,2.782,3.351,0,6.463-1.232,8.817-3.259.718.795,1.755,1.272,2.913,1.272,2.154,0,3.91-1.749,3.91-3.934V3.934c-.04-2.186-1.795-3.934-3.95-3.934h0ZM15.559,27.5c-3.232,0-5.865-2.623-5.865-5.921,0-3.259,2.633-5.921,5.865-5.921,3.271.079,5.865,2.702,5.865,5.921,0,3.259-2.633,5.921-5.865,5.921ZM103.487,27.5c-3.231,0-5.865-2.623-5.865-5.921,0-3.259,2.634-5.921,5.865-5.921,3.271,0,5.865,2.623,5.865,5.921.04,3.298-2.633,5.921-5.865,5.921ZM82.189,40.208h-.869c-.051,0-.094.018-.131.055-.037.037-.055.08-.055.13v1.739c0,.435-.186.653-.559.653-.193,0-.336-.057-.428-.172-.092-.114-.138-.275-.138-.481v-1.739c0-.05-.018-.094-.055-.13-.037-.037-.081-.055-.131-.055h-.869c-.051,0-.094.018-.131.055-.037.037-.055.08-.055.13v1.89c0,.522.129.914.386,1.175.257.261.616.392,1.076.392.253,0,.454-.039.604-.117.149-.078.273-.176.369-.296v.158c0,.05.018.094.055.13.037.037.08.055.131.055h.8c.051,0,.094-.018.131-.055.037-.037.055-.08.055-.13v-3.203c0-.05-.018-.094-.055-.13-.037-.037-.081-.055-.131-.055h0ZM85.632,40.208h-.414c-.373,0-.679.115-.918.344v-.158c0-.05-.019-.094-.055-.13-.037-.037-.081-.055-.131-.055h-.8c-.051,0-.094.018-.131.055-.037.037-.055.08-.055.13v3.203c0,.05.018.094.055.13.037.037.08.055.131.055h.869c.05,0,.094-.018.131-.055.037-.037.055-.08.055-.13v-1.691c0-.206.054-.363.162-.471.108-.108.266-.162.472-.162h.628c.05,0,.094-.018.131-.055.037-.037.055-.08.055-.13v-.694c0-.05-.019-.094-.055-.13-.037-.037-.081-.055-.131-.055h0ZM69.828,40.411c-.278-.181-.631-.272-1.059-.272-.391,0-.727.079-1.007.237-.281.158-.493.377-.638.656-.145.279-.217.6-.217.962,0,.582.162,1.037.486,1.364.324.328.783.491,1.377.491.386,0,.715-.065.987-.196.271-.131.476-.279.614-.447.138-.167.207-.297.207-.388,0-.046-.014-.082-.041-.11-.028-.027-.064-.041-.11-.041h-.897c-.055,0-.094.006-.117.017-.023.011-.06.038-.11.079-.06.05-.131.089-.214.117-.083.028-.189.041-.317.041-.166,0-.31-.041-.435-.124-.124-.082-.186-.22-.186-.412h2.297c.051,0,.094-.018.131-.055.037-.037.055-.08.055-.131v-.192c0-.311-.065-.61-.193-.897-.129-.286-.332-.52-.611-.701h0ZM68.148,41.624c.018-.156.082-.287.19-.395.108-.108.252-.161.431-.161s.323.054.431.161c.108.108.171.239.19.395h-1.242ZM111.774,40.139c-.3,0-.573.052-.821.155-.249.103-.445.232-.59.385-.145.154-.224.301-.237.443-.005.046.008.082.037.11.03.027.068.041.114.041h.876c.055,0,.101-.005.138-.014.037-.009.074-.032.111-.069.097-.083.22-.124.373-.124.266,0,.4.126.4.378l-.808.137c-.51.087-.885.229-1.124.426-.239.197-.358.449-.358.756,0,.321.109.582.328.784.218.202.52.302.907.302.253,0,.462-.038.627-.113.166-.076.308-.186.428-.333v.192c0,.05.018.094.055.13.037.037.08.055.131.055h.869c.05,0,.094-.018.131-.055.037-.037.055-.08.055-.13v-2.082c0-.421-.137-.756-.411-1.003-.273-.247-.684-.371-1.232-.371h0ZM111.968,42.73c-.139.128-.308.192-.511.192-.221,0-.331-.078-.331-.234,0-.082.037-.152.111-.209.073-.057.174-.097.303-.12l.635-.096c0,.183-.069.339-.207.467ZM73.392,40.139c-.432,0-.757.137-.973.412v-.158c0-.05-.019-.094-.055-.13-.037-.037-.081-.055-.131-.055h-.835c-.051,0-.094.018-.131.055-.037.037-.055.08-.055.13v3.203c0,.05.018.094.055.13.037.037.08.055.131.055h.869c.051,0,.094-.018.131-.055.037-.037.055-.08.055-.13v-1.739c0-.206.049-.366.148-.481.099-.114.247-.172.445-.172.202,0,.353.058.452.175.099.117.148.276.148.478v1.739c0,.05.018.094.055.13.037.037.08.055.131.055h.869c.051,0,.094-.018.131-.055.037-.037.055-.08.055-.13v-1.89c0-.523-.133-.914-.4-1.175-.267-.261-.633-.392-1.097-.392h0ZM78.077,42.717h-.552c-.198,0-.297-.11-.297-.33v-1.113h.78c.051,0,.094-.018.131-.055.037-.037.055-.08.055-.13v-.694c0-.05-.018-.094-.055-.13-.037-.037-.081-.055-.131-.055h-.78v-1.12c0-.05-.018-.094-.055-.13-.037-.037-.081-.055-.131-.055h-.869c-.051,0-.094.018-.131.055-.037.037-.055.08-.055.13v1.12h-.51c-.051,0-.094.018-.131.055-.037.037-.055.08-.055.13v.694c0,.05.018.094.055.13.037.037.08.055.131.055h.51v1.155c0,.417.13.747.39.99.26.243.608.364,1.045.364h.655c.051,0,.094-.018.131-.055.037-.037.055-.08.055-.13v-.694c0-.05-.018-.094-.055-.13-.037-.037-.081-.055-.131-.055ZM66.996,39.122c0-.041-.015-.077-.045-.106-.03-.03-.066-.045-.107-.045h-.869c-.078,0-.139.017-.183.051-.044.034-.072.074-.086.12l-.959,3.024-.959-3.024c-.014-.046-.043-.086-.086-.12-.044-.034-.105-.051-.183-.051h-.869c-.041,0-.077.015-.107.045-.03.03-.045.065-.045.106,0,.018.007.048.021.089l1.408,4.296c.064.183.186.275.365.275h.911c.179,0,.301-.092.366-.275l1.408-4.296c.014-.041.021-.071.021-.089ZM105.957,38.765h-.869c-.05,0-.094.018-.131.055-.037.037-.055.08-.055.13v.694c0,.05.019.094.055.13.037.037.081.055.131.055h.869c.051,0,.094-.018.131-.055.037-.037.055-.08.055-.13v-.694c0-.05-.018-.094-.055-.13-.037-.037-.08-.055-.131-.055ZM109.394,42.717h-.552c-.198,0-.297-.11-.297-.33v-1.113h.78c.05,0,.094-.018.131-.055.037-.037.055-.08.055-.13v-.694c0-.05-.019-.094-.055-.13-.037-.037-.081-.055-.131-.055h-.78v-1.12c0-.05-.018-.094-.055-.13-.037-.037-.08-.055-.131-.055h-.869c-.05,0-.094.018-.131.055-.037.037-.055.08-.055.13v1.12h-.51c-.051,0-.094.018-.131.055-.037.037-.055.08-.055.13v.694c0,.05.018.094.055.13.037.037.08.055.131.055h.51v1.155c0,.417.13.747.39.99.26.243.609.364,1.045.364h.655c.051,0,.094-.018.131-.055.037-.037.055-.08.055-.13v-.694c0-.05-.019-.094-.055-.13-.037-.037-.08-.055-.131-.055h0ZM88.968,40.411c-.278-.181-.632-.272-1.059-.272-.392,0-.727.079-1.008.237-.28.158-.493.377-.638.656-.146.279-.218.6-.218.962,0,.582.163,1.037.487,1.364.324.328.783.491,1.376.491.386,0,.715-.065.987-.196s.476-.279.614-.447c.138-.167.207-.297.207-.388,0-.046-.014-.082-.041-.11-.028-.027-.065-.041-.111-.041h-.897c-.054,0-.094.006-.117.017-.023.011-.06.038-.11.079-.06.05-.131.089-.214.117-.083.028-.188.041-.317.041-.166,0-.311-.041-.435-.124-.124-.082-.186-.22-.186-.412h2.297c.051,0,.094-.018.131-.055.037-.037.055-.08.055-.131v-.192c0-.311-.065-.61-.193-.897-.129-.286-.332-.52-.61-.701h0ZM87.287,41.624c.019-.156.082-.287.19-.395.108-.108.252-.161.432-.161s.323.054.431.161c.108.108.172.239.19.395h-1.242ZM115.189,38.902h-.869c-.051,0-.094.018-.131.055-.037.037-.055.08-.055.13v4.509c0,.05.018.094.055.13.037.037.08.055.131.055h.869c.05,0,.094-.018.131-.055.037-.037.055-.08.055-.13v-4.509c0-.05-.019-.094-.055-.13-.037-.037-.081-.055-.131-.055ZM105.957,40.208h-.869c-.05,0-.094.018-.131.055-.037.037-.055.08-.055.13v3.203c0,.05.019.094.055.13.037.037.081.055.131.055h.869c.051,0,.094-.018.131-.055.037-.037.055-.08.055-.13v-3.203c0-.05-.018-.094-.055-.13-.037-.037-.08-.055-.131-.055ZM93.19,40.222c.135-.146.348-.22.638-.22.276,0,.476.053.6.158.124.105.211.233.262.385.027.078.055.131.083.158.028.027.078.041.152.041h.903c.042,0,.077-.015.107-.045.03-.03.045-.065.045-.107-.005-.307-.103-.59-.294-.849-.191-.259-.449-.464-.776-.615-.326-.151-.687-.227-1.083-.227-.428,0-.802.084-1.122.251-.319.167-.567.392-.741.673-.174.282-.269.594-.283.938-.009.284-.014.511-.014.68,0,.142.005.323.014.543.018.344.115.656.289.938.174.282.421.506.739.673.317.167.689.251,1.118.251.396,0,.757-.076,1.084-.227.326-.151.585-.356.775-.615.192-.259.289-.542.294-.849,0-.041-.015-.077-.045-.107-.03-.03-.066-.045-.106-.045h-.904c-.074,0-.124.014-.152.041-.027.027-.054.08-.083.158-.051.151-.138.28-.262.385-.124.106-.324.158-.6.158-.29,0-.503-.073-.638-.22-.135-.147-.213-.339-.232-.577-.009-.165-.014-.357-.014-.577,0-.229.004-.421.014-.577.019-.238.095-.431.232-.577h0ZM103.829,40.538c-.288-.266-.649-.399-1.087-.399-.188,0-.344.02-.466.058-.122.039-.216.086-.283.141-.066.055-.137.126-.21.213v-.158c0-.05-.019-.094-.055-.13-.037-.037-.081-.055-.131-.055h-.835c-.05,0-.094.018-.131.055-.037.037-.055.08-.055.13v4.509c0,.05.019.094.055.13.037.037.081.055.131.055h.869c.051,0,.094-.018.131-.055.037-.037.055-.08.055-.13v-1.464c.083.11.198.206.346.289.146.083.34.124.579.124.442,0,.805-.134,1.09-.402.285-.268.437-.661.455-1.179.004-.046.007-.14.007-.282,0-.137-.003-.229-.007-.275-.019-.518-.171-.91-.459-1.175ZM103.053,42.188c-.014.179-.07.323-.169.433-.1.11-.25.165-.452.165-.189,0-.334-.054-.435-.162-.101-.108-.161-.237-.18-.388-.009-.092-.014-.172-.014-.241s.004-.149.014-.241c.023-.156.084-.286.183-.392.099-.105.243-.158.432-.158.202,0,.352.055.452.165.099.11.155.254.169.433.009.092.014.156.014.192s-.005.101-.014.192h0ZM98.217,40.139c-.299,0-.573.052-.821.155-.248.103-.445.231-.59.385-.145.154-.224.301-.237.443-.005.046.008.082.037.11.03.027.068.041.114.041h.877c.054,0,.1-.005.138-.014.037-.009.073-.032.11-.069.097-.083.221-.124.373-.124.266,0,.4.126.4.378l-.807.137c-.511.087-.886.229-1.125.426-.239.197-.358.449-.358.756,0,.321.109.582.328.783.219.202.521.302.907.302.253,0,.462-.038.627-.113.166-.076.308-.186.428-.333v.192c0,.05.019.094.055.13.037.037.08.055.131.055h.869c.051,0,.094-.018.131-.055.037-.037.055-.08.055-.13v-2.083c0-.421-.137-.756-.41-1.003-.274-.247-.684-.371-1.232-.371h0ZM98.41,42.73c-.138.128-.308.192-.511.192-.22,0-.331-.078-.331-.234,0-.082.037-.152.111-.209.073-.057.174-.097.303-.12l.635-.096c0,.183-.069.339-.207.467Z"/>
</svg>