<?xml version="1.0" encoding="UTF-8"?><svg id="Layer_1" xmlns="http://www.w3.org/2000/svg" width="140" height="35" viewBox="0 0 140 35"><defs><style>.cls-1{fill:#1f1e1d;fill-rule:evenodd;stroke-width:0px;}</style></defs><path id="Ukio_Copyright_Logo" class="cls-1" d="m34.806,0c0,9.588-7.81,17.371-17.394,17.371S.017,9.571,0,0h6.958c0,5.756,4.69,10.423,10.437,10.423S27.831,5.739,27.831,0h6.975ZM.016,23.451v-6.949c9.545,0,17.33,7.719,17.394,17.254.054-9.525,7.827-17.254,17.394-17.254v6.932c-5.764,0-10.437,4.683-10.437,10.423h-6.957v.017h-6.958C10.453,28.118,5.763,23.451.016,23.451Zm78.131,6.66v3.713h2.984V10.151h-3.018v13.199c0,5.773-3.803,8.549-8.083,8.549-3.769,0-6.446-1.89-6.446-6.301v-15.447h-3.018v15.771c0,5.552,3.718,8.464,8.868,8.464s7.299-2.623,8.237-4.275h.478Zm28.378,2.997v.698h-3.206l-9.822-11.939-4.042,3.525v8.413h-3.018V0h3.018v21.561h.478l12.892-11.411h3.427v.698l-10.642,9.248,10.914,13.012Zm6.939-27.658V1.499h-4.229v3.951h4.229Zm-.614,28.373V10.15h-3.018v23.673h3.018Zm15.724-24.367c7.009,0,11.426,4.973,11.426,12.398s-4.417,12.398-11.426,12.398c-7.059,0-11.476-4.973-11.476-12.398s4.417-12.398,11.476-12.398Zm0,22.31c4.98,0,8.425-3.576,8.425-9.912,0-6.301-3.427-9.912-8.425-9.912-5.031,0-8.424,3.611-8.424,9.912,0,6.336,3.393,9.912,8.424,9.912Z"/></svg>