<?xml version="1.0" encoding="UTF-8"?><svg id="Layer_1" xmlns="http://www.w3.org/2000/svg" width="190" height="46" viewBox="0 0 190 46"><defs><style>.cls-1{stroke-width:0px;}</style></defs><path class="cls-1" d="m100.967,21.981h0c.302-.386.678-.69,1.127-.913.45-.222.977-.333,1.583-.333.621,0,1.157.111,1.607.333.45.222.879.546,1.288.974l1.667-1.528c-.572-.624-1.247-1.088-2.023-1.392-.777-.304-1.591-.456-2.441-.456-.917,0-1.747.152-2.49.456-.744.304-1.382.727-1.913,1.269-.532.542-.944,1.191-1.239,1.947-.294.755-.442,1.586-.442,2.489s.148,1.729.442,2.477c.294.748.711,1.388,1.251,1.922.539.534,1.181.949,1.926,1.244.743.296,1.565.444,2.465.444.85,0,1.657-.14,2.417-.419.76-.279,1.426-.74,1.999-1.38l-1.57-1.577c-.376.427-.785.752-1.227.973-.442.222-.973.333-1.594.333-.572,0-1.088-.102-1.545-.308-.458-.205-.851-.488-1.178-.85-.328-.361-.581-.784-.761-1.269-.18-.484-.27-.998-.27-1.54s.078-1.064.233-1.565c.156-.501.384-.944.687-1.33Zm-6.685-3.179c-.36.107-.691.251-.994.431-.303.181-.576.398-.822.653-.245.255-.442.538-.589.85h-.049v-1.799h-2.208v11.68h2.208v-5.865c0-1.281.286-2.226.858-2.833.572-.608,1.398-.912,2.478-.912.18,0,.359.017.539.05.18.033.36.074.54.123l.098-2.39c-.294-.099-.622-.148-.981-.148s-.72.054-1.079.161Zm-10.376,11.815h2.207v-11.68h-2.207v11.68ZM36.737,0H9.953C4.456,0,0,4.476,0,9.998v25.939c0,5.521,4.456,9.998,9.953,9.998h26.784c5.497,0,9.953-4.476,9.953-9.998V9.998c0-5.521-4.456-9.998-9.953-9.998Zm2.353,37.398h0c0,1.103-.89,1.997-1.988,1.997s-1.988-.894-1.988-1.997c0-.292.066-.566.177-.816l-10.579-9.426c-.359.357-.853.579-1.398.579-.584,0-1.104-.257-1.468-.66l-10.625,9.533c.104.242.163.509.163.79,0,1.103-.89,1.997-1.988,1.997s-1.988-.894-1.988-1.997c0-1.015.756-1.843,1.732-1.971V10.765c-.975-.128-1.732-.956-1.732-1.971,0-1.103.89-1.997,1.988-1.997s1.988.894,1.988,1.997c0,1.015-.756,1.843-1.732,1.971v24.662c.525.069.981.339,1.295.736l10.605-9.517c-.14-.274-.227-.58-.227-.909,0-1.059.823-1.917,1.86-1.984v-12.975c-.95-.062-1.712-.789-1.834-1.726h-9.967v-.515h9.967c.127-.98.952-1.74,1.962-1.74s1.835.76,1.963,1.74h9.864c.127-.98.952-1.74,1.962-1.74,1.098,0,1.988.894,1.988,1.997,0,1.015-.756,1.843-1.732,1.971v24.662c.976.128,1.732.956,1.732,1.971Zm38.463-9.17h0c-.752.41-1.627.615-2.624.615-1.014,0-1.922-.181-2.723-.542-.802-.361-1.48-.854-2.036-1.478-.556-.624-.981-1.347-1.276-2.168-.294-.821-.442-1.692-.442-2.612,0-.986.155-1.91.466-2.772.31-.862.748-1.614,1.313-2.255.564-.641,1.243-1.146,2.036-1.516.793-.37,1.68-.555,2.662-.555.801,0,1.578.172,2.33.518.752.345,1.374.837,1.864,1.478l1.963-1.503c-.703-.92-1.607-1.602-2.711-2.045-1.104-.444-2.228-.665-3.373-.665-1.341,0-2.567.23-3.68.69-1.113.46-2.065,1.105-2.858,1.934-.793.83-1.41,1.816-1.852,2.957-.442,1.142-.662,2.386-.662,3.733,0,1.101.204,2.189.613,3.265.409,1.076,1.002,2.041,1.779,2.895.776.854,1.717,1.544,2.821,2.07,1.104.526,2.342.789,3.716.789.997,0,1.877-.128,2.637-.382.761-.254,1.411-.55,1.951-.887.539-.336.973-.673,1.3-1.01.327-.337.556-.596.687-.776l-1.987-1.503c-.524.74-1.161,1.315-1.913,1.725ZM35.139,9.051h-9.864c-.111.852-.747,1.536-1.577,1.7v13.027c.914.18,1.603.988,1.603,1.958,0,.369-.106.71-.28,1.006l10.547,9.398c.313-.385.762-.647,1.277-.714V10.765c-.891-.117-1.59-.819-1.706-1.714Zm49.87,4.071c-.442,0-.822.16-1.141.48-.319.321-.478.702-.478,1.146s.159.825.478,1.146c.319.32.699.48,1.141.48s.822-.16,1.141-.48c.319-.32.479-.702.479-1.146s-.16-.825-.479-1.146c-.319-.32-.699-.48-1.141-.48Zm56.591.049h-2.355v17.446h10.328v-2.218h-7.973v-15.228Zm-23.426,11.779c0,.674-.081,1.257-.245,1.75-.163.493-.393.899-.687,1.22-.294.32-.637.555-1.03.702-.393.148-.817.222-1.275.222-.344,0-.675-.053-.994-.16-.319-.106-.601-.279-.847-.517-.245-.238-.442-.55-.589-.937-.147-.386-.22-.85-.22-1.392v-6.9h-2.208v7.516c0,.773.114,1.442.343,2.008.229.567.536,1.031.92,1.392.384.362.83.628,1.337.801.506.173,1.046.259,1.619.259.899,0,1.692-.193,2.379-.579s1.169-.891,1.447-1.515h.049v1.799h2.208v-11.68h-2.208v6.013Zm42.929-4.349h0c-.458-.583-1.043-1.056-1.754-1.417-.712-.361-1.583-.542-2.613-.542-.866,0-1.668.156-2.403.468-.737.312-1.371.743-1.902,1.294-.531.55-.948,1.199-1.251,1.947-.303.748-.454,1.557-.454,2.428s.139,1.68.417,2.427c.279.747.675,1.397,1.19,1.947.516.55,1.145.982,1.89,1.293s1.573.468,2.49.468c2.208,0,3.924-.797,5.151-2.39l-1.668-1.281c-.425.526-.892.948-1.398,1.269-.507.32-1.103.48-1.79.48-.507,0-.998-.082-1.472-.246-.475-.164-.891-.394-1.252-.69-.359-.296-.649-.653-.871-1.072-.22-.419-.331-.883-.331-1.392h9.322v-.789c0-.756-.102-1.499-.306-2.23-.205-.731-.537-1.388-.994-1.971Zm-8.022,3.214c0-.394.086-.792.257-1.195.172-.402.413-.768.724-1.096.31-.329.691-.595,1.141-.801.449-.205.944-.308,1.483-.308.556,0,1.043.086,1.459.258.418.173.765.411,1.043.715.278.304.486.661.625,1.072.139.411.217.863.233,1.355h-6.966Zm36.502-1.441c-.279-.747-.675-1.4-1.19-1.959-.516-.558-1.137-.994-1.865-1.306-.728-.312-1.542-.468-2.441-.468-.785,0-1.549.173-2.294.517-.744.345-1.329.83-1.754,1.454h-.049v-1.676h-2.208v18.629h2.208v-8.624h.049c.393.608.957,1.088,1.692,1.441.736.353,1.521.53,2.355.53.899,0,1.713-.156,2.441-.468.728-.312,1.349-.743,1.865-1.293.515-.55.911-1.199,1.19-1.947.278-.747.417-1.556.417-2.427,0-.854-.139-1.655-.417-2.403Zm-2.208,4.041c-.181.501-.433.928-.761,1.281-.327.353-.728.633-1.202.837-.475.206-1.005.308-1.594.308s-1.121-.102-1.595-.308c-.475-.205-.876-.484-1.203-.837s-.58-.78-.76-1.281c-.18-.501-.269-1.047-.269-1.638s.089-1.137.269-1.639c.18-.501.433-.928.76-1.281.327-.353.728-.632,1.203-.837.474-.205,1.005-.308,1.595-.308s1.119.103,1.594.308c.474.206.875.485,1.202.837.328.353.58.78.761,1.281.18.502.269,1.048.269,1.639s-.09,1.138-.269,1.638Zm-12.805,2.082v-5.963c0-.509-.094-.998-.282-1.466-.188-.468-.478-.883-.871-1.244-.394-.361-.896-.649-1.508-.863-.614-.213-1.346-.32-2.195-.32-.818,0-1.636.144-2.453.431-.818.288-1.538.719-2.159,1.294l1.325,1.38c.196-.148.401-.304.614-.468.212-.164.449-.308.711-.431.261-.123.552-.226.871-.308.319-.082.691-.123,1.116-.123.475,0,.883.07,1.227.21.343.14.63.329.858.567.23.238.401.505.516.801.115.296.171.591.171.887v.493h-1.618c-.883,0-1.713.071-2.49.21-.777.14-1.456.37-2.037.69-.58.32-1.039.735-1.374,1.244-.335.509-.502,1.142-.502,1.897,0,.575.105,1.081.318,1.515.212.436.503.801.871,1.097.369.296.798.517,1.288.665.491.148,1.005.222,1.545.222.883,0,1.66-.156,2.33-.468.67-.312,1.252-.846,1.742-1.602h.048c0,.591.025,1.183.074,1.774h1.963c-.033-.312-.057-.641-.073-.986-.017-.345-.025-.723-.025-1.134Zm-2.233-1.564c-.114.403-.303.768-.564,1.097-.262.329-.604.595-1.03.801-.425.206-.941.308-1.545.308-.769,0-1.378-.148-1.828-.444-.45-.296-.674-.78-.674-1.454,0-.46.143-.838.429-1.134.286-.296.653-.525,1.103-.69.45-.164.949-.275,1.496-.333.548-.057,1.084-.086,1.608-.086h1.177v.739h.001c0,.394-.057.792-.172,1.195Zm-37.996,1.909h-.001c-.426,0-.749-.078-.969-.234-.221-.156-.384-.361-.491-.616-.106-.255-.168-.542-.184-.862-.017-.321-.025-.645-.025-.973v-5.298h3.165v-1.922h-3.165v-3.277h-2.207v3.277h-2.551v1.922h2.551v6.086c0,.477.02.949.061,1.417.041.468.172.891.393,1.269.221.378.565.686,1.03.924.467.238,1.124.357,1.975.357.229,0,.552-.029.969-.086.418-.058.756-.16,1.018-.308v-2.021c-.229.132-.482.222-.76.271-.278.05-.548.074-.809.074Zm-10.451,1.774h2.208v-11.68h-2.208v11.68Zm1.103-17.495c-.441,0-.822.16-1.14.48-.319.32-.478.702-.478,1.146s.16.825.478,1.146c.318.32.699.48,1.14.48s.823-.16,1.141-.48c.319-.321.479-.702.479-1.146s-.161-.825-.479-1.146c-.318-.321-.698-.48-1.141-.48Z"/></svg>