<?xml version="1.0" encoding="UTF-8"?><svg id="Layer_1" xmlns="http://www.w3.org/2000/svg" width="190" height="36" viewBox="0 0 190 36"><defs><style>.cls-1{fill:#7ed957;stroke-width:0px;}</style></defs><path class="cls-1" d="m59.973,28.918h6.433V.516h-6.433v28.401Zm-34.886-3.722c1.305-1.348,2.309-2.912,3.012-4.69.703-1.793,1.054-3.729,1.054-5.809,0-2.066-.366-3.988-1.097-5.766-.717-1.793-1.736-3.357-3.055-4.69-1.305-1.334-2.847-2.374-4.626-3.12C18.611.373,16.682,0,14.588,0,12.522,0,10.6.373,8.822,1.119c-1.779.746-3.328,1.786-4.647,3.12s-2.345,2.898-3.077,4.69c-.732,1.779-1.097,3.701-1.097,5.766,0,2.08.344,4.016,1.033,5.809.703,1.779,1.7,3.342,2.991,4.69,1.291,1.334,2.826,2.374,4.604,3.12.552.23,1.13.412,1.719.571-.444.131-.876.28-1.289.462-1.463.66-2.632,1.499-3.507,2.517l2.625,3.098c.029-.057.229-.222.602-.495.387-.273.918-.545,1.592-.818.674-.258,1.449-.387,2.324-.387,1.076,0,1.979.122,2.711.366.746.244,1.434.524,2.065.839.631.33,1.312.617,2.044.861.746.244,1.65.366,2.711.366,1.721,0,3.141-.323,4.26-.968,1.133-.645,1.915-1.327,2.345-2.044l-2.173-4.217c-.057.072-.287.215-.689.43-.402.215-.932.416-1.592.602-.646.201-1.377.301-2.195.301-.918,0-1.771-.122-2.56-.366-.459-.136-.942-.272-1.436-.408.786-.18,1.549-.406,2.275-.711,1.779-.746,3.321-1.786,4.626-3.12Zm-6.39-2.969c-1.176.775-2.546,1.162-4.11,1.162s-2.941-.387-4.131-1.162c-1.176-.775-2.101-1.815-2.776-3.12-.66-1.32-.99-2.79-.99-4.411s.33-3.084.99-4.389c.674-1.305,1.599-2.345,2.776-3.12,1.191-.789,2.568-1.183,4.131-1.183s2.933.394,4.11,1.183c1.191.775,2.116,1.815,2.776,3.12.674,1.305,1.011,2.768,1.011,4.389s-.337,3.091-1.011,4.411c-.66,1.305-1.585,2.345-2.776,3.12ZM97.153.516h-7.832l-5.185,8.176-5.25-8.176h-8.176l9.144,13.125-10.07,15.276h7.746l6.347-9.919,6.562,9.919h8.391l-10.672-15.276L97.153.516Zm-48.399,17.105c0,1.291-.208,2.381-.624,3.27-.402.889-.975,1.563-1.721,2.022-.746.445-1.628.667-2.646.667-1.033,0-1.929-.222-2.69-.667-.76-.459-1.348-1.133-1.764-2.022-.402-.889-.602-1.979-.602-3.27V.516h-6.412v17.45c0,2.338.452,4.368,1.356,6.089.918,1.707,2.238,3.034,3.959,3.98,1.721.932,3.772,1.399,6.154,1.399,2.367,0,4.404-.466,6.111-1.399,1.707-.947,3.019-2.274,3.937-3.98.918-1.721,1.377-3.751,1.377-6.089V.516h-6.433v17.105Zm136.061,4.863c-1.076.387-2.274.581-3.593.581-1.463,0-2.74-.222-3.83-.667-1.09-.459-2.001-1.083-2.733-1.872-.732-.789-1.277-1.678-1.635-2.668-.359-1.004-.538-2.058-.538-3.163,0-1.09.179-2.13.538-3.12.359-.99.904-1.879,1.635-2.668.732-.789,1.642-1.406,2.733-1.85,1.09-.459,2.367-.689,3.83-.689,1.32,0,2.517.194,3.593.581,1.09.373,1.901.753,2.431,1.14l2.754-5.465c-.674-.574-1.829-1.155-3.464-1.743C184.915.294,182.986,0,180.748,0,178.654,0,176.682.373,174.831,1.119c-1.836.732-3.457,1.764-4.863,3.098-1.391,1.334-2.482,2.905-3.27,4.712-.789,1.793-1.183,3.737-1.183,5.831s.394,4.038,1.183,5.831c.803,1.779,1.901,3.335,3.292,4.669,1.406,1.32,3.027,2.345,4.863,3.077,1.836.732,3.801,1.097,5.895,1.097,2.238,0,4.167-.294,5.788-.882,1.635-.588,2.79-1.169,3.464-1.743l-2.754-5.465c-.531.373-1.341.753-2.431,1.14Zm-30.036,6.433h6.433V.516h-6.433v28.401Zm-28.92-24.679c-1.305-1.334-2.847-2.374-4.626-3.12C119.468.373,117.539,0,115.445,0,113.379,0,111.457.373,109.679,1.119c-1.779.746-3.328,1.786-4.647,3.12-1.32,1.334-2.345,2.898-3.077,4.69-.732,1.779-1.098,3.701-1.098,5.766,0,2.08.344,4.016,1.033,5.809.703,1.779,1.7,3.342,2.991,4.69,1.291,1.334,2.826,2.374,4.604,3.12,1.793.746,3.78,1.119,5.96,1.119,2.137,0,4.095-.373,5.874-1.119,1.779-.746,3.321-1.786,4.626-3.12,1.305-1.348,2.309-2.912,3.012-4.69.703-1.793,1.054-3.729,1.054-5.809,0-2.066-.366-3.988-1.097-5.766-.717-1.793-1.736-3.357-3.055-4.69Zm-3.529,14.868c-.66,1.305-1.585,2.345-2.776,3.12-1.176.775-2.546,1.162-4.11,1.162s-2.941-.387-4.131-1.162c-1.176-.775-2.101-1.815-2.776-3.12-.66-1.32-.99-2.79-.99-4.411s.33-3.084.99-4.389c.674-1.305,1.599-2.345,2.776-3.12,1.191-.789,2.568-1.183,4.131-1.183s2.933.394,4.11,1.183c1.191.775,2.116,1.815,2.776,3.12.674,1.305,1.011,2.768,1.011,4.389s-.337,3.091-1.011,4.411Zm8.791-12.953h6.778v22.764h6.433V6.154h6.756V.516h-19.967v5.637Z"/></svg>