<svg width="120" height="60" xmlns="http://www.w3.org/2000/svg"><g fill-rule="nonzero" fill="none"><path d="M40.01 54.457v-3.261c0-1.25-.76-2.066-2.064-2.066-.653 0-1.359.218-1.848.924-.38-.597-.924-.924-1.74-.924-.543 0-1.086.163-1.521.761v-.652h-1.141v5.218h1.195v-2.88c0-.925.49-1.36 1.25-1.36.761 0 1.142.49 1.142 1.36v2.88h1.14v-2.88c0-.925.544-1.36 1.25-1.36.762 0 1.142.49 1.142 1.36v2.88h1.196zm16.903-5.218h-1.848v-1.576h-1.141v1.576H52.89v1.033h1.033v2.391c0 1.196.489 1.902 1.793 1.902a3.04 3.04 0 001.413-.38l-.326-.978c-.326.217-.706.271-.978.271-.543 0-.76-.326-.76-.87v-2.336h1.847v-1.033zm9.62-.109c-.653 0-1.087.327-1.36.761v-.652h-1.14v5.218h1.14v-2.935c0-.87.381-1.359 1.088-1.359.217 0 .489.054.706.109l.326-1.087c-.217 0-.543-.055-.76-.055zm-14.566.544c-.543-.38-1.304-.544-2.12-.544-1.304 0-2.173.653-2.173 1.685 0 .87.652 1.359 1.793 1.522l.544.054c.598.109.924.272.924.544 0 .38-.435.652-1.196.652A3 3 0 0148 53.043l-.543.87c.597.435 1.413.652 2.228.652 1.522 0 2.391-.706 2.391-1.685 0-.923-.706-1.413-1.793-1.576l-.544-.054c-.489-.054-.87-.163-.87-.49 0-.38.381-.597.979-.597.652 0 1.304.272 1.63.435l.49-.924zm30.272-.544c-.652 0-1.087.327-1.359.761v-.652h-1.14v5.218h1.14v-2.935c0-.87.38-1.359 1.087-1.359.218 0 .49.054.707.109L83 49.185c-.217 0-.543-.055-.76-.055zm-14.565 2.718c0 1.576 1.087 2.717 2.772 2.717.76 0 1.304-.163 1.847-.598l-.543-.924c-.435.327-.87.49-1.359.49-.924 0-1.576-.653-1.576-1.685 0-.978.652-1.63 1.576-1.685.49 0 .924.163 1.359.49l.543-.925c-.543-.435-1.086-.598-1.847-.598-1.685 0-2.772 1.142-2.772 2.718zm10.598 0v-2.609H77.13v.652c-.38-.489-.923-.76-1.63-.76-1.467 0-2.609 1.14-2.609 2.717 0 1.576 1.142 2.717 2.609 2.717.76 0 1.304-.272 1.63-.76v.652h1.142v-2.61zm-4.24 0c0-.924.598-1.685 1.577-1.685.924 0 1.576.707 1.576 1.685 0 .924-.652 1.685-1.576 1.685-.979 0-1.576-.761-1.576-1.685zm-13.64-2.718c-1.522 0-2.61 1.087-2.61 2.718 0 1.63 1.088 2.717 2.664 2.717.76 0 1.521-.217 2.12-.706l-.544-.816c-.435.327-.979.544-1.522.544-.707 0-1.413-.326-1.576-1.25h3.859v-.435c.108-1.685-.924-2.772-2.392-2.772zm0 1.033c.706 0 1.195.435 1.304 1.25h-2.718c.163-.76.598-1.25 1.413-1.25zm28.369 1.685v-4.674H87.62v2.717c-.38-.489-.924-.76-1.63-.76-1.468 0-2.61 1.14-2.61 2.717 0 1.576 1.142 2.717 2.61 2.717.76 0 1.303-.272 1.63-.76v.652h1.14v-2.61zm-4.24 0c0-.924.599-1.685 1.577-1.685.924 0 1.576.707 1.576 1.685 0 .924-.652 1.685-1.576 1.685-.978 0-1.576-.761-1.576-1.685zm-38.151 0v-2.609h-1.142v.652c-.38-.489-.924-.76-1.63-.76-1.468 0-2.609 1.14-2.609 2.717 0 1.576 1.141 2.717 2.609 2.717.76 0 1.304-.272 1.63-.76v.652h1.142v-2.61zm-4.185 0c0-.924.598-1.685 1.576-1.685.924 0 1.576.707 1.576 1.685 0 .924-.652 1.685-1.576 1.685-.978 0-1.576-.761-1.576-1.685zm48.424 1.848c.054 0 .163 0 .217.054.054 0 .109.054.163.109.054.054.109.108.109.163 0 .054.054.108.054.217 0 .054 0 .163-.054.218-.055.054-.055.108-.109.163-.054.054-.109.108-.163.108-.054.055-.109.055-.217.055-.055 0-.163 0-.218-.055-.054-.054-.108-.054-.163-.108-.054-.055-.108-.11-.108-.163-.055-.055-.055-.11-.055-.218 0-.054 0-.163.055-.217.054-.055.054-.109.108-.163.055-.055.109-.109.163-.109.109-.054.163-.054.218-.054zm0 .924c.054 0 .108 0 .163-.055a.117.117 0 00.108-.108l.11-.11c0-.054.053-.108.053-.162 0-.055 0-.109-.054-.163a.117.117 0 00-.109-.109l-.108-.109c-.055-.054-.109-.054-.163-.054-.055 0-.109 0-.163.054a.117.117 0 00-.109.109l-.109.109c0 .054-.054.108-.054.163 0 .054 0 .108.054.163 0 .054.055.109.109.109l.109.108c.054.055.108.055.163.055zm.054-.653c.054 0 .109 0 .163.055.054.054.054.054.054.108 0 .055 0 .055-.054.11 0 0-.054.053-.109.053l.163.164h-.108l-.163-.164h-.055v.164h-.108v-.49h.217zm-.109.11v.108h.163v-.055-.054h-.163z" fill="#000"/><path fill="#F26522" d="M51.587 9.674h17.12v30.761h-17.12z"/><path d="M52.674 25.054c0-6.25 2.935-11.793 7.446-15.38a19.445 19.445 0 00-12.066-4.185c-10.815 0-19.565 8.75-19.565 19.565 0 10.816 8.75 19.566 19.565 19.566 4.566 0 8.75-1.577 12.066-4.185-4.511-3.587-7.446-9.13-7.446-15.38z" fill="#E51B24"/><path d="M89.957 37.413v-.857h.271v-.143h-.652v.143h.272v.857h.109zm1.25 0v-1h-.218l-.217.714-.218-.714h-.217v1h.163v-.786l.217.643h.163l.218-.643v.786h.109z" fill="#231F20"/><path d="M91.804 25.054c0 10.816-8.75 19.566-19.565 19.566-4.565 0-8.75-1.577-12.065-4.185 4.565-3.587 7.446-9.13 7.446-15.38S64.685 13.26 60.174 9.673a19.445 19.445 0 0112.065-4.185c10.815 0 19.565 8.75 19.565 19.565z" fill="#F99F1C"/></g></svg>