<svg width="120" height="60" xmlns="http://www.w3.org/2000/svg"><defs><linearGradient x1="55.364%" y1="74.698%" x2="39.656%" y2="2.252%" id="a"><stop stop-color="#504678" offset="0%"/><stop stop-color="#504678" stop-opacity=".616" offset="30.2%"/><stop stop-color="#504678" stop-opacity=".283" offset="60.8%"/><stop stop-color="#504678" stop-opacity=".076" offset="85.2%"/><stop stop-color="#504678" stop-opacity="0" offset="100%"/></linearGradient><linearGradient x1="44.712%" y1="25.139%" x2="60.013%" y2="97.84%" id="b"><stop stop-color="#504678" offset="0%"/><stop stop-color="#504678" stop-opacity=".616" offset="30.2%"/><stop stop-color="#504678" stop-opacity=".283" offset="60.8%"/><stop stop-color="#504678" stop-opacity=".076" offset="85.2%"/><stop stop-color="#504678" stop-opacity="0" offset="100%"/></linearGradient><linearGradient x1="13.595%" y1="61.632%" x2="57.344%" y2="43.8%" id="c"><stop stop-color="#504678" offset="0%"/><stop stop-color="#504678" stop-opacity=".872" offset="17.9%"/><stop stop-color="#504678" stop-opacity=".536" offset="52.6%"/><stop stop-color="#504678" stop-opacity="0" offset="100%"/></linearGradient><linearGradient x1="47.701%" y1="39.371%" x2="45.237%" y2="27.568%" id="d"><stop stop-color="#504678" offset="0%"/><stop stop-color="#504678" stop-opacity=".332" offset="64.3%"/><stop stop-color="#504678" stop-opacity="0" offset="100%"/></linearGradient></defs><g fill-rule="nonzero" fill="none"><path d="M18.75 47.139A2.94 2.94 0 0116 45.306L5.713 20.556c-.611-1.528.102-3.26 1.63-3.87l10.745-4.431c.713-.306 1.528-.306 2.292 0 .713.305 1.324.865 1.63 1.63l10.235 24.75c.611 1.527-.101 3.259-1.63 3.87l-10.745 4.43c-.356.102-.764.204-1.12.204zm.458-33.56c-.203 0-.356.05-.509.102L7.954 18.162a1.404 1.404 0 00-.764.764 1.305 1.305 0 000 1.07l10.236 24.75c.305.712 1.07 1.018 1.782.763l10.746-4.43c.356-.153.61-.408.764-.764a1.305 1.305 0 000-1.07l-10.237-24.8a1.388 1.388 0 00-1.273-.866z" fill="#5A78FF"/><path fill="url(#a)" opacity=".7" d="M16.144 4.074l1.476-.611 4.074 9.778-1.476.61z" transform="translate(5 12)"/><path fill="url(#b)" opacity=".7" d="M26.532 24.954l-1.476.61-4.584-11.101 1.477-.611z" transform="translate(5 12)"/><path d="M28.171 30.18c-3.055 1.274-5.652 3.005-7.333 5.144l-4.329-10.44c1.986-2.291 4.482-4.074 7.334-5.143 3.055-1.273 6.162-1.885 8.81-1.528l4.328 10.44a18.78 18.78 0 00-8.81 1.528z" fill="#5A78FF"/><g opacity=".4"><path d="M11.968 12.07c-3.056 1.273-5.653 3.004-7.334 5.143L.356 6.773C2.292 4.481 4.838 2.7 7.64 1.63 10.694.356 13.8-.255 16.449.102l4.329 10.44a18.78 18.78 0 00-8.81 1.527z" fill="url(#c)" opacity=".9" transform="translate(16.204 18.111)"/><path d="M11.968 12.07c-3.056 1.273-5.653 3.004-7.334 5.143L.356 6.773C2.292 4.481 4.838 2.7 7.64 1.63 10.694.356 13.8-.255 16.449.102l4.329 10.44a18.78 18.78 0 00-8.81 1.527z" fill="url(#d)" opacity=".7" transform="translate(16.204 18.111)"/></g><path d="M29.597 33.389c-3.31 0-6.366.662-8.708 1.935V24.782a17.874 17.874 0 018.708-1.935c3.31 0 6.417.611 8.709 1.935v10.593a17.366 17.366 0 00-8.709-1.986zm16.959 0l2.699-8.505c.05-.102.152-.203.254-.203h1.375c.102 0 .204.101.255.203l2.088 5.347c.05.102.153.102.204 0l2.088-5.347c.05-.102.152-.203.254-.203h1.375c.102 0 .204.101.255.203L60 33.39c.05.05 0 .153 0 .204-.05.05-.102.101-.204.101h-1.63c-.101 0-.203-.05-.254-.203l-1.68-5.5c-.051-.102-.153-.102-.204 0l-2.037 5.5c-.051.153-.153.203-.306.203h-.916c-.153 0-.204-.101-.306-.203l-2.088-5.5c-.05-.102-.153-.102-.153 0l-1.731 5.5c-.051.102-.153.203-.255.203h-1.528c-.05 0-.152-.05-.152-.101v-.204zm13.953-3.056c-.05-1.426.815-2.75 2.14-3.36 1.323-.612 2.851-.306 3.92.712 1.019 1.019 1.375 2.546.815 3.87-.56 1.325-1.833 2.241-3.31 2.241-.968.051-1.833-.305-2.546-.967a3.46 3.46 0 01-1.019-2.496zm5.297 0c-.051-.967-.866-1.68-1.834-1.63-.967.052-1.68.866-1.68 1.783 0 .917.814 1.732 1.782 1.68.968 0 1.782-.865 1.732-1.833zm4.99 2.801c-.152-.102-.254-.05-.254.102v.153c0 .153-.102.255-.255.255h-1.222c-.153 0-.255-.102-.255-.255v-8.454c0-.153.102-.254.255-.254h1.324c.153 0 .255.101.255.254v2.445c0 .152.101.203.305.101.51-.356 1.12-.56 1.732-.56 1.833 0 3.208 1.528 3.208 3.514.05.917-.306 1.783-.917 2.445-.61.662-1.477 1.018-2.342 1.07-.713-.103-1.375-.357-1.834-.816zm3.26-2.8a1.748 1.748 0 00-.815-1.63 1.705 1.705 0 00-1.834 0c-.56.356-.865.967-.814 1.63 0 .458.152.916.458 1.272.305.357.764.56 1.273.56.458 0 .917-.203 1.273-.56.255-.305.459-.814.459-1.273zm2.851-5.042c0-.56.459-1.019 1.019-1.019.56 0 1.018.458 1.018 1.019 0 .56-.458 1.018-1.018 1.018s-1.019-.458-1.019-1.018zm.102 8.148v-6.162c0-.153.102-.255.255-.255h1.324c.05 0 .153 0 .204.051.05.051.102.102.102.204v6.162c0 .153-.102.254-.255.254h-1.324c-.204-.05-.306-.152-.306-.254zm3.31-2.037v-6.468c0-.153.102-.254.255-.254h1.324c.153 0 .255.101.255.254v6.57c0 .407.203.713.662.713.05 0 .153.05.153.05s.05.102.05.153v1.07c0 .153-.101.254-.254.254-1.783 0-2.445-.56-2.445-2.342zm3.158-1.019c0-1.222.662-2.342 1.731-2.953a3.5 3.5 0 013.463 0 3.485 3.485 0 011.732 3.004c0 .255-.051.459-.306.459h-4.532c-.102 0-.153.05-.153.152.102.815.815 1.375 1.63 1.324.458 0 .967-.203 1.273-.56a.463.463 0 01.407-.204h1.222c.204 0 .306.153.204.357a3.492 3.492 0 01-3.921 1.884c-1.63-.458-2.75-1.884-2.75-3.463zm4.838-.61c.102 0 .153-.052.102-.154-.153-.713-.764-1.273-1.528-1.222-.713 0-1.375.51-1.528 1.222-.05.102 0 .204.102.204h2.852v-.05zm3.157 3.666v-8.505c0-.153.102-.254.255-.254h4.176c1.884 0 3.208 1.12 3.208 3.004s-1.477 3.005-3.31 3.005h-2.19c-.05 0-.153 0-.204.05-.05.052-.05.103-.05.204v2.496c0 .153-.102.254-.255.254h-1.375c-.153-.05-.255-.152-.255-.254zm4.329-4.329c.764 0 1.426-.662 1.375-1.477 0-.356-.153-.713-.407-1.018a1.422 1.422 0 00-1.019-.408h-2.24c-.154 0-.204.102-.204.255v2.393c0 .153.05.255.203.255h2.292zm3.921 1.222c-.05-.916.306-1.782.917-2.444.611-.662 1.477-1.019 2.393-1.07.662 0 1.274.255 1.783.662.102.102.254.102.254-.05v-.153c0-.153.102-.255.255-.255h1.222c.153 0 .255.102.255.255v4.38c0 .356.102.458.356.509a.22.22 0 01.204.203v1.172a.22.22 0 01-.204.203c-.865 0-1.375-.254-1.68-.764-.102-.152-.153-.152-.306-.05-.56.56-1.324.916-2.139.865-.916-.05-1.782-.407-2.393-1.07-.662-.61-.968-1.476-.917-2.393zm5.297 0a1.748 1.748 0 00-.815-1.63 1.705 1.705 0 00-1.834 0c-.56.357-.865.968-.814 1.63-.051.662.254 1.273.814 1.63.56.356 1.274.356 1.834 0 .56-.357.865-.968.815-1.63zm2.902 5.653v-1.07c0-.152.102-.254.255-.254.866.051 1.63-.458 1.884-1.273a.603.603 0 00-.05-.51l-2.445-5.5c-.051-.05-.051-.152 0-.254.05-.05.102-.102.204-.102h1.324c.152 0 .203.102.254.255l1.528 3.514c.102.254.255.254.407 0l1.477-3.514c.051-.153.102-.204.255-.204h1.273c.102 0 .153.051.204.102.05.05.05.153 0 .204l-2.496 5.907c-.916 2.139-1.884 2.954-3.82 2.954-.1 0-.254-.102-.254-.255z" fill="#5A78FF"/></g></svg>