<svg width="120" height="60" xmlns="http://www.w3.org/2000/svg"><g fill="#164193" fill-rule="nonzero"><path d="M98.517 24.138c-3.793.276-6.827 3.38-7.103 7.172-.276 4.483 3.241 8.207 7.655 8.207 1.586 0 3.724-.827 4.69-2.483v2.276h2.965V32c.138-4.828-3.793-8.207-8.207-7.862zm5.035 7.931c-.138 2.552-2.345 4.483-4.966 4.138a4.535 4.535 0 01-3.862-3.862c-.276-2.69 1.793-4.966 4.414-4.966 2.345 0 4.276 1.862 4.414 4.207v.483zM82.241 24.138c-4.069.138-7.517 3.241-7.517 7.793 0 4.138 3.38 7.655 7.724 7.655 3.035 0 6-1.793 7.173-4.758l-2.966-.897c-.552 1.241-1.862 2.276-3.31 2.552-2.07.414-4-.897-4.759-2.276l11.517-3.173C89.69 28 87.138 24 82.241 24.138zm-4.275 7.38c0-1.587.965-3.449 3.034-4.208 2.345-.896 4.414.276 5.31 1.931l-8.344 2.276zM56.862 27.241V24.07c-2.896.069-3.862 1.448-4.345 2.276V24.62h-3.31V39.31h3.38V32.07c.068-3.38 2-4.69 4.275-4.828zM26.517 33.38L16.448 21.585H13V39.31h3.517V27.448L26.724 39.31h3.173V21.586h-3.38zM72.655 20h-3.172v5.793c-.759-.965-3.104-1.793-5.104-1.586-3.793.276-6.827 3.38-7.103 7.172-.276 4.483 3.241 8.207 7.655 8.207 1.655 0 3.931-.758 4.69-2.207v1.931h2.965V32v-.138V20h.07zm-3.241 12.069c-.138 2.552-2.345 4.483-4.966 4.138a4.535 4.535 0 01-3.862-3.862c-.276-2.69 1.793-4.966 4.414-4.966 2.345 0 4.276 1.862 4.414 4.207v.483zM39.552 24.138a7.711 7.711 0 00-7.724 7.724 7.711 7.711 0 007.724 7.724 7.711 7.711 0 007.724-7.724 7.711 7.711 0 00-7.724-7.724zm0 12.138c-2.414 0-4.414-2-4.414-4.414 0-2.414 2-4.414 4.414-4.414 2.414 0 4.414 2 4.414 4.414a4.4 4.4 0 01-4.414 4.414zM86.31 29.241"/></g></svg>