<svg width="120" height="60" xmlns="http://www.w3.org/2000/svg"><g fill="#1DCA7A" fill-rule="nonzero"><path d="M49.482 25.11c2.035 0 3.262 1.266 3.262 3.501v9.611H55v-9.71c0-3.204-1.864-5.29-5.273-5.29-2.649 0-4.194 1.292-5.028 3.055-.687-1.714-2.477-3.055-4.88-3.055-1.89 0-3.459.696-4.587 2.484V23.62H33v14.602h2.256V29.01c0-2.16 1.595-3.9 4.292-3.9 2.06 0 3.312 1.267 3.312 3.502v9.611h2.256v-9.04c.024-2.557 1.79-4.072 4.366-4.072M94.79 20.784H97c0-.427 0-.78-.1-1.307-.72-4.019-3.971-6.255-7.546-6.255-4.171 0-7.523 3.216-7.523 7.562 0 4.722 2.806 6.43 2.806 10.852 0 3.215-1.987 5.652-5.09 5.652-3.202 0-5.263-2.688-5.263-5.853 0-3.14 1.986-5.3 4.196-5.652.198-.026.57-.076.77-.076v-1.934c-.224 0-.597.025-.894.075C75.352 24.225 72 26.863 72 31.46c0 4.296 3.103 7.762 7.522 7.762 4.295 0 7.473-3.416 7.473-7.611 0-4.849-2.805-6.632-2.805-10.827 0-3.517 2.259-5.653 5.188-5.653 2.582 0 4.668 1.432 5.288 4.648.05.301.124.703.124 1.005"/><path d="M97.55 23.222c-2.285 0-4.098 1.15-5.265 3.108v-2.716H90v22.608h2.285V30.27c0-3.254 2.285-5.187 5.066-5.187 3.204 0 5.34 2.447 5.34 5.505 0 3.352-1.963 5.946-5.34 5.946-.969 0-1.763-.171-2.459-.465v1.933c.72.22 1.664.391 2.459.391 4.768 0 7.649-3.425 7.649-7.805 0-4.037-3.204-7.365-7.45-7.365M63.196 23.222c-2.914 0-5.118 1.42-5.608 3.82h2.253c.465-1.368 1.739-1.858 3.355-1.858 1.935 0 3.526.851 3.526 3.174v.413c0 .825-.391 1.342-1.395 1.342H61.97c-2.938 0-4.971 1.677-4.971 4.464 0 2.71 2.18 4.645 5.192 4.645 1.861 0 3.6-.748 4.58-2.503v2.09H69V28.384c-.024-3.149-2.253-5.162-5.804-5.162zm3.526 10.065c0 2.761-2.032 4.026-4.187 4.026-2.425 0-3.257-1.446-3.257-2.762 0-1.574.881-2.684 3.012-2.684h2.62c.76 0 1.47-.129 1.837-.593v2.013h-.025zM22.475 23.222c-4.172 0-7.475 3.126-7.475 7.512 0 4.386 3.303 7.488 7.475 7.488 4.197 0 7.525-3.102 7.525-7.488 0-4.386-3.303-7.512-7.525-7.512zm0 13.183c-3.104 0-5.165-2.423-5.165-5.646 0-3.272 2.06-5.695 5.165-5.695 3.154 0 5.19 2.447 5.19 5.695.025 3.223-2.036 5.646-5.19 5.646z"/></g></svg>