<svg width="120" height="60" xmlns="http://www.w3.org/2000/svg"><g fill="none" fill-rule="evenodd" opacity=".99"><path d="M64.833 53.679c6.754-1.45 12.762-5.867 16.093-11.833 3.897-6.98 4.1-15.333.545-22.551-1.315-2.672-2.718-4.577-4.905-6.661a24.363 24.363 0 00-10.58-5.92c-2.852-.758-7.366-.94-10.178-.412-9.321 1.753-16.816 8.707-19.19 17.805-.588 2.259-.81 7.274-.428 9.669 1.577 9.878 9.205 17.841 19.09 19.927 1.927.407 7.61.392 9.553-.024z" fill="#FF6A10"/><path d="M57.337 20.798c-9.406-4.804-16.51 3.24-16.109 9.288.041 7.631 8.257 13.288 16.109 9.155v9.582l5.036-.018.08-9.603c9.9 4.669 16.45-3.207 16.333-9.113-.121-7.62-7.749-13.55-16.333-9.291v-9.621h-4.971l-.145 9.62zm-5.323 3.62c8.056.901 6.574 11.162-.03 11.318-7.78-.192-7.76-11.32.03-11.318zm16.513-.16c7.493.842 6.625 11.27-.356 11.478-8.568-1.122-6.821-11.684.356-11.479z" fill="#FFF"/></g></svg>