<?xml version="1.0" encoding="UTF-8"?> <svg xmlns="http://www.w3.org/2000/svg" version="1.1" id="Capa_1" x="0" y="0" viewBox="0 0 143.2 46.5" xml:space="preserve" width="150"><style>.st0{fill:#285666}.st1{fill:#deb73f}</style><path class="st0" d="M3.3 31.9V46c0 .6 0 .6-.6.6H.3c-.2 0-.3-.1-.3-.3V24.6c0-.7-.1-1.3-.1-2 0-3.4 1.1-6.4 3.3-9C5 11.5 7.3 10.2 10 9.5c1-.3 2.1-.4 3.2-.4 1.5 0 2.9.1 4.4.5 3.7 1.1 6.5 3.3 8.3 6.8.9 1.7 1.3 3.4 1.5 5.3.2 3.6-.7 6.9-3 9.8-2 2.5-4.6 4-7.7 4.6-2.7.5-5.4.4-8-.5-1.6-.5-3-1.4-4.2-2.5l-1.2-1.2zm.3-9.2c0 .5 0 1.1.1 1.6.4 2.4 1.4 4.4 3.2 6 1.9 1.7 4.2 2.5 6.8 2.6.6 0 1.1-.1 1.7-.1 2.5-.4 4.6-1.5 6.2-3.4 2.2-2.7 2.8-5.7 2.1-9.1-.4-2.1-1.5-3.9-3.1-5.4-.7-.7-1.5-1.2-2.4-1.6-1.8-.8-3.7-1.1-5.7-.9-2.6.3-4.7 1.4-6.4 3.4-1.8 2-2.6 4.4-2.5 6.9z"></path><path class="st1" d="M129.6 36.3c-2.5 0-4.7-.5-6.8-1.5-2.4-1.2-4.2-3-5.5-5.4-.8-1.5-1.3-3.1-1.5-4.8-.3-2.9.1-5.7 1.4-8.3 1.3-2.5 3.2-4.5 5.8-5.7 1.6-.8 3.3-1.2 5-1.4 2-.2 4 0 5.9.6 1.9.6 3.7 1.6 5.1 3.1 1.5 1.5 2.6 3.3 3.3 5.3.5 1.4.7 2.8.7 4.2 0 1.6-.1 3.1-.6 4.6-.5 1.6-1.3 3.1-2.4 4.5-2.1 2.6-4.9 4.1-8.1 4.7-.6.1-1.5.1-2.3.1zm10.1-13.9c0-.5-.1-1.3-.2-2.1-.5-2.1-1.5-4-3.1-5.4-.7-.6-1.5-1.2-2.4-1.6-1.8-.8-3.7-1.1-5.7-.9-2.6.3-4.7 1.4-6.5 3.4-1.4 1.6-2.2 3.6-2.4 5.7-.2 2.3.2 4.4 1.3 6.4 1.1 1.8 2.5 3.2 4.4 4.1 2 .9 4.2 1.2 6.4.8 2.4-.5 4.5-1.6 6-3.6 1.5-1.9 2.1-4.1 2.2-6.8zM45 36.3c-2.7 0-5.1-.5-7.3-1.8s-3.8-3-5-5.2c-.8-1.6-1.4-3.3-1.5-5.1-.1-1.5-.1-3 .2-4.4.5-2.1 1.3-4.1 2.7-5.8 1.9-2.3 4.2-3.8 7.1-4.5 1.5-.4 3-.5 4.6-.4 2.5.2 4.8.9 6.8 2.2 1.9 1.2 3.3 2.9 4.4 4.9.8 1.5 1.3 3 1.5 4.7.4 3.2-.2 6.3-1.9 9.1-.5.9-1.2 1.7-1.9 2.4-1.4 1.4-3 2.4-4.8 3.1-1.5.5-3.2.8-4.9.8zm-.1-3.3h.9c.2 0 .3 0 .5-.1 2.6-.3 4.7-1.4 6.4-3.4 2-2.4 2.7-5.2 2.3-8.2-.2-1.5-.7-2.9-1.5-4.2-1-1.7-2.4-2.9-4.2-3.7-1.8-.8-3.7-1.1-5.7-.9-1.6.2-3 .7-4.3 1.5-1.3.9-2.4 2-3.2 3.4-.9 1.6-1.3 3.2-1.4 5 0 .7 0 1.5.2 2.2.4 2.4 1.5 4.5 3.4 6.1 1.9 1.5 4.1 2.3 6.6 2.3z"></path><path class="st0" d="M87.1 27V35.7c0 .3 0 .3-.3.3h-3.6c-.2 0-.3-.1-.3-.3V20.2c0-.7 0-1.4-.1-2.1-.2-1.8-1.1-3-2.5-4-1-.7-2.2-1.1-3.4-1.3-2-.4-3.9-.3-5.9.3-1.4.4-2.6 1.2-3.5 2.4-.7.9-1 1.9-1 3.1-.1 5.6 0 11.3-.1 16.9 0 .6.1.5-.5.5h-3.2c-.4 0-.4 0-.4-.4v-17c.1-1.3.3-2.6 1-3.8.6-1.1 1.6-1.9 2.7-2.6 2-1.2 4.2-1.9 6.5-2.1 2.4-.2 4.9-.1 7.2.5 1.8.5 3.5 1.3 4.9 2.5 1.2 1.1 1.9 2.4 2.2 4 .1.8.2 1.6.2 2.3.2 2.6.1 5.1.1 7.6zM93.8 24.1v-11c0-.5.1-.5-.5-.5h-4.2c-.5 0-.4 0-.4-.4v-2.1c0-.4 0-.4.4-.4h4.2c.6 0 .5.1.5-.5V.3c0-.3 0-.3.3-.3H97c.3 0 .3 0 .3.4v9c0 .3 0 .3.3.3h5.1c.2 0 .3.1.3.3v2.4c0 .2-.1.3-.3.3h-5.1c-.2 0-.3.1-.3.3v22.2c0 .6.1.6-.6.6H94c-.2 0-.3-.1-.3-.3v-.7c.1-3.6.1-7.2.1-10.7zM110.4 22.7V35.3c0 .3 0 .3-.3.3h-3c-.2 0-.3 0-.3-.3V10.2c0-.5-.1-.5.5-.5h2.6c.6 0 .5-.1.5.5v12.5z"></path></svg> 