<svg width="120" height="60" xmlns="http://www.w3.org/2000/svg"><g fill="none" fill-rule="evenodd"><path d="M106.018 27.606l-.389.065-.064-.065c-.13.065-.26.065-.389.065s-.194-.065-.323-.13c-.065 0-.13.065-.259.065-.065 0-.194 0-.259-.065-.13 0-.194-.065-.259-.194 0-.065-.064-.13-.129-.259-.065.065-.13.065-.194.065-.065 0-.13 0-.194-.065 0 0-.065 0-.065-.064 0 0 0 .064-.065.064a.356.356 0 01-.323.194h-.065c-.065 0-.13 0-.194-.064v.064c-.065.26-.194.389-.323.389h-.13c0 .064-.065.129-.065.194l-.129.13c-.065.129-.13.258-.259.387-.065.065-.065.065-.13.065-.064.13-.129.324-.258.518-.13.13-.259.323-.453.453 2.588-.194 4.4-1.1 5.176-1.747 0-.065-.129 0-.258-.065" fill="#8DC63F"/><path d="M107.312 25.212c-.194 0-.194-.13-.194-.13s.453-.453.323-.453h-.065s.065-.388-.129-.323c-.13.065-.194.065-.194.065s-.065-.13 0-.195c.065-.064-.194 0-.194 0s.517-.582.323-.517c-.13.065-.13-.065-.13-.065s.13-.065.195-.13c.065-.064.13-.193.065-.193s-.13-.065-.13-.065.26-.518.13-.453c-.324.13-.388 0-.388 0s.129-.388.064-.453c0 0-.194 0-.064-.065.064-.064.194-.259.194-.259s-.13.065-.065-.064c.065-.13.13-.388.065-.324-.13 0-.194-.13-.194-.13s.323-.323.323-.517c0 0-.388-.065-.323-.065.258-.129.388-.388.388-.452 0-.065-.194 0-.194-.065.194-.065.13-.324.194-.453 0-.065-.194-.065-.194-.065s-.13-.194 0-.259c.13-.13.194-.258.13-.258-.195 0 0-.13 0-.195 0 0 .128-.129.064-.129-.194 0-.453.194-.453.194l-.065-.065a.49.49 0 01-.13.26c-.064.129-.193.258-.193.258l-.13-.13s-.065.13-.065.195c-.064.064-.129.194-.129.194s-.065-.065-.065 0-.064.194-.064.194l-.13-.194-.13.323c-.064.13-.193.195-.193.195s-.065-.13-.065-.065c0 .194-.194.323-.194.323s-.194-.13-.194-.194c-.13 0-.194.194-.324.324s-.259.194-.259.194 0-.13-.129-.13c-.065.195-.259.389-.259.389s-.065-.194-.13-.194c-.064.064-.129.064-.129.064s0-.13-.064-.194c-.065-.065-.065-.13-.13-.13 0 .065-.13.13-.194.195-.065.065-.194.065-.194.065s-.13-.195-.13-.13c0 0 0 .194-.064.259-.065.13-.13.194-.13.194s-.129-.13-.129-.065c0 0-.065.13-.13.195 0 .129-.129.194-.129.194s0-.065-.064-.13c0-.064-.065-.064-.065-.064s-.065 0-.065.064h-.065c0-.064-.064-.194-.129-.323-.065-.065-.13-.26-.194-.194-.065.064-.065.129-.13.129-.064.065-.129.065-.129.065l-.065-.065c0 .065 0 .13-.064.194-.065.065-.065.13-.13.13 0 0-.13-.13-.194-.13 0 0-.065.194-.13.324-.064.13-.193.323-.193.323s0-.065-.065-.065c0-.064-.065-.129-.13-.064 0 .064-.064.13-.129.194a.93.93 0 01-.194.13s.194.064.194 0c0-.065-.065 0-.065 0h-.064l-.065.064-.194-.194c-.065-.065-.13-.065-.13-.065-.129.065-.129.13-.258.194-.195.065-.26.453-.26.453s-.064 0-.064-.064h-.065c-.13 0 0 .258-.064.388l-.13.388s-.13-.13-.194-.065c0 .065-.065.194-.065.26l-.129.258a.494.494 0 01-.324-.13c-.129-.064-.129-.258-.258-.258 0 .259-.194.582-.194.582s-.065-.065-.13 0c0 .065.065.13.065.259v.323s-.065-.064-.194 0c.13.324.064.712.064.712s-.129-.065-.258 0c-.065.13.064.324.129.518.065.13 0 .323 0 .323s-.13 0-.194.13c.13.97 1.876 2.33 2.135 2.588.13.13.13.065.13.194.064.259-.324.518-.324.518s-.518.323-2.006.323h-1.165l-2.911 3.818v-9.059l-2.46 1.165v14.365h2.46v-4.4l2.717 4.4h3.3L95.6 34.335l2.976-3.559c.583-.647 1.295-.97 1.553-1.164 1.036-.647 1.1-1.424 1.1-1.424s.065-.064.13 0c0 .065.065.065.065.065s.129-.13.129-.194c0 0-.065-.194 0-.194h.259v-.194s.064 0 .064-.065c0-.13.065-.13.065-.13h.259c.065.065.065 0 .065 0 .064 0 .064-.129.064-.194.065-.064.065-.13.13-.194.194-.13.259-.194.259-.194s.13 0 .13.065c.064.065.193.065.193.065s.065-.13.194-.26c.13-.064.26-.064.26-.064l.064.065c0 .064.13.13.13.13s.064-.13.323-.13c.259-.065.388-.065.388-.065v.388c0 .13.065.194.065.194h.129v.13h.13c.064-.065.323-.13.323-.13s-.065.065 0 .13c.065 0 .13.064.13.064.064 0 .129 0 .323-.129.194-.13.259-.13.259-.13v.13h.13v.259c.064.065.387-.065.387-.065.065.194.324 0 .389-.065 0 0 0-.129.064-.129.26-.13.389-.323.26-.259-.065 0-.13-.064-.13-.064.065-.065.388-.453.259-.453-.194.064-.324.064-.324.064s.13-.064.065-.194c0 0-.324 0-.194-.13.064-.064.194-.258.13-.193-.066 0-.066-.065-.066-.065s.13 0 .26-.13c.258-.517.387-.711.323-.711M43.059 25.665c-1.488 0-3.43.13-4.53.13v14.3h2.718V27.605h1.294c1.941 0 2.912.906 2.912 3.106 0 2.588-1.682 2.912-2.718 2.912l-.906 1.94h.712c.777 0 2.718 0 4.077-1.164.906-.776 1.682-2.006 1.682-3.882 0-1.424-.453-2.653-1.165-3.494-1.1-1.295-2.782-1.36-4.076-1.36M34.841 27.218c-1.682-1.618-4.076-1.747-4.594-1.747-1.747 0-3.559.323-5.306 1.876-1.423 1.294-2.394 3.106-2.394 5.694 0 3.43 1.941 7.377 6.988 7.377 3.818 0 7.506-2.46 7.506-7.57 0-3.107-1.359-4.854-2.2-5.63zM29.988 38.67c-2.394 0-4.53-2.2-4.53-5.889 0-2.911 1.36-5.5 4.207-5.5 2.394 0 4.53 2.2 4.53 5.953-.066 4.27-2.654 5.436-4.207 5.436zM16.53 25.665c-1.489 0-3.43.13-4.53.13v14.3h2.718V27.605h1.358c1.942 0 2.912.906 2.912 3.106 0 2.653-1.682 2.912-2.717 2.912l-.906 1.94h.711c.777 0 2.718 0 4.077-1.164.906-.776 1.682-2.006 1.682-3.882 0-1.424-.453-2.653-1.164-3.494-1.165-1.295-2.847-1.36-4.142-1.36M89.97 29.806h-2.846l-2.977 3.818v-9.06l-2.459 1.165v14.365h2.46v-4.4l2.717 4.4h3.3l-3.883-5.888 3.689-4.4" fill="#00AB4E"/><path fill="#00AB4E" d="M100.453 40.094h2.523V29.806l-2.523 1.294v8.994M77.482 29.547c-1.164 0-2.394.712-3.364 1.488l.064-1.23-2.523 1.23v9.06h2.523V33.04c.324-.323 1.23-1.1 2.2-1.1 1.1 0 1.1.906 1.1 2.524v5.63h2.524v-6.342c0-1.23 0-2.2-.388-2.912-.324-.582-.97-1.294-2.136-1.294M60.724 27.088c-1.165-1.294-2.848-1.359-4.142-1.359-1.488 0-3.43.13-4.53.13v14.3h2.719V27.67h1.358c1.942 0 2.912.905 2.912 3.105 0 2.653-1.682 2.912-2.717 2.912l-.906 1.941h.711c.777 0 2.718 0 4.077-1.164.906-.777 1.682-2.006 1.682-3.883 0-1.488-.453-2.717-1.164-3.494M69.588 38.153c-.453 0-.453-.324-.453-.906l.065-3.688c0-1.1 0-1.747-.259-2.524-.259-.647-1.1-1.488-2.847-1.488-.776 0-2.2.194-3.494 1.035l.712 1.812c.388-.388 1.035-.841 2.07-.841.26 0 .777 0 1.1.388.26.259.26.518.26 2.006-4.271.647-5.113 1.165-5.113 3.43 0 2.652 1.553 2.976 2.136 2.976 1.1 0 2.2-.518 3.17-.97.194.323.453.97 1.36.97 1.164 0 2.329-.777 2.393-.841l-.582-1.424c-.13.065-.324.065-.518.065zm-2.847-.324c-.841.26-1.165.389-1.682.389-.777 0-1.035-.324-1.035-1.165s.194-.97.776-1.1c.13-.065.97-.259 1.941-.388v2.264z"/></g></svg>