<svg width="120" height="60" xmlns="http://www.w3.org/2000/svg"><g fill="#00963F" fill-rule="nonzero"><path d="M63.44 31.541c-1.871 2.606-3.009 5.762-3.009 9.065h-.183c0-3.303-1.101-6.46-3.01-9.065h-5.577c2.789 2.165 4.477 5.505 4.477 9.065 0 3.596-1.688 6.899-4.514 9.1h17.468c-2.826-2.165-4.514-5.504-4.514-9.1 0-3.56 1.688-6.9 4.477-9.065H63.44"/><path d="M49.422 20.239v.183h-.183C43.697 20.532 39 25.522 39 31.358a11.05 11.05 0 003.266 7.853 11.135 11.135 0 007.89 3.266c1.1 0 2.202-.183 3.303-.55.036-.22.11-1.358.11-1.358a8.77 8.77 0 00-.808-3.707c-.807.44-1.65.66-2.605.66-1.651 0-3.193-.66-4.367-1.797a6.103 6.103 0 01-1.798-4.367c0-1.652.624-3.193 1.798-4.367a6.103 6.103 0 014.367-1.798c1.541 0 2.532.293 3.45.624 0 0 1.32.513 2.018.807l-.807-2.018c-.33-.955-.624-1.909-.624-3.487 0-1.651.624-3.192 1.798-4.367a6.081 6.081 0 014.33-1.798c1.651 0 3.193.624 4.367 1.798a6.103 6.103 0 011.798 4.367c0 1.542-.293 2.459-.624 3.45 0 0-.513 1.32-.807 2.018l2.018-.807c.991-.33 1.909-.624 3.487-.624 1.651 0 3.192.624 4.367 1.798a6.103 6.103 0 011.798 4.367c0 1.651-.66 3.193-1.798 4.367-1.175 1.174-2.716 1.835-4.367 1.835-.954 0-1.835-.22-2.606-.624-.55 1.174-.807 2.385-.807 3.707 0 0 .11 1.137.11 1.357 1.1.33 2.202.55 3.303.55 2.972 0 5.761-1.174 7.89-3.265a11.05 11.05 0 003.266-7.854c0-5.834-4.698-10.825-10.239-10.899h-.183v-.183C71.184 14.697 66.193 10 60.358 10s-10.826 4.697-10.936 10.239"/></g></svg>