<?xml version="1.0" standalone="no"?>
<!DOCTYPE svg PUBLIC "-//W3C//DTD SVG 20010904//EN"
 "http://www.w3.org/TR/2001/REC-SVG-20010904/DTD/svg10.dtd">
<svg version="1.0" xmlns="http://www.w3.org/2000/svg"
 width="700.000000pt" height="700.000000pt" viewBox="0 0 700.000000 700.000000"
 preserveAspectRatio="xMidYMid meet">
<metadata>
Created by potrace 1.11, written by Peter Selinger 2001-2013
</metadata>
<g transform="translate(0.000000,700.000000) scale(0.100000,-0.100000)"
fill="#000000" stroke="none">
<path d="M0 3490 l0 -3490 3500 0 3500 0 0 3490 0 3490 -3500 0 -3500 0 0
-3490z m5175 1610 c354 -60 616 -228 739 -473 59 -116 77 -194 83 -347 5 -117
2 -148 -16 -220 -55 -222 -164 -351 -469 -560 -143 -97 -223 -173 -256 -244
-25 -54 -46 -151 -46 -218 l0 -38 -341 0 -342 0 6 133 c14 344 122 514 447
710 160 96 219 148 260 230 58 117 34 267 -56 347 -137 120 -396 141 -577 47
-104 -54 -171 -155 -183 -275 l-7 -62 -338 0 -339 0 0 94 c0 111 18 214 54
310 112 296 414 508 813 570 140 22 428 20 568 -4z m-2147 -77 c45 -126 1052
-2912 1057 -2926 7 -16 -13 -17 -375 -15 l-383 3 -91 260 -91 260 -581 3 -580
2 -94 -265 -93 -265 -380 0 c-356 0 -379 1 -374 18 6 24 1036 2880 1053 2920
l13 32 455 0 454 0 10 -27z m2182 -2598 l0 -335 -340 0 -340 0 0 335 0 335
340 0 340 0 0 -335z"/>
<path d="M2489 4043 c-40 -114 -123 -350 -184 -523 l-112 -315 365 -3 c201 -1
367 0 369 2 3 3 -78 239 -180 526 l-184 521 -74 -208z"/>
</g>
</svg>
