<svg width="120" height="60" xmlns="http://www.w3.org/2000/svg"><path d="M105.028 22.648c0-.986.803-1.789 1.789-1.789.986 0 1.789.803 1.789 1.789 0 .986-.803 1.789-1.79 1.789-.985-.014-1.788-.803-1.788-1.79zm-44.563 3.521v.338c1.31.718 1.127 1.55 1.127 2.873v6.874c0 1.323.183 2.126-1.127 2.859v.352h4.958v-.352c-1.31-.719-1.127-1.493-1.127-2.817v-4.634c0-2.085 1.225-3.845 3.422-3.845 2.395 0 3.31 1.45 3.31 4.056v4.409c0 1.295.183 2.098-1.127 2.83v.353h4.958v-.352c-1.31-.719-1.127-1.493-1.127-2.831v-5.409c0-4.366-3.14-5.07-5.253-5.07-1.733 0-3.366.859-4.183 2.225v-2.225h-.352c-.62.352-1.085.366-1.733.366h-1.746zM22.21 20.761a15.399 15.399 0 00-4.38-.634c-3.76 0-7.394 1.366-7.394 4.986 0 6.155 9.957 5.45 9.957 9.746 0 1.676-2.126 2.662-4.112 2.662-2.296 0-4.803-.93-6.282-2.31l.76 3.831c1.677.606 3.48.86 5.268.86 4.916 0 7.887-2.282 7.887-5.578 0-5.296-9.9-5.592-9.9-9.521 0-1.676 1.943-2.423 3.633-2.423 1.648 0 3.535.662 4.577 1.606V20.76h-.014zm3.845 8.493c.254-.268.634-.493.958-.493h6.127c.324 0 .31.225.056.493l-1.098 1.21c-.254.268-.648.494-.958.494H25c-.296 0-.31-.226-.056-.493l1.112-1.211zm50.17-8.79v.339c1.281.718 1.098 1.535 1.098 2.873v12.592c0 1.324.183 2.126-1.099 2.859v.352h4.958v-.352c-1.338-.719-1.155-1.521-1.155-2.86V20h-.352c-.38.437-.845.465-1.493.465h-1.958zm8.746 17.367c.563.789 1.296 1.62 3.028 1.62h2.31c-1.338-.803-2.225-2.043-3.141-3.226l-3.62-4.464 4.958-5.578H84v.338c.254.056.563.183.563.592 0 .718-1.07 1.817-1.507 2.31l-2.464 2.633 4.38 5.775zm19.55-11.662v.338c1.309.718 1.126 1.521 1.126 2.845v6.902c0 1.323.183 2.126-1.127 2.845v.352h4.958v-.352c-1.31-.719-1.127-1.522-1.127-2.86V25.72h-.338c-.507.436-.986.464-1.676.464l-1.817-.014zm-70.184-5.704v.338c1.479.577 1.296 2.436 1.296 3.732v10.873c0 1.31.183 3.17-1.338 3.69v.353h5.901v-.352c-1.577-.86-1.55-1.747-1.55-3.367V22.62h2.085c2.48.014 4.24 1.042 4.24 3.577s-2.07 4.028-5.338 4.028v.338c.52.226 1.465.338 2.211.352 3.409.057 6.409-2.084 6.409-5.408 0-3.225-2.86-5.056-6.719-5.056l-7.197.014zm-.972 9.704h.535c.31 0 .31.225.057.493l-1.099 1.211c-.24.282-.648.493-.958.493h-6.126c-.31 0-.31-.225-.057-.493l.17-.183h5.59c.31 0 .705-.225.959-.493l.93-1.028zm56.944-9.704v.338c1.282.718 1.098 1.535 1.098 2.873v12.592c0 1.324.184 2.126-1.098 2.859v.352h4.958v-.352c-1.338-.719-1.155-1.521-1.155-2.86V20h-.352c-.38.437-.831.465-1.493.465H90.31zm8.732 17.366c.564.789 1.31 1.62 3.028 1.62h2.296c-1.338-.803-2.225-2.043-3.14-3.226l-3.62-4.479 4.943-5.577h-4.507v.338c.254.056.564.183.564.592 0 .718-1.07 1.816-1.521 2.31l-2.437 2.633 4.394 5.789zm-38.563-.07c-2.535 0-2.831-.606-2.831-3.198l.042-4.14c0-3.831-2.14-4.62-5.324-4.62-.52 0-2.732-.028-2.986.915-.366 1.31-.943 2.155-.943 2.155 1.098-.634 2.324-1.042 3.83-1.042 1.1 0 2.705.338 2.705 1.563 0 2.986-8.775 1.507-8.775 6.48 0 2.549 2.057 3.971 4.986 3.971.507 0 .592.014 1.394 0l1.677-2.056c-.86.014-1.057 0-1.761 0-2.028 0-3.296-.465-3.296-2.07 0-1.339 1.662-1.973 3.057-2.296 1.098-.254 2.042-.465 2.718-.986v4.394c0 2.31 1.789 2.944 3.845 2.944l1.662-2.014z" fill="#5B8F22" fill-rule="nonzero"/></svg>