<?xml version="1.0" encoding="utf-8"?>
<!-- Generator: Adobe Illustrator 28.0.0, SVG Export Plug-In . SVG Version: 6.00 Build 0)  -->
<svg version="1.1" id="Layer_1" xmlns="http://www.w3.org/2000/svg" xmlns:xlink="http://www.w3.org/1999/xlink" x="0px" y="0px"
	 viewBox="0 0 178 40" style="enable-background:new 0 0 178 40;" xml:space="preserve">
<style type="text/css">
	.st0{clip-path:url(#SVGID_00000113340582434587607070000003082849255045600652_);}
	.st1{clip-path:url(#SVGID_00000116921548865295197310000014578162792706636473_);}
	.st2{fill:#1D1D1B;}
	.st3{fill:url(#SVGID_00000047779784242926875060000012542782121217909143_);}
	.st4{fill:url(#SVGID_00000176034491847478018210000018252787928266274704_);}
	.st5{fill:url(#SVGID_00000065033920343985005170000003552412228675313314_);}
	.st6{fill:url(#SVGID_00000069399415770277834960000009422371697294310045_);}
	.st7{fill:url(#SVGID_00000116919687329397848160000008041769474925163939_);}
	.st8{fill:url(#SVGID_00000085944577462549830930000006187874619947618997_);}
	.st9{fill:url(#SVGID_00000045615417430790464160000016987256630787359673_);}
	.st10{fill:url(#SVGID_00000176003494663627683330000002503791119294695086_);}
	.st11{fill:url(#SVGID_00000009554333693021433660000001248229835415534002_);}
	.st12{fill:url(#SVGID_00000089570416629510889190000018239763262128170170_);}
	.st13{fill:url(#SVGID_00000026883537202385822130000010300021432554376102_);}
	.st14{fill:url(#SVGID_00000134969930680045850080000017282638890548516241_);}
	.st15{fill:#21211F;}
</style>
<g>
	<defs>
		<rect id="SVGID_1_" y="0" width="36.3" height="40.1"/>
	</defs>
	<clipPath id="SVGID_00000122684923647793995500000008404291128648360110_">
		<use xlink:href="#SVGID_1_"  style="overflow:visible;"/>
	</clipPath>
	<g style="clip-path:url(#SVGID_00000122684923647793995500000008404291128648360110_);">
		<g>
			<defs>
				<rect id="SVGID_00000080168801520034461520000016108450575752886187_" y="0" width="36.3" height="40.1"/>
			</defs>
			<clipPath id="SVGID_00000034084186942010212810000001656558725859075211_">
				<use xlink:href="#SVGID_00000080168801520034461520000016108450575752886187_"  style="overflow:visible;"/>
			</clipPath>
			<g style="clip-path:url(#SVGID_00000034084186942010212810000001656558725859075211_);">
				<path class="st2" d="M3,10.2C5,11.3,9.7,14,9.7,14l7.4-4.3c0.3-0.2,0.7-0.3,1.1-0.3s0.7,0.1,1.1,0.3l7.4,4.3
					c0,0,4.7-2.7,6.7-3.8c0.1-0.1,0.3-0.2,0.4-0.4c0.1-0.1,0.1-0.3,0.1-0.5c0-0.2,0-0.3-0.1-0.5c-0.1-0.1-0.2-0.3-0.4-0.4l-4.6-2.7
					l-9.5-5.5C18.9,0.1,18.5,0,18.1,0c-0.4,0-0.7,0.1-1.1,0.3L7.6,5.8L3,8.5C2.8,8.6,2.7,8.7,2.6,8.8C2.5,9,2.5,9.2,2.5,9.3
					s0,0.3,0.1,0.5C2.7,10,2.8,10.1,3,10.2z"/>
				<path class="st2" d="M9.2,27.1c-0.3-0.2-0.6-0.5-0.8-0.8c-0.2-0.3-0.3-0.7-0.3-1.1V17c0,0-4.7-2.7-6.7-3.8
					c-0.1-0.1-0.3-0.1-0.5-0.1c-0.2,0-0.3,0.1-0.5,0.1c-0.1,0.1-0.3,0.2-0.4,0.4C0,13.7,0,13.9,0,14v16c0,0.4,0.1,0.7,0.3,1
					c0.2,0.3,0.4,0.6,0.8,0.8l12.5,7.2l1.2,0.7l0.3,0.2c0.1,0.1,0.3,0.1,0.5,0.1c0.2,0,0.3,0,0.5-0.1c0.1-0.1,0.3-0.2,0.4-0.4
					c0.1-0.1,0.1-0.3,0.1-0.5v-7.7L9.2,27.1z"/>
				<path class="st2" d="M34.8,13.2c-2,1.1-6.7,3.8-6.7,3.8v8.3c0,0.4-0.1,0.7-0.3,1.1c-0.2,0.3-0.5,0.6-0.8,0.8l-7.4,4.3v7.7
					c0,0.2,0.1,0.3,0.1,0.5c0.1,0.1,0.2,0.3,0.4,0.4c0.1,0.1,0.3,0.1,0.5,0.1c0.2,0,0.3,0,0.5-0.1l0.3-0.2l6-3.5l7.7-4.5h0
					c0.3-0.2,0.6-0.4,0.8-0.8c0.2-0.3,0.3-0.7,0.3-1V14c0-0.2-0.1-0.3-0.1-0.5c-0.1-0.1-0.2-0.3-0.4-0.4c-0.1-0.1-0.3-0.1-0.5-0.1
					C35.1,13.1,35,13.1,34.8,13.2z"/>
				<path class="st2" d="M25,24.3v-7.1c0-0.1,0-0.2-0.1-0.3c-0.1-0.1-0.1-0.2-0.2-0.2L18.5,13c0,0-0.1,0-0.2-0.1c-0.1,0-0.2,0-0.3,0
					c-0.1,0-0.1,0-0.2,0.1l-6.2,3.6c-0.1,0.1-0.3,0.2-0.3,0.4c0,0.1,0,0.1,0,0.2v7.1c0,0.1,0,0.2,0.1,0.3c0.1,0.1,0.1,0.2,0.2,0.2
					l6.2,3.6c0.1,0.1,0.2,0.1,0.3,0.1s0.2,0,0.3-0.1l6.2-3.6c0.1-0.1,0.2-0.1,0.2-0.2C24.9,24.5,25,24.4,25,24.3z M22.6,23
					c0,0.1,0,0.2-0.1,0.3s-0.1,0.2-0.2,0.2l-3.9,2.3c-0.1,0-0.2,0.1-0.3,0.1c-0.1,0-0.2,0-0.3-0.1L14,23.5c-0.1-0.1-0.2-0.1-0.2-0.2
					c-0.1-0.1-0.1-0.2-0.1-0.3v-4.5c0-0.1,0-0.2,0.1-0.3c0.1-0.1,0.1-0.2,0.2-0.2l3.9-2.3c0.1,0,0.2-0.1,0.3-0.1
					c0.1,0,0.2,0,0.3,0.1l3.9,2.3c0.1,0.1,0.2,0.1,0.2,0.2c0.1,0.1,0.1,0.2,0.1,0.3L22.6,23z"/>
				
					<linearGradient id="SVGID_00000021826854831602999540000010390872660155903129_" gradientUnits="userSpaceOnUse" x1="7.186020e-05" y1="32.8806" x2="36.2893" y2="32.8806" gradientTransform="matrix(1 0 0 -1 0 39.8898)">
					<stop  offset="0" style="stop-color:#8A59F3"/>
					<stop  offset="1" style="stop-color:#5958F4"/>
				</linearGradient>
				<path style="fill:url(#SVGID_00000021826854831602999540000010390872660155903129_);" d="M3,10.2C5,11.3,9.7,14,9.7,14l7.4-4.3
					c0.3-0.2,0.7-0.3,1.1-0.3s0.7,0.1,1.1,0.3l7.4,4.3c0,0,4.7-2.7,6.7-3.8c0.1-0.1,0.3-0.2,0.4-0.4c0.1-0.1,0.1-0.3,0.1-0.5
					c0-0.2,0-0.3-0.1-0.5c-0.1-0.1-0.2-0.3-0.4-0.4l-4.6-2.7l-9.5-5.5C18.9,0.1,18.5,0,18.1,0c-0.4,0-0.7,0.1-1.1,0.3L7.6,5.8L3,8.5
					C2.8,8.6,2.7,8.7,2.6,8.8C2.5,9,2.5,9.2,2.5,9.3s0,0.3,0.1,0.5C2.7,10,2.8,10.1,3,10.2z"/>
				
					<linearGradient id="SVGID_00000119806731227985154220000013317968222489983668_" gradientUnits="userSpaceOnUse" x1="9.094947e-13" y1="13.3215" x2="36.2893" y2="13.3215" gradientTransform="matrix(1 0 0 -1 0 39.8898)">
					<stop  offset="0" style="stop-color:#8A59F3"/>
					<stop  offset="1" style="stop-color:#5958F4"/>
				</linearGradient>
				<path style="fill:url(#SVGID_00000119806731227985154220000013317968222489983668_);" d="M9.2,27.1c-0.3-0.2-0.6-0.5-0.8-0.8
					c-0.2-0.3-0.3-0.7-0.3-1.1V17c0,0-4.7-2.7-6.7-3.8c-0.1-0.1-0.3-0.1-0.5-0.1c-0.2,0-0.3,0.1-0.5,0.1c-0.1,0.1-0.3,0.2-0.4,0.4
					C0,13.7,0,13.9,0,14v16c0,0.4,0.1,0.7,0.3,1c0.2,0.3,0.4,0.6,0.8,0.8l12.5,7.2l1.2,0.7l0.3,0.2c0.1,0.1,0.3,0.1,0.5,0.1
					c0.2,0,0.3,0,0.5-0.1c0.1-0.1,0.3-0.2,0.4-0.4c0.1-0.1,0.1-0.3,0.1-0.5v-7.7L9.2,27.1z"/>
				
					<linearGradient id="SVGID_00000048487355464452246830000006851508419404504504_" gradientUnits="userSpaceOnUse" x1="-6.494730e-04" y1="13.3213" x2="36.2886" y2="13.3213" gradientTransform="matrix(1 0 0 -1 0 39.8898)">
					<stop  offset="0" style="stop-color:#8A59F3"/>
					<stop  offset="1" style="stop-color:#5958F4"/>
				</linearGradient>
				<path style="fill:url(#SVGID_00000048487355464452246830000006851508419404504504_);" d="M34.8,13.2c-2,1.1-6.7,3.8-6.7,3.8v8.3
					c0,0.4-0.1,0.7-0.3,1.1c-0.2,0.3-0.5,0.6-0.8,0.8l-7.4,4.3v7.7c0,0.2,0.1,0.3,0.1,0.5c0.1,0.1,0.2,0.3,0.4,0.4
					c0.1,0.1,0.3,0.1,0.5,0.1c0.2,0,0.3,0,0.5-0.1l0.3-0.2l6-3.5l7.7-4.5h0c0.3-0.2,0.6-0.4,0.8-0.8c0.2-0.3,0.3-0.7,0.3-1V14
					c0-0.2-0.1-0.3-0.1-0.5c-0.1-0.1-0.2-0.3-0.4-0.4c-0.1-0.1-0.3-0.1-0.5-0.1C35.1,13.1,35,13.1,34.8,13.2z"/>
				
					<linearGradient id="SVGID_00000165924272602263735860000012235651021244528816_" gradientUnits="userSpaceOnUse" x1="6.316980e-04" y1="19.194" x2="36.2899" y2="19.194" gradientTransform="matrix(1 0 0 -1 0 39.8898)">
					<stop  offset="0" style="stop-color:#8A59F3"/>
					<stop  offset="1" style="stop-color:#5958F4"/>
				</linearGradient>
				<path style="fill:url(#SVGID_00000165924272602263735860000012235651021244528816_);" d="M25,24.3v-7.1c0-0.1,0-0.2-0.1-0.3
					c-0.1-0.1-0.1-0.2-0.2-0.2L18.5,13c0,0-0.1,0-0.2-0.1c-0.1,0-0.2,0-0.3,0c-0.1,0-0.1,0-0.2,0.1l-6.2,3.6
					c-0.1,0.1-0.3,0.2-0.3,0.4c0,0.1,0,0.1,0,0.2v7.1c0,0.1,0,0.2,0.1,0.3c0.1,0.1,0.1,0.2,0.2,0.2l6.2,3.6c0.1,0.1,0.2,0.1,0.3,0.1
					s0.2,0,0.3-0.1l6.2-3.6c0.1-0.1,0.2-0.1,0.2-0.2C24.9,24.5,25,24.4,25,24.3z M22.6,23c0,0.1,0,0.2-0.1,0.3s-0.1,0.2-0.2,0.2
					l-3.9,2.3c-0.1,0-0.2,0.1-0.3,0.1c-0.1,0-0.2,0-0.3-0.1L14,23.5c-0.1-0.1-0.2-0.1-0.2-0.2c-0.1-0.1-0.1-0.2-0.1-0.3v-4.5
					c0-0.1,0-0.2,0.1-0.3c0.1-0.1,0.1-0.2,0.2-0.2l3.9-2.3c0.1,0,0.2-0.1,0.3-0.1c0.1,0,0.2,0,0.3,0.1l3.9,2.3
					c0.1,0.1,0.2,0.1,0.2,0.2c0.1,0.1,0.1,0.2,0.1,0.3L22.6,23z"/>
			</g>
		</g>
		
			<linearGradient id="SVGID_00000031205210947861398950000000600600707096845965_" gradientUnits="userSpaceOnUse" x1="5.545810e-04" y1="32.8888" x2="36.2832" y2="32.8888" gradientTransform="matrix(1 0 0 -1 0 39.8898)">
			<stop  offset="0" style="stop-color:#8A59F3"/>
			<stop  offset="1" style="stop-color:#5958F4"/>
		</linearGradient>
		<path style="fill:url(#SVGID_00000031205210947861398950000000600600707096845965_);" d="M3,10.2c2,1.1,6.7,3.8,6.7,3.8l7.4-4.3
			c0.3-0.2,0.7-0.3,1.1-0.3c0.4,0,0.7,0.1,1.1,0.3l7.4,4.3c0,0,4.7-2.7,6.7-3.8c0.2-0.1,0.3-0.2,0.4-0.4c0.1-0.1,0.1-0.3,0.1-0.5
			c0-0.2,0-0.3-0.1-0.5c-0.1-0.2-0.2-0.3-0.4-0.4l-4.6-2.7l-9.5-5.5C18.9,0.1,18.5,0,18.1,0c-0.4,0-0.7,0.1-1.1,0.3L7.6,5.8L3,8.5
			C2.8,8.6,2.7,8.7,2.6,8.8C2.5,9,2.5,9.2,2.5,9.3c0,0.2,0,0.3,0.1,0.5C2.7,10,2.8,10.1,3,10.2z"/>
		
			<linearGradient id="SVGID_00000066497373424369669920000016542286176678126771_" gradientUnits="userSpaceOnUse" x1="5.456968e-12" y1="13.3294" x2="36.2826" y2="13.3294" gradientTransform="matrix(1 0 0 -1 0 39.8898)">
			<stop  offset="0" style="stop-color:#8A59F3"/>
			<stop  offset="1" style="stop-color:#5958F4"/>
		</linearGradient>
		<path style="fill:url(#SVGID_00000066497373424369669920000016542286176678126771_);" d="M9.2,27.1c-0.3-0.2-0.6-0.5-0.8-0.8
			c-0.2-0.3-0.3-0.7-0.3-1.1V17c0,0-4.7-2.7-6.7-3.8C1.3,13.1,1.1,13,1,13c-0.2,0-0.3,0-0.5,0.1c-0.1,0.1-0.3,0.2-0.4,0.4
			C0,13.7,0,13.9,0,14v16c0,0.4,0.1,0.7,0.3,1c0.2,0.3,0.4,0.6,0.8,0.8l0,0L13.5,39l1.2,0.7l0.3,0.2c0.1,0.1,0.3,0.1,0.5,0.1
			c0.2,0,0.3,0,0.5-0.1c0.1-0.1,0.3-0.2,0.4-0.4c0.1-0.1,0.1-0.3,0.1-0.5v-7.7L9.2,27.1z"/>
		
			<linearGradient id="SVGID_00000029732676894782469590000017854574404388821430_" gradientUnits="userSpaceOnUse" x1="1.227660e-04" y1="13.3294" x2="36.2828" y2="13.3294" gradientTransform="matrix(1 0 0 -1 0 39.8898)">
			<stop  offset="0" style="stop-color:#FFFFFF"/>
			<stop  offset="1" style="stop-color:#5958F4"/>
		</linearGradient>
		<path style="fill:url(#SVGID_00000029732676894782469590000017854574404388821430_);" d="M34.8,13.2c-2,1.1-6.7,3.8-6.7,3.8v8.3
			c0,0.4-0.1,0.7-0.3,1.1c-0.2,0.3-0.5,0.6-0.8,0.8l-7.4,4.3v7.7c0,0.2,0,0.3,0.1,0.5c0.1,0.1,0.2,0.3,0.4,0.4
			c0.1,0.1,0.3,0.1,0.5,0.1c0.2,0,0.3,0,0.5-0.1l0.3-0.2l6-3.5l7.7-4.5l0,0c0.3-0.2,0.6-0.4,0.8-0.8c0.2-0.3,0.3-0.7,0.3-1V14
			c0-0.2,0-0.3-0.1-0.5c-0.1-0.1-0.2-0.3-0.4-0.4c-0.1-0.1-0.3-0.1-0.5-0.1C35.1,13,35,13.1,34.8,13.2z"/>
		
			<linearGradient id="SVGID_00000069395786948120673780000015700999894006091915_" gradientUnits="userSpaceOnUse" x1="-5.932080e-06" y1="19.1932" x2="36.2826" y2="19.1932" gradientTransform="matrix(1 0 0 -1 0 39.8898)">
			<stop  offset="0" style="stop-color:#8A59F3"/>
			<stop  offset="1" style="stop-color:#5958F4"/>
		</linearGradient>
		<path style="fill:url(#SVGID_00000069395786948120673780000015700999894006091915_);" d="M24.9,24.3v-7.1c0-0.2-0.1-0.3-0.2-0.5
			c0,0-0.1-0.1-0.1-0.1L18.5,13c0,0-0.1-0.1-0.2-0.1c-0.1,0-0.2,0-0.3,0c-0.1,0-0.1,0-0.2,0.1l-6.2,3.6c-0.1,0.1-0.3,0.2-0.3,0.4
			c0,0.1,0,0.1,0,0.2v7.1c0,0.1,0,0.2,0.1,0.3c0.1,0.1,0.1,0.2,0.2,0.2l6.2,3.6c0.1,0.1,0.2,0.1,0.3,0.1s0.2,0,0.3-0.1l6.2-3.6
			c0.1-0.1,0.2-0.1,0.2-0.2C24.9,24.5,24.9,24.4,24.9,24.3z M22.6,23c0,0.1,0,0.2-0.1,0.3c-0.1,0.1-0.1,0.2-0.2,0.2l-3.9,2.3
			c-0.1,0.1-0.2,0.1-0.3,0.1s-0.2,0-0.3-0.1L14,23.5c-0.1-0.1-0.2-0.1-0.2-0.2s-0.1-0.2-0.1-0.3v-4.5c0-0.1,0-0.2,0.1-0.3
			c0.1-0.1,0.1-0.2,0.2-0.2l3.9-2.3c0.1-0.1,0.2-0.1,0.3-0.1c0.1,0,0.2,0,0.3,0.1l3.9,2.3c0.1,0.1,0.2,0.1,0.2,0.2
			c0.1,0.1,0.1,0.2,0.1,0.3L22.6,23z"/>
		
			<linearGradient id="SVGID_00000105425824850869017890000010055589408596071570_" gradientUnits="userSpaceOnUse" x1="5.545810e-04" y1="32.8888" x2="36.2832" y2="32.8888" gradientTransform="matrix(1 0 0 -1 0 39.8898)">
			<stop  offset="0" style="stop-color:#8A59F3"/>
			<stop  offset="1" style="stop-color:#5958F4"/>
		</linearGradient>
		<path style="fill:url(#SVGID_00000105425824850869017890000010055589408596071570_);" d="M3,10.2c2,1.1,6.7,3.8,6.7,3.8l7.4-4.3
			c0.3-0.2,0.7-0.3,1.1-0.3c0.4,0,0.7,0.1,1.1,0.3l7.4,4.3c0,0,4.7-2.7,6.7-3.8c0.2-0.1,0.3-0.2,0.4-0.4c0.1-0.1,0.1-0.3,0.1-0.5
			c0-0.2,0-0.3-0.1-0.5c-0.1-0.2-0.2-0.3-0.4-0.4l-4.6-2.7l-9.5-5.5C18.9,0.1,18.5,0,18.1,0c-0.4,0-0.7,0.1-1.1,0.3L7.6,5.8L3,8.5
			C2.8,8.6,2.7,8.7,2.6,8.8C2.5,9,2.5,9.2,2.5,9.3c0,0.2,0,0.3,0.1,0.5C2.7,10,2.8,10.1,3,10.2z"/>
		
			<linearGradient id="SVGID_00000004530151015009437090000011645130317250777782_" gradientUnits="userSpaceOnUse" x1="5.456968e-12" y1="13.3294" x2="36.2826" y2="13.3294" gradientTransform="matrix(1 0 0 -1 0 39.8898)">
			<stop  offset="0" style="stop-color:#8A59F3"/>
			<stop  offset="1" style="stop-color:#5958F4"/>
		</linearGradient>
		<path style="fill:url(#SVGID_00000004530151015009437090000011645130317250777782_);" d="M9.2,27.1c-0.3-0.2-0.6-0.5-0.8-0.8
			c-0.2-0.3-0.3-0.7-0.3-1.1V17c0,0-4.7-2.7-6.7-3.8C1.3,13.1,1.1,13,1,13c-0.2,0-0.3,0-0.5,0.1c-0.1,0.1-0.3,0.2-0.4,0.4
			C0,13.7,0,13.9,0,14v16c0,0.4,0.1,0.7,0.3,1c0.2,0.3,0.4,0.6,0.8,0.8l0,0L13.5,39l1.2,0.7l0.3,0.2c0.1,0.1,0.3,0.1,0.5,0.1
			c0.2,0,0.3,0,0.5-0.1c0.1-0.1,0.3-0.2,0.4-0.4c0.1-0.1,0.1-0.3,0.1-0.5v-7.7L9.2,27.1z"/>
		
			<linearGradient id="SVGID_00000083070578440975805590000001720319154560609443_" gradientUnits="userSpaceOnUse" x1="1.227660e-04" y1="13.3294" x2="36.2828" y2="13.3294" gradientTransform="matrix(1 0 0 -1 0 39.8898)">
			<stop  offset="0" style="stop-color:#FFFFFF"/>
			<stop  offset="1" style="stop-color:#5958F4"/>
		</linearGradient>
		<path style="fill:url(#SVGID_00000083070578440975805590000001720319154560609443_);" d="M34.8,13.2c-2,1.1-6.7,3.8-6.7,3.8v8.3
			c0,0.4-0.1,0.7-0.3,1.1c-0.2,0.3-0.5,0.6-0.8,0.8l-7.4,4.3v7.7c0,0.2,0,0.3,0.1,0.5c0.1,0.1,0.2,0.3,0.4,0.4
			c0.1,0.1,0.3,0.1,0.5,0.1c0.2,0,0.3,0,0.5-0.1l0.3-0.2l6-3.5l7.7-4.5l0,0c0.3-0.2,0.6-0.4,0.8-0.8c0.2-0.3,0.3-0.7,0.3-1V14
			c0-0.2,0-0.3-0.1-0.5c-0.1-0.1-0.2-0.3-0.4-0.4c-0.1-0.1-0.3-0.1-0.5-0.1C35.1,13,35,13.1,34.8,13.2z"/>
		
			<linearGradient id="SVGID_00000121265618290625273340000015825878397556250269_" gradientUnits="userSpaceOnUse" x1="-5.932080e-06" y1="19.1932" x2="36.2826" y2="19.1932" gradientTransform="matrix(1 0 0 -1 0 39.8898)">
			<stop  offset="0" style="stop-color:#8A59F3"/>
			<stop  offset="1" style="stop-color:#5958F4"/>
		</linearGradient>
		<path style="fill:url(#SVGID_00000121265618290625273340000015825878397556250269_);" d="M24.9,24.3v-7.1c0-0.2-0.1-0.3-0.2-0.5
			c0,0-0.1-0.1-0.1-0.1L18.5,13c0,0-0.1-0.1-0.2-0.1c-0.1,0-0.2,0-0.3,0c-0.1,0-0.1,0-0.2,0.1l-6.2,3.6c-0.1,0.1-0.3,0.2-0.3,0.4
			c0,0.1,0,0.1,0,0.2v7.1c0,0.1,0,0.2,0.1,0.3c0.1,0.1,0.1,0.2,0.2,0.2l6.2,3.6c0.1,0.1,0.2,0.1,0.3,0.1s0.2,0,0.3-0.1l6.2-3.6
			c0.1-0.1,0.2-0.1,0.2-0.2C24.9,24.5,24.9,24.4,24.9,24.3z M22.6,23c0,0.1,0,0.2-0.1,0.3c-0.1,0.1-0.1,0.2-0.2,0.2l-3.9,2.3
			c-0.1,0.1-0.2,0.1-0.3,0.1s-0.2,0-0.3-0.1L14,23.5c-0.1-0.1-0.2-0.1-0.2-0.2s-0.1-0.2-0.1-0.3v-4.5c0-0.1,0-0.2,0.1-0.3
			c0.1-0.1,0.1-0.2,0.2-0.2l3.9-2.3c0.1-0.1,0.2-0.1,0.3-0.1c0.1,0,0.2,0,0.3,0.1l3.9,2.3c0.1,0.1,0.2,0.1,0.2,0.2
			c0.1,0.1,0.1,0.2,0.1,0.3L22.6,23z"/>
	</g>
</g>
<g>
	<path class="st15" d="M59.6,11.2v2.2h-5.7v18.7h-2.8V13.4h-5.8v-2.2H59.6z"/>
	<path class="st15" d="M67.9,16.2c0.9-0.5,2-0.8,3.3-0.8v2.8h-0.7c-3.1,0-4.6,1.7-4.6,5v8.9H63V15.7h2.8v2.7
		C66.2,17.4,67,16.7,67.9,16.2z"/>
	<path class="st15" d="M89.3,24.9H76.1c0.1,1.6,0.7,2.9,1.7,3.8c1,0.9,2.3,1.4,3.7,1.4c1.2,0,2.2-0.3,3-0.8c0.8-0.5,1.4-1.3,1.7-2.2
		h3c-0.4,1.5-1.4,2.9-2.7,3.9c-1.3,1-3,1.5-5,1.5c-1.6,0-3-0.4-4.2-1.1c-1.2-0.7-2.2-1.7-2.9-3c-0.7-1.3-1.1-2.8-1.1-4.5
		c0-1.7,0.3-3.2,1-4.5c0.6-1.2,1.7-2.3,2.9-3c1.2-0.7,2.7-1,4.3-1c1.6,0,3,0.3,4.2,1c1.2,0.7,2.2,1.6,2.8,2.8c0.7,1.2,1,2.5,1,4
		C89.4,23.8,89.4,24.4,89.3,24.9z M85.9,20c-0.5-0.7-1.1-1.3-1.9-1.7c-0.8-0.4-1.7-0.6-2.6-0.6c-1.4,0-2.6,0.4-3.6,1.3
		c-1,0.9-1.5,2.1-1.7,3.7h10.5C86.6,21.7,86.4,20.8,85.9,20z"/>
	<path class="st15" d="M98.3,16.3c1.1-0.6,2.3-0.9,3.7-0.9c1.5,0,2.8,0.4,4,1.1c1.2,0.7,2.1,1.7,2.8,3c0.7,1.3,1,2.7,1,4.4
		c0,1.7-0.3,3.1-1,4.4c-0.7,1.3-1.6,2.3-2.8,3c-1.2,0.7-2.5,1.1-4,1.1c-1.4,0-2.7-0.3-3.8-0.9c-1.1-0.6-1.9-1.4-2.4-2.4v3h-2.8V9.9
		h2.8v8.8C96.4,17.8,97.2,17,98.3,16.3z M106.3,20.6c-0.5-0.9-1.2-1.6-2-2.1c-0.9-0.5-1.8-0.7-2.8-0.7c-1,0-1.9,0.2-2.8,0.7
		c-0.9,0.5-1.5,1.2-2.1,2.1c-0.5,0.9-0.8,2-0.8,3.2c0,1.2,0.3,2.3,0.8,3.3c0.5,0.9,1.2,1.6,2.1,2.1c0.8,0.5,1.8,0.7,2.8,0.7
		c1,0,2-0.2,2.8-0.7c0.9-0.5,1.5-1.2,2-2.1c0.5-0.9,0.8-2,0.8-3.3C107.1,22.6,106.8,21.5,106.3,20.6L106.3,20.6z"/>
	<path class="st15" d="M128.5,24.9h-13.2c0.1,1.6,0.7,2.9,1.7,3.8s2.3,1.4,3.7,1.4c1.2,0,2.2-0.3,3-0.8c0.8-0.5,1.4-1.3,1.7-2.2h3
		c-0.4,1.5-1.4,2.9-2.7,3.9c-1.3,1-3,1.5-5,1.5c-1.6,0-3-0.4-4.2-1.1c-1.2-0.7-2.2-1.7-2.9-3c-0.7-1.3-1.1-2.8-1.1-4.5
		c0-1.7,0.3-3.2,1-4.5c0.6-1.2,1.7-2.3,2.9-3c1.2-0.7,2.7-1,4.3-1c1.6,0,3,0.3,4.2,1c1.2,0.7,2.2,1.6,2.8,2.8c0.7,1.2,1,2.5,1,4
		C128.6,23.8,128.6,24.4,128.5,24.9z M125.1,20c-0.5-0.7-1.1-1.3-1.9-1.7c-0.8-0.4-1.7-0.6-2.6-0.6c-1.4,0-2.6,0.4-3.6,1.3
		c-1,0.9-1.5,2.1-1.7,3.7h10.5C125.8,21.7,125.5,20.8,125.1,20z"/>
	<path class="st15" d="M135,9.9v22.2h-2.8V9.9H135z"/>
	<path class="st15" d="M142.4,9.9v22.2h-2.8V9.9H142.4z"/>
	<path class="st15" d="M147.1,19.4c0.7-1.3,1.6-2.3,2.8-3c1.2-0.7,2.5-1.1,4-1.1c1.5,0,2.7,0.3,3.8,0.9c1.1,0.6,1.9,1.4,2.4,2.3v-3
		h2.8v16.5h-2.8v-3.1c-0.5,1-1.4,1.8-2.4,2.4c-1.1,0.6-2.3,0.9-3.8,0.9c-1.5,0-2.8-0.4-4-1.1c-1.2-0.7-2.1-1.7-2.8-3
		c-0.7-1.3-1-2.8-1-4.4C146.1,22.2,146.4,20.7,147.1,19.4z M159.4,20.6c-0.5-0.9-1.2-1.6-2-2.1c-0.9-0.5-1.8-0.7-2.8-0.7
		c-1,0-2,0.2-2.8,0.7c-0.8,0.5-1.5,1.2-2,2.1c-0.5,0.9-0.8,2-0.8,3.2c0,1.3,0.3,2.4,0.8,3.3c0.5,0.9,1.2,1.6,2,2.1
		c0.9,0.5,1.8,0.7,2.8,0.7c1,0,2-0.2,2.8-0.7c0.9-0.5,1.5-1.2,2-2.1c0.5-0.9,0.8-2,0.8-3.3C160.1,22.6,159.9,21.5,159.4,20.6z"/>
	<path class="st15" d="M172.4,16.2c0.9-0.5,2-0.8,3.3-0.8v2.8h-0.7c-3.1,0-4.6,1.7-4.6,5v8.9h-2.8V15.7h2.8v2.7
		C170.8,17.4,171.5,16.7,172.4,16.2z"/>
	<path class="st15" d="M59.6,11.2v2.2h-5.7v18.7h-2.8V13.4h-5.8v-2.2H59.6z"/>
	<path class="st15" d="M67.9,16.2c0.9-0.5,2-0.8,3.3-0.8v2.8h-0.7c-3.1,0-4.6,1.7-4.6,5v8.9H63V15.7h2.8v2.7
		C66.2,17.4,67,16.7,67.9,16.2z"/>
	<path class="st15" d="M89.3,24.9H76.1c0.1,1.6,0.7,2.9,1.7,3.8c1,0.9,2.3,1.4,3.7,1.4c1.2,0,2.2-0.3,3-0.8c0.8-0.5,1.4-1.3,1.7-2.2
		h3c-0.4,1.5-1.4,2.9-2.7,3.9c-1.3,1-3,1.5-5,1.5c-1.6,0-3-0.4-4.2-1.1c-1.2-0.7-2.2-1.7-2.9-3c-0.7-1.3-1.1-2.8-1.1-4.5
		c0-1.7,0.3-3.2,1-4.5c0.6-1.2,1.7-2.3,2.9-3c1.2-0.7,2.7-1,4.3-1c1.6,0,3,0.3,4.2,1c1.2,0.7,2.2,1.6,2.8,2.8c0.7,1.2,1,2.5,1,4
		C89.4,23.8,89.4,24.4,89.3,24.9z M85.9,20c-0.5-0.7-1.1-1.3-1.9-1.7c-0.8-0.4-1.7-0.6-2.6-0.6c-1.4,0-2.6,0.4-3.6,1.3
		c-1,0.9-1.5,2.1-1.7,3.7h10.5C86.6,21.7,86.4,20.8,85.9,20z"/>
	<path class="st15" d="M98.3,16.3c1.1-0.6,2.3-0.9,3.7-0.9c1.5,0,2.8,0.4,4,1.1c1.2,0.7,2.1,1.7,2.8,3c0.7,1.3,1,2.7,1,4.4
		c0,1.7-0.3,3.1-1,4.4c-0.7,1.3-1.6,2.3-2.8,3c-1.2,0.7-2.5,1.1-4,1.1c-1.4,0-2.7-0.3-3.8-0.9c-1.1-0.6-1.9-1.4-2.4-2.4v3h-2.8V9.9
		h2.8v8.8C96.4,17.8,97.2,17,98.3,16.3z M106.3,20.6c-0.5-0.9-1.2-1.6-2-2.1c-0.9-0.5-1.8-0.7-2.8-0.7c-1,0-1.9,0.2-2.8,0.7
		c-0.9,0.5-1.5,1.2-2.1,2.1c-0.5,0.9-0.8,2-0.8,3.2c0,1.2,0.3,2.3,0.8,3.3c0.5,0.9,1.2,1.6,2.1,2.1c0.8,0.5,1.8,0.7,2.8,0.7
		c1,0,2-0.2,2.8-0.7c0.9-0.5,1.5-1.2,2-2.1c0.5-0.9,0.8-2,0.8-3.3C107.1,22.6,106.8,21.5,106.3,20.6L106.3,20.6z"/>
	<path class="st15" d="M128.5,24.9h-13.2c0.1,1.6,0.7,2.9,1.7,3.8s2.3,1.4,3.7,1.4c1.2,0,2.2-0.3,3-0.8c0.8-0.5,1.4-1.3,1.7-2.2h3
		c-0.4,1.5-1.4,2.9-2.7,3.9c-1.3,1-3,1.5-5,1.5c-1.6,0-3-0.4-4.2-1.1c-1.2-0.7-2.2-1.7-2.9-3c-0.7-1.3-1.1-2.8-1.1-4.5
		c0-1.7,0.3-3.2,1-4.5c0.6-1.2,1.7-2.3,2.9-3c1.2-0.7,2.7-1,4.3-1c1.6,0,3,0.3,4.2,1c1.2,0.7,2.2,1.6,2.8,2.8c0.7,1.2,1,2.5,1,4
		C128.6,23.8,128.6,24.4,128.5,24.9z M125.1,20c-0.5-0.7-1.1-1.3-1.9-1.7c-0.8-0.4-1.7-0.6-2.6-0.6c-1.4,0-2.6,0.4-3.6,1.3
		c-1,0.9-1.5,2.1-1.7,3.7h10.5C125.8,21.7,125.5,20.8,125.1,20z"/>
	<path class="st15" d="M135,9.9v22.2h-2.8V9.9H135z"/>
	<path class="st15" d="M142.4,9.9v22.2h-2.8V9.9H142.4z"/>
	<path class="st15" d="M147.1,19.4c0.7-1.3,1.6-2.3,2.8-3c1.2-0.7,2.5-1.1,4-1.1c1.5,0,2.7,0.3,3.8,0.9c1.1,0.6,1.9,1.4,2.4,2.3v-3
		h2.8v16.5h-2.8v-3.1c-0.5,1-1.4,1.8-2.4,2.4c-1.1,0.6-2.3,0.9-3.8,0.9c-1.5,0-2.8-0.4-4-1.1c-1.2-0.7-2.1-1.7-2.8-3
		c-0.7-1.3-1-2.8-1-4.4C146.1,22.2,146.4,20.7,147.1,19.4z M159.4,20.6c-0.5-0.9-1.2-1.6-2-2.1c-0.9-0.5-1.8-0.7-2.8-0.7
		c-1,0-2,0.2-2.8,0.7c-0.8,0.5-1.5,1.2-2,2.1c-0.5,0.9-0.8,2-0.8,3.2c0,1.3,0.3,2.4,0.8,3.3c0.5,0.9,1.2,1.6,2,2.1
		c0.9,0.5,1.8,0.7,2.8,0.7c1,0,2-0.2,2.8-0.7c0.9-0.5,1.5-1.2,2-2.1c0.5-0.9,0.8-2,0.8-3.3C160.1,22.6,159.9,21.5,159.4,20.6z"/>
	<path class="st15" d="M172.4,16.2c0.9-0.5,2-0.8,3.3-0.8v2.8h-0.7c-3.1,0-4.6,1.7-4.6,5v8.9h-2.8V15.7h2.8v2.7
		C170.8,17.4,171.5,16.7,172.4,16.2z"/>
</g>
</svg>
