<svg width="74" height="59" viewBox="0 0 74 59" fill="none" xmlns="http://www.w3.org/2000/svg">
<g clip-path="url(#clip0_50_7)">
<path d="M4.55665 58.5074V46.1133H11.665C17.2545 46.1133 20.0493 43.3186 20.0493 37.7291V31.8966H16.9507C12.0903 31.8966 8.01971 30.4384 4.73892 27.5222C1.57964 24.6059 0 20.8998 0 16.4039C0 11.5435 1.57964 7.59442 4.73892 4.55666C8.01971 1.51889 12.0903 0 16.9507 0C21.9327 0 26.0033 1.57965 29.1626 4.73893C32.3218 7.77669 33.9015 11.908 33.9015 17.133V38.0936C33.9015 51.7028 27.0969 58.5074 13.4877 58.5074H4.55665ZM44.6552 58.5074V46.1133H51.7636C57.353 46.1133 60.1478 43.3186 60.1478 37.7291V31.8966H57.0493C52.1888 31.8966 48.1182 30.4384 44.8374 27.5222C41.6782 24.6059 40.0985 20.8998 40.0985 16.4039C40.0985 11.5435 41.6782 7.59442 44.8374 4.55666C48.1182 1.51889 52.1888 0 57.0493 0C62.0312 0 66.1018 1.57965 69.2611 4.73893C72.4204 7.77669 74 11.908 74 17.133V38.0936C74 51.7028 67.1954 58.5074 53.5862 58.5074H44.6552Z" fill="#E8E8E8"/>
</g>
<defs>
<clipPath id="clip0_50_7">
<rect width="74" height="58.5074" fill="white"/>
</clipPath>
</defs>
</svg>
