<svg width="120" height="60" xmlns="http://www.w3.org/2000/svg"><path d="M51.786 19.4l-8.887 21.333h-5.81l-4.377-17.04c-.266-1.04-.504-1.44-1.3-1.866-1.327-.72-3.502-1.387-5.412-1.814l.133-.613h9.338c1.193 0 2.255.8 2.52 2.16l2.308 12.346 5.73-14.506h5.757zm7.852 0l-4.536 21.333H49.61L54.147 19.4h5.491zm14.883 14.346c.026-5.626-7.747-5.946-7.694-8.453.027-.773.743-1.573 2.335-1.786.796-.107 2.945-.187 5.412.96l.955-4.534c-1.327-.48-3.024-.933-5.12-.933-5.439 0-9.232 2.907-9.285 7.04-.027 3.066 2.732 4.773 4.801 5.813 2.15 1.04 2.866 1.707 2.839 2.64-.027 1.44-1.698 2.053-3.29 2.08-2.759.053-4.35-.747-5.624-1.36l-1.008 4.666c1.274.587 3.661 1.094 6.102 1.12 5.783.054 9.55-2.826 9.577-7.253zm14.325 6.96h5.067l-4.43-21.333h-4.67c-1.06 0-1.936.614-2.334 1.574l-8.224 19.759h5.757l1.14-3.173h7.03l.664 3.173zm-6.128-7.546l2.892-8 1.67 8h-4.562z" fill="#1A1F71" fill-rule="nonzero"/></svg>